<svg width="56" height="56" viewBox="0 0 56 56" fill="none" xmlns="http://www.w3.org/2000/svg">
<path d="M12.264 0H43.736C50.5094 0 56 5.49062 56 12.264V43.736C56 50.5094 50.5094 56 43.736 56H12.264C5.49062 56 0 50.5094 0 43.736V12.264C0 5.49062 5.49062 0 12.264 0Z" fill="url(#paint0_linear)"/>
<path d="M17.9468 40.6459L17.952 40.6477L16.0373 43.9639C15.3384 45.1745 13.7905 45.5893 12.5799 44.8904C11.3696 44.1914 10.9546 42.6436 11.6535 41.433L13.064 38.99L13.1994 38.7555C13.4412 38.4081 14.0377 37.8083 15.231 37.9212C15.231 37.9212 18.0391 38.2259 18.2423 39.6854C18.2423 39.6854 18.2699 40.1656 17.9468 40.6459ZM45.1031 32.1759H39.1325C38.7258 32.1486 38.5484 32.0033 38.4784 31.9189L38.4741 31.9112L32.0828 20.8412L32.0745 20.8466L31.6913 20.2971C31.063 19.3364 30.0655 21.7934 30.0655 21.7934C28.8744 24.5313 30.2346 27.6439 30.7086 28.5847L39.586 43.9607C40.2846 45.171 41.8325 45.586 43.0433 44.8869C44.2537 44.1879 44.6686 42.6401 43.9695 41.4295L41.7498 37.5847C41.7067 37.4916 41.6319 37.2387 42.0871 37.2376H45.1031C46.5009 37.2376 47.634 36.1045 47.634 34.7066C47.634 33.3088 46.5009 32.1757 45.1031 32.1757V32.1759ZM33.5062 35.6164C33.5062 35.6164 33.825 37.2376 32.5919 37.2376H10.5202C9.12238 37.2376 7.98926 36.1045 7.98926 34.7066C7.98926 33.3088 9.12238 32.1757 10.5202 32.1757H16.1946C17.1107 32.1228 17.3277 31.5938 17.3277 31.5938L17.3329 31.5965L24.7398 18.7672L24.7376 18.7668C24.8726 18.5189 24.7602 18.2846 24.7407 18.2477L22.2944 14.0107C21.5955 12.8003 22.0103 11.2522 23.2208 10.5536C24.4314 9.85465 25.9793 10.2692 26.6782 11.4797L27.8126 13.4448L28.9451 11.4832C29.644 10.2729 31.1919 9.85793 32.4024 10.5571C33.613 11.256 34.0277 12.8036 33.3288 14.0142L23.0218 31.8664C22.9767 31.9751 22.9629 32.1457 23.2983 32.1757H29.4591L29.4605 32.2359C29.4605 32.2359 33.0213 32.2912 33.5062 35.6164Z" fill="white"/>
<defs>
<linearGradient id="paint0_linear" x1="28" y1="0" x2="28" y2="56" gradientUnits="userSpaceOnUse">
<stop stop-color="#17C9FB"/>
<stop offset="1" stop-color="#1A74E8"/>
</linearGradient>
</defs>
</svg>
