<svg width="178" height="130" viewBox="0 0 178 130" fill="none" xmlns="http://www.w3.org/2000/svg">
<path fill-rule="evenodd" clip-rule="evenodd" d="M19.2927 115.852C32.674 130.418 84.4202 122.051 118.493 122.051C133.192 122.051 182.52 129.418 162.15 78.8237C95.3615 -87.0668 -23.1061 69.6996 19.2927 115.852Z" fill="#FFF1DA"/>
<path fill-rule="evenodd" clip-rule="evenodd" d="M78.4991 117.024C78.5642 116.974 78.6324 116.92 78.6607 116.843C78.7515 116.596 78.3952 116.432 78.1324 116.438C77.751 116.447 77.2619 116.704 77.3786 117.067C77.4462 117.277 77.705 117.375 77.9224 117.336C78.1398 117.297 78.324 117.159 78.4991 117.024ZM79.626 112.699C79.914 112.789 80.1984 112.901 80.4492 113.069C80.9202 113.384 81.2407 113.874 81.5482 114.35C81.7687 114.691 81.9922 115.039 82.1022 115.43C82.2214 115.854 82.2001 116.306 82.1203 116.739C81.8717 118.087 81.0396 119.318 79.8809 120.05C78.7221 120.783 77.254 121.007 75.9294 120.654C75.6715 120.585 75.4118 120.491 75.2135 120.313C75.0469 120.163 74.9345 119.963 74.8318 119.763C74.2922 118.717 73.9285 117.555 73.97 116.379C74.0116 115.203 74.4951 114.012 75.411 113.273C76.5604 112.345 78.2166 112.257 79.626 112.699" fill="white"/>
<path fill-rule="evenodd" clip-rule="evenodd" d="M140.46 48.7066C139.829 48.6987 139.236 49.2282 139.174 49.8567C139.148 50.1136 139.257 50.4328 139.513 50.4682C139.705 50.4948 139.873 50.3467 140.001 50.2024C140.274 49.8971 140.508 49.5576 140.696 49.1943C140.759 49.0724 140.815 48.916 140.732 48.8067C140.671 48.7271 140.56 48.7079 140.46 48.7066ZM140.191 45.8884C141.088 46.2014 141.901 46.7517 142.524 47.4682C143.06 48.0841 143.468 48.8835 143.356 49.692C143.314 49.9888 143.205 50.2719 143.08 50.5443C142.607 51.5761 141.793 52.5649 140.676 52.7647C140.09 52.8695 139.486 52.7439 138.922 52.5521C138.27 52.3303 137.648 52.0193 137.08 51.6303C136.779 51.424 136.479 51.1791 136.347 50.8386C136.256 50.6039 136.253 50.3454 136.257 50.0937C136.265 49.4711 136.306 48.838 136.523 48.2545C136.798 47.5161 137.335 46.9066 137.905 46.3627C138.134 46.1439 138.377 45.9284 138.672 45.8111C139.153 45.6193 139.702 45.7177 140.191 45.8884Z" fill="white"/>
<path fill-rule="evenodd" clip-rule="evenodd" d="M140.465 0.971865C144.176 4.79872 147.105 9.37476 149.022 14.3408C149.154 14.6819 149.282 15.0608 149.156 15.4042C148.189 18.0478 146.322 20.2517 144.492 22.3947C143.322 23.7641 142.153 25.1334 140.983 26.5028C139.867 27.8101 138.75 29.1175 137.596 30.3919C131.719 36.8805 124.775 42.5542 116.733 46.0452C116.429 46.177 116.104 46.3083 115.777 46.2557C115.45 46.203 115.144 45.8869 115.229 45.5683C116.224 41.8656 117.224 37.9944 116.426 34.2447C116.234 33.3403 116.019 32.2015 116.77 31.6573C122.844 27.251 127.217 20.9529 131.408 14.7402C132.462 13.1781 133.513 11.6116 134.445 9.97474C136.101 7.06849 137.376 3.94737 138.228 0.715303C138.345 0.271781 138.907 0.0720635 139.352 0.188295C139.798 0.304526 140.146 0.642048 140.465 0.971865" fill="white"/>
<path fill-rule="evenodd" clip-rule="evenodd" d="M24.7372 15.8386C25.3405 21.2927 27.0196 26.6257 29.6499 31.4416C31.2785 34.4234 33.2594 37.1959 35.235 39.96C36.6097 41.8834 38.0799 43.8879 40.2249 44.8819C40.7953 45.1462 40.7157 45.9685 40.5626 46.5782C39.901 49.2136 39.5923 51.9373 39.6473 54.6539C39.6525 54.9106 39.6592 55.1766 39.5584 55.4127C39.2161 56.214 38.0432 56.0805 37.2358 55.7527C32.24 53.7247 28.4044 49.6463 24.8214 45.6172C20.1694 40.3861 15.5866 34.9252 12.8385 28.4867C12.6516 28.049 12.4703 27.5883 12.5016 27.1135C12.5334 26.6296 12.782 26.1898 13.0342 25.7756C15.5255 21.6837 18.9913 18.1897 23.0628 15.6653C23.3496 15.4875 23.6558 15.3094 23.993 15.2977C24.3302 15.286 24.7001 15.5033 24.7372 15.8386Z" fill="white"/>
<path fill-rule="evenodd" clip-rule="evenodd" d="M139.736 111.518C140.166 110.788 140.7 109.985 141.536 109.846C141.865 109.792 142.039 109.434 142.151 109.119C143.532 105.244 143.666 100.935 142.526 96.9823C142.201 95.854 142.601 94.6579 142.998 93.5525C144.02 90.6999 145.043 87.8473 146.065 84.9947C145.479 83.9812 143.935 84.0113 143.143 83.1487C142.125 82.0389 142.893 80.2741 143.691 78.9965C148.352 71.532 153.013 64.0676 157.674 56.6032C158.245 55.6887 159.498 55.402 160.548 55.6457C161.598 55.8894 162.495 56.5504 163.359 57.1956C166.758 59.7346 170.158 62.2736 173.557 64.8126C175.382 66.1754 177.396 67.9161 177.291 70.1909C177.233 71.4496 176.512 72.5686 175.815 73.6185C173.121 77.6781 170.427 81.7377 167.733 85.7973C166.216 88.0843 166.635 91.088 166.176 93.7943C165.451 98.0703 162.519 101.582 159.804 104.964C157.088 108.346 154.372 112.122 154.219 116.456C154.037 121.622 151.583 126.668 147.631 130C148.777 127.219 141.536 128.328 133.252 125.032C134.615 120.21 137.189 115.833 139.736 111.518Z" fill="white"/>
<path fill-rule="evenodd" clip-rule="evenodd" d="M48.7788 123.612C48.2623 123.189 48.0975 122.476 48.0063 121.813C46.9514 114.143 51.482 106.572 50.675 98.8711C50.2591 94.9026 48.4357 91.1997 46.1411 87.9431C44.5565 85.6942 44.4677 82.6813 45.0589 79.9905C45.65 77.2996 46.8426 74.7835 47.6469 72.1491C51.2238 60.4338 46.8714 47.9183 42.5684 36.4524C51.1429 32.306 61.1488 33.1091 70.6478 33.6708C80.1469 34.2326 90.363 34.2724 98.2802 28.9674C99.3654 40.4436 96.9726 51.9325 94.5934 63.2097C106.666 62.0336 118.738 60.8575 130.81 59.6814C131.156 59.6476 131.535 59.6216 131.823 59.8182C132.206 60.0805 132.265 60.6153 132.287 61.0812C132.852 73.016 133.194 84.9615 133.313 96.9092C133.316 97.2088 133.306 97.543 133.096 97.7555C132.916 97.9375 132.641 97.9755 132.387 98.0038C115.474 99.8886 98.5603 101.773 81.6467 103.658C80.1841 103.821 78.1006 103.44 78.1863 101.964C78.5682 95.3807 78.3453 88.7622 77.5212 82.2201C73.0263 82.05 68.5008 82.7354 64.2555 84.2293C63.2923 84.5682 62.1342 85.4795 62.6537 86.3623C66.0903 92.2024 61.8249 100.981 66.4924 105.883C68.0973 107.569 67.9864 110.221 67.6683 112.532C66.9865 117.485 65.8283 122.372 64.215 127.103C64.9949 121.658 49.2554 126.532 48.7788 123.612Z" fill="white"/>
<path fill-rule="evenodd" clip-rule="evenodd" d="M0.397782 0.00790203C0.412232 0.124169 0.349321 0.246254 0.246252 0.301962C0.164168 0.219839 0.0820839 0.137716 0 0.0555922C0.123054 0.00177117 0.262611 -0.0135801 0.394422 0.012206L0.397782 0.00790203Z" fill="#00160A"/>
<path fill-rule="evenodd" clip-rule="evenodd" d="M79.335 112.699C79.623 112.789 79.9074 112.901 80.1582 113.069C80.6292 113.384 80.9497 113.874 81.2572 114.35C81.4777 114.691 81.7012 115.039 81.8112 115.43C81.9304 115.854 81.9091 116.306 81.8293 116.739C81.5807 118.087 80.7486 119.318 79.5899 120.05C78.4311 120.783 76.9629 121.007 75.6383 120.654C75.3805 120.585 75.1208 120.491 74.9225 120.313C74.7558 120.163 74.6435 119.963 74.5407 119.763C74.0012 118.717 73.6375 117.555 73.679 116.379C73.7206 115.203 74.2041 114.012 75.12 113.273C76.2694 112.345 77.9256 112.257 79.335 112.699M77.7185 119.702C78.439 119.593 79.0731 119.122 79.4872 118.523C79.9013 117.923 80.1138 117.204 80.2158 116.482C80.2741 116.07 80.2794 115.598 79.9885 115.3C79.8144 115.122 79.5657 115.043 79.327 114.971C78.4313 114.703 77.4087 114.475 76.6063 114.955C76.022 115.305 75.6963 115.953 75.401 116.566C75.0552 117.285 75.1406 118.192 75.6145 118.833C76.0884 119.474 76.9302 119.822 77.7185 119.702V119.702Z" fill="#00160A"/>
<path fill-rule="evenodd" clip-rule="evenodd" d="M112.249 80.3373C112.261 80.1845 112.28 80.0205 112.381 79.9052C112.48 79.7925 112.635 79.752 112.782 79.718C116.546 78.8416 120.433 78.4987 124.293 78.7028C124.784 78.7288 125.416 78.8952 125.449 79.3863C125.635 82.202 125.822 85.0177 126.008 87.8334C126.018 87.9759 126.022 88.1339 125.931 88.2438C125.857 88.3334 125.737 88.3681 125.624 88.3974C121.61 89.4438 117.379 89.6501 113.282 88.9991C113.177 88.9824 113.066 88.9626 112.984 88.894C112.885 88.8111 112.85 88.6761 112.822 88.5502C112.218 85.8624 112.024 83.0829 112.249 80.3373ZM113.137 85.0084C113.211 86.0717 113.434 87.1245 113.798 88.1264C114.161 88.1787 114.519 88.254 114.881 88.3151C117.994 88.8422 121.178 88.3119 124.291 87.7822C124.512 87.7446 124.754 87.6947 124.89 87.5169C125.03 87.3353 125.011 87.0823 124.986 86.8548C124.879 85.8846 124.772 84.9143 124.664 83.9441C124.656 83.8659 124.645 83.782 124.592 83.7237C124.528 83.6531 124.422 83.6416 124.327 83.6354C122.115 83.4897 119.896 83.6548 117.685 83.8198C116.463 83.911 115.241 84.0022 114.019 84.0934C113.732 84.1148 113.405 84.1573 113.24 84.3933C113.119 84.5671 113.123 84.7967 113.137 85.0084ZM113.166 80.9502C112.973 81.5704 112.938 82.2392 113.066 82.8761C113.089 82.9905 113.122 83.1112 113.209 83.1892C113.337 83.3047 113.534 83.2856 113.705 83.2606C115.787 82.9556 117.891 82.8041 119.995 82.8076C120.292 82.8081 120.383 82.4085 120.38 82.1117C120.375 81.6769 120.37 81.242 120.366 80.8071C120.363 80.5554 120.35 80.2782 120.178 80.0947C119.971 79.8743 119.625 79.8812 119.323 79.9042C118.626 79.9575 117.929 80.0107 117.232 80.064C116.899 80.0894 116.014 80.3159 115.608 80.3427C114.9 80.4556 114.192 80.5685 113.485 80.6814C113.409 80.6935 113.33 80.7074 113.272 80.757C113.215 80.8053 113.188 80.8792 113.166 80.9502ZM122.505 82.8422C123.059 82.8493 123.612 82.794 124.153 82.6776C124.282 82.6498 124.417 82.6147 124.509 82.5203C124.644 82.3817 124.643 82.1643 124.633 81.9712C124.604 81.4104 124.576 80.8497 124.547 80.289C124.537 80.089 124.514 79.8637 124.358 79.7385C124.221 79.6285 124.026 79.635 123.851 79.647C123.236 79.6888 122.62 79.7307 122.005 79.7726C121.908 79.7792 121.806 79.7874 121.724 79.8412C121.575 79.9397 121.553 80.1459 121.549 80.3245C121.535 80.9188 121.559 81.514 121.621 82.1053C121.639 82.2764 121.664 82.4566 121.77 82.5923C121.935 82.8037 122.237 82.8388 122.505 82.8422Z" fill="#FFB61D"/>
<path fill-rule="evenodd" clip-rule="evenodd" d="M121.881 68.0322C122.703 67.6764 123.712 67.7956 124.429 68.3332C125.146 68.8709 125.542 69.8062 125.431 70.6952C125.935 70.4229 126.574 70.1546 127.044 70.4817C127.575 70.8511 127.453 71.6465 127.374 72.2883C127.234 73.4097 127.415 74.569 127.889 75.5948C128.085 76.0184 128.253 76.6613 127.819 76.8322C127.745 76.8611 127.665 76.8677 127.587 76.8741C122.494 77.2845 117.401 77.6949 112.308 78.1054C112.168 78.1166 112.012 78.1227 111.906 78.0307C111.799 77.9368 111.785 77.777 111.779 77.6341C111.73 76.4362 111.682 75.2383 111.633 74.0403C111.62 73.719 111.613 73.3725 111.795 73.107C112.095 72.6676 112.724 72.6689 113.25 72.5848C113.775 72.5006 114.387 72.0572 114.185 71.5649C113.959 71.016 114.728 70.615 115.314 70.5257C115.901 70.4364 116.679 70.0868 116.501 69.5207C116.307 68.9023 117.158 68.5184 117.801 68.4331C118.254 68.3729 118.728 68.3147 119.158 68.4702C119.588 68.6258 119.952 69.0685 119.855 69.5155C119.744 70.0272 120.367 70.504 120.859 70.3232C121.35 70.1425 121.549 69.4709 121.301 69.0101C121.097 68.6338 121.489 68.2021 121.881 68.0322ZM124.513 75.9269C124.322 75.5738 124.321 75.1532 124.319 74.752C124.311 72.8679 124.195 70.9842 123.973 69.1132C123.961 69.0188 123.944 68.9133 123.866 68.8579C123.8 68.8103 123.71 68.8159 123.628 68.8235C123.231 68.8607 122.759 68.9486 122.602 69.316C122.535 69.4727 122.543 69.6499 122.552 69.8201C122.653 71.7085 122.754 73.5969 122.854 75.4853C122.864 75.6612 122.887 75.8631 123.033 75.9614C123.113 76.0149 123.213 76.0249 123.309 76.0301C123.713 76.0521 124.119 76.0173 124.513 75.9269ZM117.663 73.0231C117.614 73.3377 117.544 73.65 117.526 73.9679C117.495 74.4992 117.607 75.0273 117.718 75.5478C117.789 75.8815 118.221 76.0457 118.537 75.9171C118.853 75.7884 119.044 75.4512 119.096 75.114C119.149 74.7768 119.087 74.4337 119.034 74.0968C118.823 72.7729 118.731 71.4299 118.761 70.0897C118.768 69.7505 118.438 69.4442 118.1 69.4776C117.762 69.5111 117.498 69.8764 117.572 70.2075C117.778 71.1293 117.809 72.0899 117.663 73.0231ZM121.009 71.2146C120.811 70.9545 120.356 71.093 120.201 71.3812C120.046 71.6694 120.093 72.0189 120.132 72.3439C120.232 73.1925 120.242 74.0517 120.16 74.9024C120.136 75.1531 120.11 75.4269 120.248 75.6374C120.461 75.9611 120.928 75.9582 121.314 75.919C121.435 75.9067 121.574 75.8833 121.634 75.7782C121.677 75.7049 121.667 75.614 121.655 75.5302C121.478 74.2105 121.3 72.8907 121.122 71.571C121.105 71.446 121.086 71.3148 121.009 71.2146ZM125.418 71.7818C125.268 71.9858 125.237 72.2514 125.224 72.504C125.179 73.3703 125.294 74.2359 125.409 75.0957C125.454 75.4345 125.609 75.8699 125.95 75.8468C126.295 75.8234 126.385 75.3612 126.377 75.0149C126.356 74.0978 126.335 73.1807 126.313 72.2635C126.308 72.0224 126.282 71.7431 126.082 71.6085C125.872 71.4673 125.568 71.5778 125.418 71.7818ZM114.984 71.5651C114.984 71.5651 115.135 72.7619 115.188 73.3719C115.255 74.1375 115.339 74.9015 115.442 75.663C115.457 75.7736 115.477 75.8934 115.559 75.9695C115.7 76.1015 116.246 76.0138 116.346 75.8485C116.447 75.6832 116.441 75.4769 116.433 75.2836C116.405 74.6723 116.377 74.061 116.349 73.4497C116.32 72.7944 116.164 71.3813 116.164 71.3813M113.002 75.8989C113.046 76.036 113.098 76.1795 113.208 76.2712C113.425 76.4503 113.776 76.3395 113.946 76.1164C114.117 75.8933 114.155 75.5995 114.188 75.3206C114.228 74.9784 114.266 74.6227 114.156 74.2965C114.045 73.9702 113.738 73.6832 113.395 73.7135C113.079 73.7414 112.835 74.0298 112.761 74.338C112.687 74.6462 112.75 74.9695 112.826 75.277C112.878 75.4861 112.937 75.6935 113.002 75.8989Z" fill="#E7EAEE"/>
<path fill-rule="evenodd" clip-rule="evenodd" d="M133.648 26.8874C133.237 27.5046 132.791 28.1298 132.155 28.5109C131.519 28.892 130.64 28.9663 130.069 28.4938C129.438 27.9726 129.399 27.0329 129.449 26.2162C129.468 25.9017 129.493 25.5848 129.584 25.2829C129.74 24.7594 130.081 24.3126 130.437 23.8983C130.869 23.3957 131.348 22.9108 131.947 22.628C132.547 22.3452 133.292 22.2955 133.854 22.6474C134.526 23.0686 134.775 23.9647 134.647 24.7478C134.52 25.5309 134.088 26.2271 133.648 26.8874M132.34 27.5401C132.858 26.9878 133.303 26.3664 133.658 25.6974C133.892 25.2572 134.091 24.7787 134.082 24.2803C134.073 23.7818 133.81 23.2609 133.347 23.0759C132.744 22.835 132.082 23.2204 131.578 23.6298C131.219 23.9213 130.872 24.2411 130.642 24.6419C130.496 24.8954 130.402 25.1743 130.308 25.4512C130.131 25.975 129.951 26.5207 130.019 27.0695C130.086 27.6184 130.479 28.1693 131.029 28.2262C131.538 28.2788 131.99 27.9132 132.34 27.5401Z" fill="#FFB61D"/>
<path fill-rule="evenodd" clip-rule="evenodd" d="M27.724 33.8632C28.3682 34.5156 28.8999 35.2788 29.2889 36.1091C29.6798 36.9436 29.2857 38.016 28.5185 38.5265C27.7513 39.0369 26.7141 39.0302 25.8729 38.654C25.0317 38.2778 24.3707 37.5757 23.8838 36.7933C23.5168 36.2035 23.2322 35.5424 23.2017 34.8484C23.1711 34.1544 23.4267 33.4239 23.9757 32.9983C24.5311 32.5678 25.3119 32.5063 25.9835 32.7129C26.6551 32.9195 27.2304 33.3631 27.724 33.8632ZM25.2143 33.4666C24.657 33.4092 24.1619 33.9208 24.0663 34.4729C23.9706 35.025 24.1811 35.5851 24.4534 36.0748C25.044 37.1367 26.0976 38.0798 27.3112 38.0211C27.9351 37.9909 28.6189 37.5588 28.6078 36.9343C28.603 36.6642 28.4698 36.4151 28.3367 36.18C27.9833 35.5556 27.6015 34.9376 27.0916 34.4328C26.5817 33.928 25.9281 33.5401 25.2143 33.4666Z" fill="#FFB61D"/>
<path fill-rule="evenodd" clip-rule="evenodd" d="M76.4346 116.005C76.8821 115.665 77.4386 115.445 77.9994 115.481C78.5601 115.517 79.1151 115.839 79.3497 116.349C79.6015 116.897 79.4446 117.578 79.0518 118.036C78.659 118.494 78.0672 118.746 77.4699 118.83C77.0623 118.887 76.5763 118.836 76.3531 118.49C76.2454 118.323 76.221 118.117 76.1994 117.92C76.1605 117.566 76.1216 117.211 76.0827 116.857C76.0663 116.707 76.0504 116.551 76.0987 116.408C76.1555 116.239 76.2932 116.112 76.4346 116.005M78.205 117.024C78.2701 116.974 78.3382 116.92 78.3666 116.843C78.4574 116.596 78.1011 116.432 77.8383 116.438C77.4568 116.447 76.9678 116.704 77.0845 117.067C77.1521 117.277 77.4109 117.375 77.6283 117.336C77.8456 117.297 78.0299 117.159 78.205 117.024H78.205Z" fill="#00160A"/>
<path fill-rule="evenodd" clip-rule="evenodd" d="M139.81 2.69846C143.297 6.3074 146.048 10.6229 147.85 15.3062C147.973 15.6278 148.093 15.9851 147.975 16.3089C147.067 18.802 145.313 20.8804 143.593 22.9014L140.297 26.7756C139.248 28.0084 138.199 29.2414 137.115 30.4432C131.594 36.5623 125.07 41.9129 117.514 45.2051C117.229 45.3294 116.923 45.4533 116.616 45.4036C116.309 45.3539 116.021 45.0559 116.102 44.7554C117.036 41.2635 117.976 37.6127 117.226 34.0766C117.045 33.2237 116.844 32.1498 117.549 31.6365C123.255 27.4812 127.364 21.5416 131.301 15.6828C132.291 14.2096 133.278 12.7323 134.155 11.1887C135.71 8.44792 136.908 5.50453 137.709 2.45651C137.818 2.03825 138.347 1.8499 138.765 1.95951C139.183 2.06913 139.51 2.38743 139.81 2.69846ZM137.37 7.17996C137.016 7.03344 136.689 7.42971 136.508 7.76794C136.32 8.12188 136.131 8.47635 135.942 8.83112L135.93 8.85332L135.922 8.86778L135.922 8.86786C132.31 15.6526 128.643 22.5413 123.139 27.8852C122.618 28.3901 122.037 29.0001 122.133 29.7186C122.44 32.0217 121.211 34.4538 119.174 35.5719C118.249 36.0796 118.26 37.3894 118.396 38.4356C118.45 38.8544 118.608 39.3794 119.029 39.4148C120.263 39.5189 121.448 40.1265 122.252 41.0683C122.506 41.3655 122.987 41.1797 123.318 40.9717C131.645 35.7368 138.044 28.0043 144.291 20.407C144.506 20.1449 144.735 19.8146 144.623 19.4945C143.678 16.8016 143.829 13.7412 145.036 11.1549C144.324 9.73809 143.475 8.38999 142.506 7.13531C140.893 7.83569 138.995 7.85218 137.37 7.17996ZM117.62 43.8219C117.948 43.9939 118.346 43.8304 118.675 43.6588C119.538 43.208 120.37 42.6963 121.162 42.1288C121.371 41.9788 121.434 41.6792 121.36 41.4326C121.286 41.186 121.101 40.9872 120.896 40.8316C120.255 40.3456 119.36 40.2178 118.61 40.5051C118.471 40.5582 118.333 40.6275 118.237 40.7411C118.125 40.8742 118.085 41.0514 118.049 41.2215C117.867 42.0814 117.724 42.9493 117.62 43.8219ZM141.006 5.38663C140.44 4.28031 139.568 3.33289 138.511 2.67819C138.144 3.00205 138.073 3.49416 138 3.99585V3.99591C137.95 4.34015 137.899 4.6889 137.752 4.99089C137.704 5.08926 137.645 5.18335 137.587 5.27723C137.475 5.45595 137.364 5.63391 137.328 5.83916C137.274 6.15222 137.539 6.54496 137.839 6.44137C138.083 6.35715 138.339 6.41125 138.598 6.46581C138.734 6.49461 138.871 6.52353 139.007 6.53232C139.8 6.58351 140.458 5.96221 141.006 5.38663ZM145.49 12.0173C144.884 13.223 144.98 14.6469 145.09 15.9918L145.248 17.9206C145.265 18.1327 145.381 18.419 145.585 18.3602C145.712 18.0049 145.954 17.7118 146.196 17.4179C146.408 17.1609 146.621 16.9033 146.758 16.6029C147.22 15.5856 146.707 14.4132 146.201 13.4168L145.49 12.0173ZM118.356 33.425C118.381 33.8023 118.773 34.0847 119.151 34.0741C119.529 34.0635 119.869 33.8189 120.09 33.512C120.311 33.2051 120.432 32.8395 120.55 32.4803L120.94 31.294C121.048 30.9633 121.055 30.4576 120.709 30.4187C120.584 30.4047 120.465 30.4708 120.363 30.5436C119.975 30.8192 119.693 31.2151 119.418 31.6034L118.669 32.661C118.507 32.8904 118.337 33.1446 118.356 33.425ZM29.062 30.2588C26.4317 25.443 24.7526 20.11 24.1493 14.6559C24.1122 14.3205 23.7423 14.1033 23.4051 14.1149C23.0679 14.1266 22.7617 14.3048 22.4749 14.4826C18.4034 17.0069 14.9376 20.501 12.4463 24.5928C12.1941 25.007 11.9455 25.4468 11.9137 25.9307C11.8824 26.4056 12.0637 26.8662 12.2506 27.3039C14.9987 33.7424 19.5815 39.2033 24.2335 44.4345C27.8165 48.4635 31.6521 52.542 36.6479 54.57C37.4554 54.8978 38.6282 55.0313 38.9705 54.2299C39.0701 53.9968 39.0648 53.7344 39.0596 53.4807L39.0594 53.4712C39.0044 50.7546 39.3131 48.0308 39.9747 45.3955C40.1278 44.7858 40.2074 43.9635 39.637 43.6992C37.492 42.7051 36.0218 40.7006 34.6471 38.7772C32.6715 36.0131 30.6906 33.2406 29.062 30.2588ZM33.7054 51.3102C33.4098 51.389 33.1148 51.2026 32.8681 51.0218C28.3211 47.6904 24.7975 43.1815 21.3355 38.7332L15.2259 30.8832C16.2572 30.2264 16.3881 28.7994 16.4106 27.577C16.4398 25.9879 16.4612 24.3519 15.8871 22.8699C15.7596 22.5405 15.9257 22.1755 16.1035 21.8703C16.8664 20.5614 17.9243 19.4256 19.1758 18.5718C19.297 18.4891 19.4252 18.407 19.5704 18.3865C19.9537 18.3324 20.2477 18.7051 20.4525 19.0335C21.2614 20.3306 22.3731 21.7976 23.898 21.6908C24.4787 21.6501 24.8007 22.3341 24.9701 22.8909C27.0765 29.8159 31.0314 36.062 35.6694 41.6192C36.2721 42.3413 36.4233 43.316 36.5732 44.2818C36.7403 45.3588 36.9057 46.4247 37.6935 47.1172C38.3662 47.7084 38.2414 48.7702 38.0598 49.6472C38.0227 49.8266 37.9785 50.0189 37.8421 50.1414C37.7409 50.2323 37.6041 50.2702 37.4726 50.3053L33.7054 51.3102ZM22.9257 20.0869C22.0916 19.5041 21.3711 18.7593 20.8162 17.9064C20.6961 17.7219 20.5796 17.5151 20.6006 17.296C20.6236 17.0578 20.8028 16.8672 20.9811 16.7076C21.4215 16.3134 21.9192 15.9835 22.4537 15.7313C22.6495 15.639 22.9022 15.564 23.0648 15.7068C23.1606 15.7909 23.1908 15.9252 23.2158 16.0502L23.9862 19.9032C24.0317 20.131 23.7928 20.3362 23.5606 20.3428C23.3284 20.3494 23.1161 20.2199 22.9257 20.0869ZM15.3063 27.5391C15.2899 28.2638 15.2346 29.0772 14.6914 29.5573C14.5778 29.5708 14.5023 29.4461 14.4577 29.3406C14.0664 28.4143 13.6697 27.4656 13.608 26.4619C13.5464 25.4581 13.8828 24.3712 14.703 23.7894C14.814 23.7107 14.9768 23.6457 15.0748 23.7401C15.1141 23.7781 15.131 23.8331 15.1453 23.8859C15.3682 24.7052 15.3507 25.568 15.3316 26.4168L15.3063 27.5391ZM37.4387 51.6461C37.5704 51.7539 37.5844 51.9467 37.588 52.1169L37.6271 53.9797C36.863 53.5561 36.1309 53.0746 35.4392 52.5408C35.308 52.4396 35.1639 52.2757 35.2442 52.1308C35.284 52.059 35.3668 52.0244 35.4439 51.9959C35.9384 51.8136 36.4496 51.6769 36.9691 51.5879C37.1297 51.5604 37.3126 51.543 37.4387 51.6461ZM37.4841 44.3083C37.4771 44.2242 37.4771 44.1325 37.5271 44.0645C37.6591 43.8851 37.9455 44.0475 38.0665 44.2344C38.3581 44.6847 38.4225 45.2743 38.2349 45.7768C37.8067 45.4098 37.5309 44.8703 37.4841 44.3083ZM151.306 30.163C152.068 29.2038 153.456 29.0658 154.681 29.0957C154.967 29.1027 155.261 29.1165 155.522 29.2352C156.246 29.5653 156.4 30.5119 156.424 31.3076C156.447 32.0316 156.442 32.7651 156.266 33.4678C156.09 34.1704 155.726 34.8474 155.144 35.2786C154.883 35.4724 154.579 35.6137 154.258 35.6675C153.762 35.7506 153.254 35.6231 152.783 35.4476C152.154 35.2137 151.558 34.8926 151.017 34.4963C150.753 34.3026 150.48 34.0492 150.472 33.7217C150.452 32.9665 150.537 32.2087 150.722 31.4765C150.841 31.0085 151.006 30.5411 151.306 30.163ZM153.279 34.9405C154.257 35.2212 155.297 34.4647 155.667 33.5171C156.038 32.5696 155.901 31.5054 155.697 30.5086C155.619 30.1259 155.21 29.9121 154.833 29.8098C154.249 29.6514 153.629 29.6304 153.036 29.7489C152.741 29.8079 152.44 29.9088 152.234 30.1268C152.121 30.2456 152.043 30.3923 151.966 30.537L151.393 31.6198C151.293 31.8102 151.191 32.0024 151.132 32.2095C150.955 32.8291 151.189 33.517 151.622 33.9946C152.054 34.4721 152.659 34.7627 153.279 34.9405ZM140.194 45.8885C141.091 46.2014 141.904 46.7518 142.527 47.4683C143.063 48.0841 143.471 48.8836 143.359 49.6921C143.317 49.9889 143.208 50.272 143.083 50.5444C142.61 51.5762 141.796 52.565 140.679 52.7648C140.093 52.8696 139.488 52.744 138.925 52.5522C138.273 52.3304 137.651 52.0193 137.083 51.6304C136.781 51.4241 136.482 51.1792 136.35 50.8387C136.259 50.604 136.256 50.3455 136.26 50.0938C136.268 49.4712 136.309 48.8381 136.526 48.2545C136.801 47.5162 137.338 46.9067 137.908 46.3627C138.137 46.144 138.38 45.9285 138.675 45.8112C139.156 45.6194 139.704 45.7178 140.194 45.8885ZM141.105 51.3153C141.753 50.674 142.131 49.7444 142.028 48.8385C141.925 47.9326 141.312 47.0825 140.454 46.7732C140.098 46.6446 139.703 46.6088 139.338 46.7098C139.141 46.7643 138.956 46.8571 138.783 46.9668C138.045 47.4363 137.527 48.2372 137.401 49.1029C137.275 49.9686 137.544 50.8839 138.118 51.5441C138.486 51.9669 139.086 52.1482 139.641 52.078C140.197 52.0078 140.707 51.7093 141.105 51.3153ZM59.2666 40.5477C59.2365 40.1205 58.6654 40.0086 58.2373 40.0211C55.9901 40.0872 53.746 40.2556 51.5141 40.5256C51.1474 40.5699 51.1178 41.161 51.412 41.3842C51.7062 41.6075 52.116 41.566 52.4817 41.5139L59.2666 40.5477ZM52.0771 43.4361C52.0964 43.2161 52.3729 43.1365 52.5923 43.1117L65.8282 41.6128C66.0676 41.5857 66.3226 41.5611 66.538 41.6689C66.7534 41.7767 66.8923 42.0717 66.7516 42.2672C66.6479 42.4114 66.4491 42.4407 66.2723 42.4578L52.7344 43.7715C52.4529 43.7988 52.0524 43.7179 52.0771 43.4361ZM81.7537 45.6656C81.0132 45.8283 80.2531 45.5611 79.5429 45.2956C77.2466 44.4374 74.9591 43.5555 72.681 42.65C71.7614 42.2845 70.7522 42.8319 69.9251 43.3752C67.5315 44.9476 65.227 46.6556 63.0262 48.4882C62.4609 48.9589 61.5911 48.6287 61.021 48.1638C60.9005 48.0655 60.7818 47.9606 60.6628 47.8554L60.6627 47.8553C60.2187 47.4629 59.7689 47.0655 59.1946 46.984C58.3117 46.8587 57.535 47.528 56.8952 48.1493L52.7697 52.1559C52.2148 52.6948 51.6308 53.5577 52.1246 54.153C52.4504 54.5457 53.0486 54.5257 53.5555 54.467C56.2022 54.1602 58.8358 53.73 61.4685 53.3L61.4687 53.2999C65.82 52.5892 70.1687 51.8788 74.5698 51.7265C75.545 51.6928 76.5209 51.6866 77.4968 51.6804C78.1079 51.6765 78.719 51.6726 79.3299 51.662C82.0857 51.6139 84.839 51.4282 87.5762 51.1058C87.7086 51.0902 87.8593 51.063 87.928 50.9487C87.9799 50.8624 87.9669 50.7536 87.9523 50.654L86.7928 42.7652C86.7339 42.3643 86.6309 41.901 86.2647 41.7279C85.8946 41.5529 85.4586 41.7785 85.1549 42.0529C84.6794 42.4823 84.3132 43.0525 83.952 43.615C83.3595 44.5379 82.7802 45.4399 81.7537 45.6656ZM62.9219 49.9822C65.3981 47.9462 67.98 46.0388 70.6538 44.2703C71.2029 43.9072 71.8702 43.5354 72.4838 43.7738L78.9674 46.2932C80.0494 46.7137 81.2329 47.1396 82.3438 46.8025C83.6352 46.4106 84.4071 45.1257 85.0574 43.9432C85.1839 43.7132 85.5519 43.7397 85.7341 43.9286C85.9162 44.1176 85.9623 44.3957 85.9998 44.6555L86.4743 47.9454C86.5472 48.4505 86.6189 48.9747 86.4729 49.4637C86.3269 49.9528 85.898 50.397 85.3878 50.3871C77.042 50.226 68.6801 50.9142 60.473 52.4376C60.2188 52.4848 59.9645 52.5328 59.71 52.5809C57.7494 52.951 55.7816 53.3225 53.7891 53.3292C54.7512 51.9664 55.9704 50.8089 57.181 49.6612C57.8458 49.0311 58.6769 48.3514 59.5693 48.5575C60.0512 48.6688 60.4208 49.0151 60.7886 49.3596L60.7887 49.3597C60.9066 49.4701 61.0243 49.5804 61.1454 49.6827C61.6445 50.104 62.4174 50.397 62.9219 49.9822ZM169.996 72.931C169.774 73.0135 169.527 72.9571 169.302 72.8863C167.776 72.4066 166.536 71.3336 165.318 70.2791C165.153 70.1363 164.989 69.9939 164.824 69.8533C162.806 68.1317 160.615 66.6119 158.296 65.3239C158.06 65.1928 157.813 65.0549 157.668 64.8269C157.524 64.599 157.528 64.252 157.751 64.0998C158.791 63.3898 159.465 62.1713 159.515 60.9131C159.528 60.5778 159.907 60.3542 160.241 60.3811C160.576 60.4079 160.868 60.6089 161.141 60.8032L171.738 68.3256C171.945 68.4721 172.167 68.6418 172.217 68.8897C172.259 69.092 172.174 69.2966 172.089 69.4847C171.632 70.4932 171.106 71.4706 170.517 72.4079C170.383 72.6202 170.231 72.8435 169.996 72.931ZM159.388 64.0073C159.264 64.2271 159.156 64.5448 159.358 64.6968L168.005 71.208C168.479 71.5646 169.215 71.8988 169.588 71.4379C170.016 70.9087 170.416 70.3567 170.785 69.7849C170.887 69.6285 170.99 69.4498 170.953 69.2671C170.92 69.1003 170.78 68.9793 170.648 68.8722C167.474 66.2989 164.114 63.9557 160.602 61.8672L159.388 64.0073ZM155.086 67.9892C155.226 67.7497 155.395 67.4876 155.666 67.4288C155.873 67.3838 156.084 67.4726 156.275 67.5653C157.316 68.071 158.27 68.7564 159.081 69.582C159.277 69.7807 159.301 70.1005 159.214 70.3651C159.127 70.6298 158.948 70.8525 158.772 71.0687C158.49 71.4163 158.19 71.7778 157.773 71.9427C157.324 72.1208 156.802 72.0349 156.376 71.8058C155.951 71.5768 155.609 71.2184 155.308 70.8403C154.916 70.3472 154.564 69.7558 154.625 69.1284C154.665 68.7173 154.878 68.346 155.086 67.9892ZM156.907 70.7503C157.562 71.0049 157.981 70.8031 157.998 70.3736C158.009 70.1026 157.772 69.8939 157.557 69.7285L156.907 69.2282C156.692 69.0629 156.455 68.8897 156.183 68.8914C155.912 68.8931 155.636 69.1728 155.747 69.4203C155.73 69.5398 156.252 70.4957 156.907 70.7503ZM154.319 76.0367C154.479 76.1242 154.648 76.2098 154.83 76.2136C155.012 76.2174 155.209 76.1143 155.254 75.9378C155.359 75.5236 155.633 75.18 155.901 74.8439C155.931 74.8071 155.96 74.7705 155.989 74.7339C156.283 74.3619 156.566 73.9406 156.574 73.4666C156.582 72.9926 156.19 72.4874 155.72 72.5521C155.35 72.6031 155.006 72.3606 154.737 72.1011C154.694 72.0598 154.652 72.0173 154.609 71.9748C154.384 71.7505 154.156 71.5225 153.857 71.4252C153.502 71.3095 153.018 71.4936 152.99 71.866C152.933 72.6161 152.31 73.1809 151.732 73.662C151.559 73.806 151.715 74.0823 151.877 74.2388C152.606 74.9434 153.43 75.5499 154.319 76.0367ZM154.437 74.6072L153.298 73.8367C153.008 73.6408 153.032 73.1609 153.29 72.9251C153.548 72.6893 153.949 72.6713 154.278 72.7893C154.607 72.9074 154.881 73.1389 155.147 73.3659C155.323 73.5161 155.348 73.7896 155.267 74.0066C155.187 74.2235 155.023 74.3974 154.863 74.5648C154.808 74.6221 154.747 74.6828 154.668 74.693C154.585 74.7037 154.507 74.6544 154.437 74.6072ZM163.472 74.6583L164.029 73.475C164.199 73.1127 164.364 72.6643 164.134 72.3366C164.054 72.2229 163.936 72.1426 163.821 72.065L161.795 70.6995C161.576 70.5522 161.339 70.3992 161.076 70.4034C160.764 70.4083 160.502 70.6312 160.28 70.851C159.948 71.1802 159.638 71.5313 159.352 71.9011C159.134 72.1826 158.955 72.6458 159.252 72.8411L162.353 74.8754C162.598 75.0359 162.908 75.2009 163.165 75.0612C163.316 74.9791 163.398 74.8137 163.472 74.6583ZM162.782 73.8205C162.651 73.8504 162.516 73.8173 162.388 73.7788C161.605 73.5429 160.888 73.0912 160.338 72.4866C160.155 72.2855 160.258 71.9304 160.491 71.7895C160.724 71.6485 161.026 71.681 161.277 71.7862C161.439 71.8542 161.587 71.9489 161.735 72.0437L161.735 72.0438C161.816 72.0958 161.898 72.1478 161.981 72.1954C162.071 72.2467 162.165 72.2937 162.259 72.3408C162.526 72.4743 162.792 72.608 162.974 72.8391C163.22 73.1516 163.169 73.7314 162.782 73.8205ZM163.825 75.1426C164.183 75.0576 164.292 74.6933 164.405 74.3146C164.499 74.0016 164.596 73.6789 164.838 73.4958C165.255 73.1807 165.845 73.4441 166.295 73.7113L167.723 74.561C167.95 74.6964 168.183 74.8365 168.347 75.045C168.51 75.2536 168.59 75.549 168.476 75.7879C168.4 75.9475 168.256 76.0532 168.11 76.1598C167.991 76.2471 167.872 76.335 167.788 76.4534C167.681 76.6056 167.641 76.7963 167.601 76.9847C167.552 77.2212 167.503 77.4541 167.323 77.6027C166.994 77.8736 166.505 77.6566 166.141 77.4344L164.129 76.2048C163.926 76.0807 163.712 75.9446 163.612 75.7286C163.513 75.5126 163.594 75.1976 163.825 75.1426ZM166.466 76.3636C166.754 76.2652 166.986 76.0515 167.208 75.8435C167.369 75.6928 167.154 75.4446 166.961 75.3363L165.729 74.6422C165.6 74.5698 165.421 74.5037 165.321 74.6125C165 74.9629 164.954 75.5348 165.214 75.9326C165.474 76.3305 166.016 76.5172 166.466 76.3636ZM152.321 76.3206C152.045 76.2427 151.764 76.1635 151.538 76.0098C151.188 75.7711 150.701 75.8289 150.333 76.0399C149.966 76.2509 149.692 76.5891 149.427 76.9196C149.28 77.103 149.129 77.2943 149.073 77.5226C149.016 77.7509 149.083 78.0276 149.289 78.142L151.439 79.3403C151.601 79.431 151.783 79.5248 151.965 79.4845C152.146 79.4444 152.271 79.2834 152.38 79.1332L152.934 78.3722C153.241 77.9485 153.563 77.4085 153.338 76.9356C153.158 76.5566 152.745 76.4403 152.321 76.3206ZM151.638 78.2925C151.525 78.3222 151.41 78.268 151.306 78.2153L149.841 77.4699C150.123 77.0713 150.659 76.9184 151.144 76.9667C151.63 77.015 152.081 77.2308 152.52 77.4434L151.847 78.1424C151.787 78.205 151.722 78.2702 151.638 78.2925ZM141.493 48.4866C141.72 48.8324 141.649 49.2944 141.499 49.6796C141.3 50.1872 140.965 50.6575 140.492 50.9276C140.018 51.1976 139.397 51.2371 138.936 50.9468C138.474 50.6566 138.243 50.0112 138.49 49.5255C138.547 49.4132 138.625 49.3137 138.703 49.2141C138.778 49.1189 138.852 49.0236 138.909 48.917C138.946 48.8469 138.975 48.7725 139.004 48.6982C139.045 48.591 139.087 48.4841 139.153 48.3905C139.388 48.0581 139.85 47.9928 140.257 47.9985C140.719 48.005 141.24 48.1005 141.493 48.4866ZM140.461 48.7061C139.83 48.6981 139.237 49.2277 139.175 49.8562C139.149 50.113 139.258 50.4323 139.514 50.4677C139.705 50.4942 139.873 50.3462 140.002 50.2019C140.275 49.8966 140.509 49.557 140.697 49.1938C140.76 49.0719 140.816 48.9155 140.733 48.8062C140.672 48.7265 140.561 48.7073 140.461 48.7061ZM155.565 32.2353C155.516 31.657 155.129 31.0882 154.567 30.9434C153.854 30.7594 153.162 31.2619 152.595 31.7334C152.428 31.8729 152.252 32.0229 152.181 32.2291C152.061 32.5789 152.278 32.9476 152.491 33.2498C152.736 33.5959 152.997 33.9438 153.353 34.1726C153.71 34.4014 154.186 34.4902 154.56 34.2914C154.751 34.1901 154.899 34.0246 155.028 33.8513C155.374 33.3857 155.614 32.8136 155.565 32.2353ZM153.99 33.7175C153.748 33.7538 153.497 33.6561 153.319 33.4884C153.052 33.2371 152.947 32.8333 153.04 32.4788C153.138 32.1057 153.451 31.7974 153.826 31.7054C154.201 31.6134 154.621 31.7413 154.881 32.0266C154.874 32.0834 154.867 32.1404 154.861 32.1975L154.855 32.2608C154.827 32.5267 154.8 32.7931 154.708 33.0429C154.588 33.3662 154.331 33.6664 153.99 33.7175ZM134.773 123.921C136.09 119.265 138.574 115.039 141.034 110.872C141.449 110.168 141.965 109.392 142.772 109.258C143.09 109.206 143.257 108.86 143.366 108.556C144.699 104.815 144.828 100.654 143.728 96.8376C143.414 95.7482 143.8 94.5933 144.183 93.526L147.145 85.2632C146.837 84.7304 146.254 84.4964 145.664 84.2592C145.171 84.0608 144.672 83.8603 144.324 83.481C143.34 82.4093 144.082 80.7055 144.852 79.4719L158.353 57.8506C158.904 56.9676 160.114 56.6908 161.128 56.9261C162.142 57.1614 163.009 57.7996 163.843 58.4226L173.689 65.777C175.451 67.0928 177.395 68.7735 177.294 70.9698C177.238 72.1852 176.542 73.2655 175.869 74.2793L168.066 86.0382C167.057 87.5587 166.934 89.4073 166.811 91.2643C166.756 92.1042 166.7 92.9458 166.562 93.7595C165.889 97.7297 163.245 101.018 160.712 104.168L160.41 104.544C157.788 107.809 155.165 111.455 155.017 115.64C154.842 120.628 152.472 125.5 148.657 128.717L151.977 120.662C152.767 118.746 153.498 116.363 152.176 114.767C151.578 114.045 150.675 113.663 149.807 113.307L144.651 111.192C144.295 111.046 143.929 110.898 143.544 110.895C142.346 110.888 141.634 112.187 141.148 113.282C139.468 117.071 137.321 120.652 134.773 123.921ZM151.724 112.982C152.609 113.309 153.853 113.508 154.272 112.663C156.3 108.576 158.384 104.409 161.611 101.184C163.472 99.3248 164.612 96.8443 165.258 94.2946C165.903 91.745 166.085 89.1044 166.266 86.4806C165.482 86.7657 165.414 87.8227 165.417 88.6563C165.425 90.4939 165.104 92.3323 164.473 94.0585C164.342 94.4198 164.165 94.8102 163.811 94.9626C163.458 95.115 162.938 94.8089 163.057 94.4431C163.968 91.6352 164.307 88.6433 164.049 85.7027C163.968 84.791 163.798 83.8157 163.15 83.1695C163.221 84.6091 163.291 86.0551 163.145 87.489C162.893 89.9699 162.003 92.3352 161.122 94.6677C161.007 94.9706 160.869 95.3008 160.578 95.4431C160.287 95.5854 159.836 95.3598 159.912 95.0451L161.232 89.5873C161.958 86.5865 162.672 83.3584 161.548 80.4827C160.982 80.4448 160.849 81.2541 160.899 81.8191C161.245 85.6891 160.176 89.5302 159.116 93.2685C158.993 93.7049 158.555 94.2507 158.215 93.9505C158.068 93.821 158.062 93.598 158.073 93.4027C158.14 92.3033 158.442 91.2391 158.743 90.176C158.836 89.846 158.929 89.5162 159.016 89.1855C159.812 86.1368 160.015 82.9344 159.61 79.8096C158.913 80.7035 158.617 81.8373 158.338 82.9362L156.68 89.4592C155.931 92.4079 154.974 95.6496 152.377 97.2337C152.17 97.3599 151.93 97.4771 151.694 97.4212C151.401 97.3518 151.235 97.049 151.113 96.7738C149.455 93.0396 149.248 88.6833 150.544 84.8087C150.623 84.5736 150.383 84.3279 150.136 84.3084C149.889 84.2889 149.658 84.4236 149.455 84.5665C147.328 86.0672 146.513 88.7858 145.837 91.2993L144.937 94.6414C144.806 95.1296 144.674 95.6221 144.646 96.127C144.605 96.8941 144.805 97.6448 145.004 98.3915L145.005 98.3937C145.051 98.566 145.097 98.7381 145.14 98.9101C146.005 102.382 145.614 106.154 144.055 109.375C143.825 109.849 144.432 110.282 144.927 110.465L151.724 112.982ZM155.082 81.0854C154.728 80.8411 154.348 80.5622 154.238 80.1458C154.07 79.5072 154.678 78.8657 155.333 78.7798C155.988 78.6938 156.628 79.0099 157.171 79.3863C157.935 79.9164 158.903 79.108 159.475 78.3747C158.703 77.9128 157.966 77.196 157.936 76.2969C157.906 75.3978 158.999 74.5414 159.726 75.0706C160.008 75.2759 160.35 75.4016 160.688 75.5258C161.194 75.712 161.691 75.895 161.969 76.3381C162.284 76.8421 162.172 77.5235 161.851 78.0239C161.529 78.5243 161.035 78.8835 160.552 79.2305C161.245 79.2992 161.92 79.5463 162.493 79.9416L163.118 78.1202C163.167 77.9789 163.22 77.8312 163.331 77.7314C163.545 77.5392 163.878 77.5986 164.153 77.6857C164.873 77.9141 165.578 78.2707 166.053 78.8577C166.528 79.4447 166.726 80.2973 166.395 80.9756C166.063 81.6539 165.126 82.0155 164.491 81.6066C164.359 81.5217 164.227 81.4084 164.095 81.295L164.095 81.2949C163.741 80.9917 163.387 80.6886 163.045 80.9312C164.088 81.7434 164.805 82.9635 165.006 84.27C168.289 79.2687 171.537 74.2442 174.75 69.1971C175.056 68.7154 175.304 67.956 174.804 67.6789C172.671 66.4954 170.785 64.9103 168.904 63.329L168.904 63.3289C166.529 61.3329 164.162 59.3428 161.312 58.1742C161.132 58.1001 160.934 58.0283 160.745 58.0781C160.547 58.1304 160.407 58.3027 160.283 58.4653C154.977 65.3908 150.215 72.7329 146.055 80.4019C145.475 81.4718 146.251 82.7471 146.994 83.7112C147.365 84.1928 148.082 84.7016 148.487 84.2479C148.997 83.676 149.834 83.349 150.557 83.6044C151.279 83.8598 151.729 84.7996 151.336 85.4576C151.052 85.9336 151.608 86.4626 152.094 86.7289C153.066 87.2611 154.062 87.7475 155.079 88.1859C155.221 88.2469 155.385 88.3067 155.523 88.2377C155.654 88.1721 155.707 88.016 155.748 87.8751L156.875 83.9981C157.06 83.3604 157.184 82.533 156.637 82.1563L155.082 81.0854ZM175.237 70.2169C175.088 70.1655 174.951 70.3153 174.863 70.4468L166.426 83.0759C166.199 83.4156 165.967 83.769 165.901 84.1722C165.835 84.5753 165.983 85.0441 166.35 85.2236C166.957 85.5208 167.593 84.8962 167.983 84.3436L175.822 73.2337C176.404 72.4088 175.911 71.281 175.413 70.4029C175.37 70.327 175.32 70.2452 175.237 70.2169ZM151.489 87.0812C151.341 86.9731 151.119 87.0376 150.995 87.1728C150.87 87.3081 150.819 87.4933 150.773 87.671C150.657 88.1083 150.541 88.5499 150.524 89.0018C150.507 89.4538 150.589 89.9029 150.671 90.3477L151.479 94.7394C151.513 94.9235 151.552 95.1192 151.683 95.2533C151.814 95.3875 152.068 95.4166 152.174 95.2621C153.37 93.5132 154.582 91.7302 155.208 89.7061C155.285 89.4544 155.308 89.1006 155.061 89.0078C153.791 88.53 152.586 87.88 151.489 87.0812ZM160.82 76.2454C160.415 75.8597 159.88 75.6133 159.323 75.5566C158.816 75.5048 158.523 76.2173 158.755 76.6715C158.987 77.1258 159.498 77.3508 159.971 77.5405C160.305 77.6744 160.71 77.8006 161.002 77.5892C161.42 77.2853 161.194 76.6021 160.82 76.2454ZM157.485 81.3345C157.65 81.2171 157.672 80.9769 157.626 80.7797C157.451 80.0363 156.636 79.6565 155.905 79.4388C155.621 79.3546 155.269 79.2959 155.07 79.5136C154.903 79.6954 154.939 79.9965 155.082 80.1969C155.226 80.3973 155.451 80.5209 155.668 80.6378L156.798 81.2466C157.013 81.3623 157.286 81.476 157.485 81.3345ZM163.921 78.6555C163.681 78.9759 163.706 79.4418 163.905 79.7883C164.105 80.1349 164.451 80.3755 164.816 80.5394C164.941 80.5956 165.078 80.645 165.212 80.6182C165.328 80.5952 165.427 80.5171 165.498 80.4228C165.759 80.0738 165.632 79.5483 165.333 79.2314C165.034 78.9144 164.608 78.7557 164.199 78.6071C164.128 78.5815 164.046 78.5567 163.981 78.5955C163.957 78.6102 163.938 78.6326 163.921 78.6555ZM50.5602 107.701C50.7167 106.545 50.936 105.272 51.8447 104.539C52.5693 103.955 53.564 103.862 54.4945 103.844C57.5427 103.786 60.6007 104.281 63.4748 105.298C64.384 105.62 65.3356 106.044 65.8327 106.87C66.3708 107.765 66.2397 108.893 66.0909 109.927L63.7825 125.963C65.3742 121.319 66.5169 116.521 67.1896 111.658C67.5034 109.389 67.6128 106.786 66.0294 105.131C63.5576 102.548 63.625 98.8683 63.6936 95.127C63.7527 91.898 63.8127 88.623 62.242 85.9671C61.7295 85.1004 62.8721 84.2058 63.8224 83.8731C68.011 82.4065 72.4759 81.7336 76.9107 81.9006C77.7237 88.3232 77.9437 94.8207 77.5669 101.284C77.4823 102.733 79.5379 103.107 80.981 102.947L131.043 97.3958C131.293 97.3681 131.564 97.3307 131.742 97.1521C131.949 96.9435 131.959 96.6154 131.956 96.3213C131.838 84.5919 131.501 72.8647 130.944 61.1479C130.922 60.6906 130.864 60.1655 130.486 59.9081C130.202 59.7151 129.828 59.7406 129.487 59.7737L93.7544 63.2376C96.1018 52.1665 98.4626 40.8875 97.3919 29.621C89.5807 34.8291 79.5013 34.79 70.1293 34.2385C69.7398 34.2156 69.3494 34.1922 68.9583 34.1689C59.9391 33.6299 50.5337 33.0678 42.4255 36.9692C46.6709 48.2257 50.9651 60.5124 47.4361 72.0136C47.1238 73.0311 46.7524 74.0306 46.381 75.0297C45.8085 76.57 45.2364 78.1093 44.8826 79.7117C44.2994 82.3534 44.3871 85.3111 45.9504 87.519C48.2143 90.7161 50.0133 94.3513 50.4236 98.2473C50.813 101.944 49.9429 105.611 49.0739 109.273C48.1658 113.1 47.2589 116.922 47.7907 120.77C47.8807 121.421 48.0432 122.121 48.5528 122.536L50.5602 107.701ZM54.1089 61.2431C55.0556 61.2766 55.4319 62.4651 55.553 63.4047L56.5115 70.8444C54.64 69.8741 52.0072 71.521 52.0609 73.6284C50.4839 70.5845 50.2443 67.0961 50.0072 63.6429C49.9556 62.8917 49.9041 62.1422 49.839 61.3992C49.1427 53.4546 46.7484 45.7702 44.3688 38.1584C44.0295 37.073 45.4951 36.3691 46.6203 36.2042C54.0039 35.1217 61.4768 35.2711 68.9531 35.4207C72.3419 35.4884 75.7315 35.5562 79.1137 35.5093C85.1235 35.4259 91.4826 34.8571 96.3576 31.3415C97.4534 38.6461 95.9641 46.0159 94.4936 53.2929C94.2947 54.2772 94.0961 55.2598 93.9043 56.2404C92.2948 64.4699 91.1992 73.242 94.2788 81.0414C94.4086 81.3701 93.9661 81.6179 93.6202 81.69C91.0874 82.2183 88.4686 82.3321 85.8995 82.0255C84.7974 81.894 83.707 81.6861 82.6164 81.4782C81.795 81.3216 80.9736 81.165 80.147 81.041C73.9241 80.1073 67.4287 81.0764 61.7494 83.786C61.5218 83.8946 61.251 83.8438 61.0127 83.7613C59.8625 83.3631 59.042 82.3005 58.6326 81.1542C58.2232 80.008 58.1646 78.7708 58.1099 77.5548L57.8809 72.4551C57.8727 72.2719 57.9206 72.0231 58.104 72.0173C68.0527 71.7065 77.9901 71.0358 87.8904 70.007C87.4717 67.6646 87.4302 65.2552 87.7679 62.8998C87.981 61.4129 86.5827 60.0571 85.0938 59.8581C83.6049 59.6591 82.1324 60.3336 80.8961 61.1869C80.4336 61.5061 79.9895 61.8528 79.5457 62.1993C78.8031 62.7791 78.0613 63.3583 77.2352 63.8072C76.6945 64.1009 76.0443 64.3379 75.4765 64.1006C74.7817 63.8103 74.5487 62.9837 74.3408 62.2458C74.3277 62.1994 74.3147 62.1534 74.3018 62.1078C74.0308 61.1575 73.5834 60.2118 72.7964 59.6141C72.0094 59.0165 70.822 58.8676 70.0452 59.4785C69.3811 60.0007 69.1711 60.9051 69.0598 61.7426C69.0499 61.8171 69.0404 61.892 69.0307 61.9672C68.9321 62.7372 68.8301 63.533 68.3706 64.1505C67.8661 64.8283 66.7406 65.1188 66.1873 64.4803C65.0933 63.2174 63.1734 62.9526 61.5624 63.3958C59.9513 63.839 58.5728 64.8626 57.2362 65.8652C56.4299 64.6034 56.3632 62.9042 57.0681 61.583L57.0799 61.561C57.2124 61.313 57.3647 61.0282 57.2475 60.7755C57.1749 60.6191 57.0149 60.5231 56.8564 60.4551C55.9084 60.0487 54.6973 60.396 54.1089 61.2431ZM82.5882 82.569C83.1183 82.6747 83.7698 82.9111 83.8025 83.4505C84.1151 88.5955 88.2039 93.2189 93.231 94.3577C98.2581 95.4965 103.829 93.1937 106.761 88.9538C109.692 84.7139 109.921 78.824 107.518 74.2642C104.94 69.3741 98.676 66.7772 93.3945 68.4092C93.1494 67.3286 93.177 66.1873 93.474 65.1198C93.5292 64.9215 93.6011 64.7143 93.7611 64.5849C93.9174 64.4585 94.1286 64.4297 94.3282 64.4057L109.206 62.6137C110.514 62.4562 111.825 62.2984 113.143 62.2876C118.808 62.2409 124.469 61.676 130.031 60.6022C130.896 72.2087 131.302 83.8493 131.25 95.4878C131.248 96.0399 131.08 96.7736 130.528 96.7897C121.164 97.0625 111.875 98.2942 102.582 99.5263C96.338 100.354 90.0927 101.182 83.8223 101.72C82.4246 101.84 81.0174 101.945 79.621 101.812C79.3679 101.788 79.0824 101.736 78.9449 101.522C78.8619 101.393 78.8525 101.232 78.8457 101.079L78.0108 82.4631C78 82.2225 78.0145 81.9326 78.2228 81.8118C78.3609 81.7317 78.5336 81.7605 78.6901 81.7917L82.5882 82.569ZM56.9745 78.259C56.8265 79.2259 56.6601 80.3136 57.2935 81.0452C59.6561 83.7738 62.1106 86.689 62.7386 90.2433C63.0319 91.903 62.9059 93.6112 62.7804 95.3125C62.6224 97.4554 62.4651 99.5874 63.1476 101.598C63.1654 101.65 63.1838 101.703 63.2022 101.755C63.3276 102.114 63.4554 102.479 63.4148 102.853C63.3682 103.282 62.9956 103.714 62.5702 103.641L57.631 102.789C55.9953 102.507 54.2672 102.232 52.7135 102.816C52.4131 102.929 52.0673 102.731 51.9064 102.453C51.7454 102.176 51.7242 101.842 51.7103 101.521C51.6934 101.134 51.6808 100.744 51.6681 100.353C51.5883 97.8944 51.507 95.3895 50.3689 93.235L46.7376 86.3611C46.2016 85.3464 45.653 84.2863 45.616 83.1393C45.5913 82.3733 45.7981 81.6209 46.0031 80.8824L47.8146 74.3571C48.196 72.9833 48.5995 71.5658 49.5027 70.4627C51.6968 74.1852 51.9133 79.001 50.0621 82.9054C49.8908 83.2666 50.414 83.6385 50.7869 83.4945C51.1598 83.3506 51.3492 82.942 51.4806 82.5645C52.0072 81.0525 52.1919 79.4584 52.3768 77.8621C52.5264 76.5704 52.6762 75.2773 53.0074 74.025C53.2103 73.2577 53.5031 72.4745 54.0955 71.9465C54.6879 71.4184 55.6542 71.2376 56.275 71.732C56.7501 72.1104 56.9045 72.7569 56.9949 73.3575C57.2333 74.942 57.2322 76.5624 56.9917 78.1466C56.986 78.1839 56.9803 78.2214 56.9745 78.259ZM65.5001 65.3769C66.2281 65.9341 66.9412 66.4798 67.8147 66.3788C68.9251 66.2503 69.617 65.1073 69.9395 64.037C70.01 63.8028 70.0728 63.5631 70.1358 63.3229C70.3604 62.4654 70.5867 61.6012 71.1751 60.9561C71.346 60.7686 71.5922 60.5941 71.8351 60.6676C72.0318 60.7271 72.1465 60.9264 72.2378 61.1105C72.3673 61.3714 72.4898 61.6367 72.6123 61.9021C72.9579 62.6506 73.3037 63.3994 73.8055 64.0498C74.4852 64.9308 75.5429 65.6238 76.649 65.5025C77.6382 65.3941 78.411 64.6938 79.1643 64.011C79.3187 63.8711 79.4723 63.7319 79.6268 63.5986C81.4411 62.0341 83.8041 61.1187 86.1989 61.0528C85.8759 61.8601 86.0913 62.7406 86.3027 63.6048C86.3536 63.8128 86.4042 64.0199 86.4471 64.2248C86.7851 65.8411 86.6142 67.56 85.9645 69.0781L69.969 70.3095C66.2349 70.597 62.4914 70.8847 58.7485 70.753C58.512 70.7447 58.2696 70.7334 58.0521 70.6403C57.6413 70.4645 57.3972 70.0261 57.3088 69.5881C57.1105 68.6059 57.5634 67.5831 58.2492 66.8526C58.935 66.1222 59.8307 65.6303 60.7103 65.1506C61.6257 64.6515 62.6421 64.1356 63.6628 64.3487C64.3419 64.4905 64.9257 64.9373 65.5001 65.3769ZM95.78 88.6774C93.3568 88.6275 91.2572 86.6505 90.5378 84.336C90.3909 83.8634 90.6964 83.345 91.1178 83.0856C91.5391 82.8261 92.049 82.7648 92.5408 82.7096L96.0913 82.3107C95.0116 80.212 94.2425 77.9537 93.817 75.6322C93.7784 75.4216 93.7432 75.2004 93.8098 74.9969C93.9267 74.6397 94.3117 74.4516 94.668 74.3319C97.5528 73.3624 101.017 74.5394 102.713 77.0661C104.409 79.5928 104.187 83.245 102.196 85.5467C101.334 86.5432 100.204 87.2787 99.0145 87.8446C97.9999 88.3273 96.9034 88.7005 95.78 88.6774ZM107.287 76.2029C107.719 77.6267 107.843 79.1244 107.902 80.6109C106.934 80.4642 105.956 80.381 104.977 80.3619C104.786 77.8617 103.121 75.6026 100.934 74.3772C98.7459 73.1518 96.1053 72.887 93.6331 73.3065C93.6122 72.9541 93.5479 72.5863 93.4837 72.2186C93.3141 71.248 93.1445 70.2776 93.772 69.5886C94.1511 69.1725 94.7285 69.0061 95.2818 68.903C97.8023 68.4335 100.49 68.9255 102.68 70.2574C104.871 71.5894 106.545 73.7491 107.287 76.2029ZM89.5166 84.0833C89.5126 84.1295 89.5086 84.1749 89.5066 84.2182C89.4902 84.5638 89.6512 84.8806 89.8106 85.1943C89.8533 85.2784 89.8959 85.3622 89.935 85.4464C90.1197 85.8442 90.2092 86.3684 89.9004 86.68C89.1535 87.4339 88.4934 88.2739 87.9374 89.1779C87.7999 89.4015 87.4616 89.4198 87.2355 89.2865C87.0093 89.1531 86.869 88.9154 86.7384 88.6877C85.912 87.2467 85.0649 85.7394 84.9618 84.0815C84.949 83.8754 84.9717 83.6258 85.1545 83.5297C85.2351 83.4874 85.3301 83.4861 85.4211 83.4858L89.1173 83.4746C89.2056 83.4743 89.2985 83.4752 89.3753 83.5189C89.5567 83.622 89.5359 83.8612 89.5166 84.0833Z" fill="#00160A"/>
</svg>
