<svg width="129" height="129" viewBox="0 0 129 129" fill="none" xmlns="http://www.w3.org/2000/svg">
<path d="M124.394 30.0012C124.751 30.62 125.099 31.2448 125.437 31.8755C124.822 31.4735 124.412 30.7859 124.394 30.0012Z" fill="url(#paint0_linear)"/>
<path d="M111.78 14.0976C112.854 15.105 113.895 16.1462 114.902 17.2197C114.513 17.9396 113.751 18.4286 112.875 18.4286C111.603 18.4286 110.571 17.3972 110.571 16.125C110.571 15.249 111.06 14.4872 111.78 14.0976Z" fill="url(#paint1_linear)"/>
<path d="M97.1245 3.56309C97.7552 3.90145 98.38 4.24932 98.9988 4.6065C98.2141 4.58819 97.5265 4.17752 97.1245 3.56309Z" fill="url(#paint2_linear)"/>
<path d="M30.0012 4.6065C30.62 4.24932 31.2448 3.90145 31.8755 3.56309C31.4735 4.17752 30.7859 4.58819 30.0012 4.6065Z" fill="url(#paint3_linear)"/>
<path d="M14.0976 17.2197C15.105 16.1462 16.1462 15.105 17.2197 14.0976C17.9396 14.4872 18.4286 15.249 18.4286 16.125C18.4286 17.3972 17.3972 18.4286 16.125 18.4286C15.249 18.4286 14.4872 17.9396 14.0976 17.2197Z" fill="url(#paint4_linear)"/>
<path d="M3.56309 31.8755C3.90145 31.2448 4.24932 30.62 4.6065 30.0012C4.58819 30.7859 4.17752 31.4735 3.56309 31.8755Z" fill="url(#paint5_linear)"/>
<path d="M125.437 97.1245C125.099 97.7552 124.751 98.38 124.394 98.9988C124.412 98.2141 124.822 97.5265 125.437 97.1245Z" fill="url(#paint6_linear)"/>
<path d="M114.902 111.78C114.513 111.06 113.751 110.571 112.875 110.571C111.603 110.571 110.571 111.603 110.571 112.875C110.571 113.751 111.06 114.513 111.78 114.902C112.854 113.895 113.895 112.854 114.902 111.78Z" fill="url(#paint7_linear)"/>
<path d="M98.9988 124.394C98.2141 124.412 97.5265 124.822 97.1245 125.437C97.7552 125.099 98.38 124.751 98.9988 124.394Z" fill="url(#paint8_linear)"/>
<path d="M31.8755 125.437C31.4735 124.822 30.7859 124.412 30.0012 124.394C30.62 124.751 31.2448 125.099 31.8755 125.437Z" fill="url(#paint9_linear)"/>
<path d="M17.2197 114.902C17.9396 114.513 18.4286 113.751 18.4286 112.875C18.4286 111.603 17.3972 110.571 16.125 110.571C15.249 110.571 14.4872 111.06 14.0976 111.78C15.105 112.854 16.1462 113.895 17.2197 114.902Z" fill="url(#paint10_linear)"/>
<path d="M4.6065 98.9988C4.58819 98.2141 4.17752 97.5265 3.56309 97.1245C3.90145 97.7552 4.24932 98.38 4.6065 98.9988Z" fill="url(#paint11_linear)"/>
<path d="M46.0714 2.30357C46.0714 3.5758 45.0401 4.60714 43.7679 4.60714C42.4956 4.60714 41.4643 3.5758 41.4643 2.30357C41.4643 1.03134 42.4956 0 43.7679 0C45.0401 0 46.0714 1.03134 46.0714 2.30357Z" fill="url(#paint12_linear)"/>
<path d="M59.8929 2.30357C59.8929 3.5758 58.8615 4.60714 57.5893 4.60714C56.3171 4.60714 55.2857 3.5758 55.2857 2.30357C55.2857 1.03134 56.3171 0 57.5893 0C58.8615 0 59.8929 1.03134 59.8929 2.30357Z" fill="url(#paint13_linear)"/>
<path d="M73.7143 2.30357C73.7143 3.5758 72.6829 4.60714 71.4107 4.60714C70.1385 4.60714 69.1071 3.5758 69.1071 2.30357C69.1071 1.03134 70.1385 0 71.4107 0C72.6829 0 73.7143 1.03134 73.7143 2.30357Z" fill="url(#paint14_linear)"/>
<path d="M87.5357 2.30357C87.5357 3.5758 86.5044 4.60714 85.2321 4.60714C83.9599 4.60714 82.9286 3.5758 82.9286 2.30357C82.9286 1.03134 83.9599 0 85.2321 0C86.5044 0 87.5357 1.03134 87.5357 2.30357Z" fill="url(#paint15_linear)"/>
<path d="M32.25 16.125C32.25 17.3972 31.2187 18.4286 29.9464 18.4286C28.6742 18.4286 27.6429 17.3972 27.6429 16.125C27.6429 14.8528 28.6742 13.8214 29.9464 13.8214C31.2187 13.8214 32.25 14.8528 32.25 16.125Z" fill="url(#paint16_linear)"/>
<path d="M46.0714 16.125C46.0714 17.3972 45.0401 18.4286 43.7679 18.4286C42.4956 18.4286 41.4643 17.3972 41.4643 16.125C41.4643 14.8528 42.4956 13.8214 43.7679 13.8214C45.0401 13.8214 46.0714 14.8528 46.0714 16.125Z" fill="url(#paint17_linear)"/>
<path d="M59.8929 16.125C59.8929 17.3972 58.8615 18.4286 57.5893 18.4286C56.3171 18.4286 55.2857 17.3972 55.2857 16.125C55.2857 14.8528 56.3171 13.8214 57.5893 13.8214C58.8615 13.8214 59.8929 14.8528 59.8929 16.125Z" fill="url(#paint18_linear)"/>
<path d="M73.7143 16.125C73.7143 17.3972 72.6829 18.4286 71.4107 18.4286C70.1385 18.4286 69.1071 17.3972 69.1071 16.125C69.1071 14.8528 70.1385 13.8214 71.4107 13.8214C72.6829 13.8214 73.7143 14.8528 73.7143 16.125Z" fill="url(#paint19_linear)"/>
<path d="M87.5357 16.125C87.5357 17.3972 86.5044 18.4286 85.2321 18.4286C83.9599 18.4286 82.9286 17.3972 82.9286 16.125C82.9286 14.8528 83.9599 13.8214 85.2321 13.8214C86.5044 13.8214 87.5357 14.8528 87.5357 16.125Z" fill="url(#paint20_linear)"/>
<path d="M101.357 16.125C101.357 17.3972 100.326 18.4286 99.0536 18.4286C97.7813 18.4286 96.75 17.3972 96.75 16.125C96.75 14.8528 97.7813 13.8214 99.0536 13.8214C100.326 13.8214 101.357 14.8528 101.357 16.125Z" fill="url(#paint21_linear)"/>
<path d="M18.4286 29.9464C18.4286 31.2187 17.3972 32.25 16.125 32.25C14.8528 32.25 13.8214 31.2187 13.8214 29.9464C13.8214 28.6742 14.8528 27.6429 16.125 27.6429C17.3972 27.6429 18.4286 28.6742 18.4286 29.9464Z" fill="url(#paint22_linear)"/>
<path d="M32.25 29.9464C32.25 31.2187 31.2187 32.25 29.9464 32.25C28.6742 32.25 27.6429 31.2187 27.6429 29.9464C27.6429 28.6742 28.6742 27.6429 29.9464 27.6429C31.2187 27.6429 32.25 28.6742 32.25 29.9464Z" fill="url(#paint23_linear)"/>
<path d="M46.0714 29.9464C46.0714 31.2187 45.0401 32.25 43.7679 32.25C42.4956 32.25 41.4643 31.2187 41.4643 29.9464C41.4643 28.6742 42.4956 27.6429 43.7679 27.6429C45.0401 27.6429 46.0714 28.6742 46.0714 29.9464Z" fill="url(#paint24_linear)"/>
<path d="M59.8929 29.9464C59.8929 31.2187 58.8615 32.25 57.5893 32.25C56.3171 32.25 55.2857 31.2187 55.2857 29.9464C55.2857 28.6742 56.3171 27.6429 57.5893 27.6429C58.8615 27.6429 59.8929 28.6742 59.8929 29.9464Z" fill="url(#paint25_linear)"/>
<path d="M73.7143 29.9464C73.7143 31.2187 72.6829 32.25 71.4107 32.25C70.1385 32.25 69.1071 31.2187 69.1071 29.9464C69.1071 28.6742 70.1385 27.6429 71.4107 27.6429C72.6829 27.6429 73.7143 28.6742 73.7143 29.9464Z" fill="url(#paint26_linear)"/>
<path d="M87.5357 29.9464C87.5357 31.2187 86.5044 32.25 85.2321 32.25C83.9599 32.25 82.9286 31.2187 82.9286 29.9464C82.9286 28.6742 83.9599 27.6429 85.2321 27.6429C86.5044 27.6429 87.5357 28.6742 87.5357 29.9464Z" fill="url(#paint27_linear)"/>
<path d="M101.357 29.9464C101.357 31.2187 100.326 32.25 99.0536 32.25C97.7813 32.25 96.75 31.2187 96.75 29.9464C96.75 28.6742 97.7813 27.6429 99.0536 27.6429C100.326 27.6429 101.357 28.6742 101.357 29.9464Z" fill="url(#paint28_linear)"/>
<path d="M115.179 29.9464C115.179 31.2187 114.147 32.25 112.875 32.25C111.603 32.25 110.571 31.2187 110.571 29.9464C110.571 28.6742 111.603 27.6429 112.875 27.6429C114.147 27.6429 115.179 28.6742 115.179 29.9464Z" fill="url(#paint29_linear)"/>
<path d="M4.60714 43.7679C4.60714 45.0401 3.5758 46.0714 2.30357 46.0714C1.03134 46.0714 0 45.0401 0 43.7679C0 42.4956 1.03134 41.4643 2.30357 41.4643C3.5758 41.4643 4.60714 42.4956 4.60714 43.7679Z" fill="url(#paint30_linear)"/>
<path d="M18.4286 43.7679C18.4286 45.0401 17.3972 46.0714 16.125 46.0714C14.8528 46.0714 13.8214 45.0401 13.8214 43.7679C13.8214 42.4956 14.8528 41.4643 16.125 41.4643C17.3972 41.4643 18.4286 42.4956 18.4286 43.7679Z" fill="url(#paint31_linear)"/>
<path d="M32.25 43.7679C32.25 45.0401 31.2187 46.0714 29.9464 46.0714C28.6742 46.0714 27.6429 45.0401 27.6429 43.7679C27.6429 42.4956 28.6742 41.4643 29.9464 41.4643C31.2187 41.4643 32.25 42.4956 32.25 43.7679Z" fill="url(#paint32_linear)"/>
<path d="M46.0714 43.7679C46.0714 45.0401 45.0401 46.0714 43.7679 46.0714C42.4956 46.0714 41.4643 45.0401 41.4643 43.7679C41.4643 42.4956 42.4956 41.4643 43.7679 41.4643C45.0401 41.4643 46.0714 42.4956 46.0714 43.7679Z" fill="url(#paint33_linear)"/>
<path d="M59.8929 43.7679C59.8929 45.0401 58.8615 46.0714 57.5893 46.0714C56.3171 46.0714 55.2857 45.0401 55.2857 43.7679C55.2857 42.4956 56.3171 41.4643 57.5893 41.4643C58.8615 41.4643 59.8929 42.4956 59.8929 43.7679Z" fill="url(#paint34_linear)"/>
<path d="M73.7143 43.7679C73.7143 45.0401 72.6829 46.0714 71.4107 46.0714C70.1385 46.0714 69.1071 45.0401 69.1071 43.7679C69.1071 42.4956 70.1385 41.4643 71.4107 41.4643C72.6829 41.4643 73.7143 42.4956 73.7143 43.7679Z" fill="url(#paint35_linear)"/>
<path d="M87.5357 43.7679C87.5357 45.0401 86.5044 46.0714 85.2321 46.0714C83.9599 46.0714 82.9286 45.0401 82.9286 43.7679C82.9286 42.4956 83.9599 41.4643 85.2321 41.4643C86.5044 41.4643 87.5357 42.4956 87.5357 43.7679Z" fill="url(#paint36_linear)"/>
<path d="M101.357 43.7679C101.357 45.0401 100.326 46.0714 99.0536 46.0714C97.7813 46.0714 96.75 45.0401 96.75 43.7679C96.75 42.4956 97.7813 41.4643 99.0536 41.4643C100.326 41.4643 101.357 42.4956 101.357 43.7679Z" fill="url(#paint37_linear)"/>
<path d="M115.179 43.7679C115.179 45.0401 114.147 46.0714 112.875 46.0714C111.603 46.0714 110.571 45.0401 110.571 43.7679C110.571 42.4956 111.603 41.4643 112.875 41.4643C114.147 41.4643 115.179 42.4956 115.179 43.7679Z" fill="url(#paint38_linear)"/>
<path d="M129 43.7679C129 45.0401 127.969 46.0714 126.696 46.0714C125.424 46.0714 124.393 45.0401 124.393 43.7679C124.393 42.4956 125.424 41.4643 126.696 41.4643C127.969 41.4643 129 42.4956 129 43.7679Z" fill="url(#paint39_linear)"/>
<path d="M4.60714 57.5893C4.60714 58.8615 3.5758 59.8929 2.30357 59.8929C1.03134 59.8929 0 58.8615 0 57.5893C0 56.3171 1.03134 55.2857 2.30357 55.2857C3.5758 55.2857 4.60714 56.3171 4.60714 57.5893Z" fill="url(#paint40_linear)"/>
<path d="M18.4286 57.5893C18.4286 58.8615 17.3972 59.8929 16.125 59.8929C14.8528 59.8929 13.8214 58.8615 13.8214 57.5893C13.8214 56.3171 14.8528 55.2857 16.125 55.2857C17.3972 55.2857 18.4286 56.3171 18.4286 57.5893Z" fill="url(#paint41_linear)"/>
<path d="M32.25 57.5893C32.25 58.8615 31.2187 59.8929 29.9464 59.8929C28.6742 59.8929 27.6429 58.8615 27.6429 57.5893C27.6429 56.3171 28.6742 55.2857 29.9464 55.2857C31.2187 55.2857 32.25 56.3171 32.25 57.5893Z" fill="url(#paint42_linear)"/>
<path d="M46.0714 57.5893C46.0714 58.8615 45.0401 59.8929 43.7679 59.8929C42.4956 59.8929 41.4643 58.8615 41.4643 57.5893C41.4643 56.3171 42.4956 55.2857 43.7679 55.2857C45.0401 55.2857 46.0714 56.3171 46.0714 57.5893Z" fill="url(#paint43_linear)"/>
<path d="M59.8929 57.5893C59.8929 58.8615 58.8615 59.8929 57.5893 59.8929C56.3171 59.8929 55.2857 58.8615 55.2857 57.5893C55.2857 56.3171 56.3171 55.2857 57.5893 55.2857C58.8615 55.2857 59.8929 56.3171 59.8929 57.5893Z" fill="url(#paint44_linear)"/>
<path d="M73.7143 57.5893C73.7143 58.8615 72.6829 59.8929 71.4107 59.8929C70.1385 59.8929 69.1071 58.8615 69.1071 57.5893C69.1071 56.3171 70.1385 55.2857 71.4107 55.2857C72.6829 55.2857 73.7143 56.3171 73.7143 57.5893Z" fill="url(#paint45_linear)"/>
<path d="M87.5357 57.5893C87.5357 58.8615 86.5044 59.8929 85.2321 59.8929C83.9599 59.8929 82.9286 58.8615 82.9286 57.5893C82.9286 56.3171 83.9599 55.2857 85.2321 55.2857C86.5044 55.2857 87.5357 56.3171 87.5357 57.5893Z" fill="url(#paint46_linear)"/>
<path d="M101.357 57.5893C101.357 58.8615 100.326 59.8929 99.0536 59.8929C97.7813 59.8929 96.75 58.8615 96.75 57.5893C96.75 56.3171 97.7813 55.2857 99.0536 55.2857C100.326 55.2857 101.357 56.3171 101.357 57.5893Z" fill="url(#paint47_linear)"/>
<path d="M115.179 57.5893C115.179 58.8615 114.147 59.8929 112.875 59.8929C111.603 59.8929 110.571 58.8615 110.571 57.5893C110.571 56.3171 111.603 55.2857 112.875 55.2857C114.147 55.2857 115.179 56.3171 115.179 57.5893Z" fill="url(#paint48_linear)"/>
<path d="M129 57.5893C129 58.8615 127.969 59.8929 126.696 59.8929C125.424 59.8929 124.393 58.8615 124.393 57.5893C124.393 56.3171 125.424 55.2857 126.696 55.2857C127.969 55.2857 129 56.3171 129 57.5893Z" fill="url(#paint49_linear)"/>
<path d="M4.60714 71.4107C4.60714 72.6829 3.5758 73.7143 2.30357 73.7143C1.03134 73.7143 0 72.6829 0 71.4107C0 70.1385 1.03134 69.1071 2.30357 69.1071C3.5758 69.1071 4.60714 70.1385 4.60714 71.4107Z" fill="url(#paint50_linear)"/>
<path d="M18.4286 71.4107C18.4286 72.6829 17.3972 73.7143 16.125 73.7143C14.8528 73.7143 13.8214 72.6829 13.8214 71.4107C13.8214 70.1385 14.8528 69.1071 16.125 69.1071C17.3972 69.1071 18.4286 70.1385 18.4286 71.4107Z" fill="url(#paint51_linear)"/>
<path d="M32.25 71.4107C32.25 72.6829 31.2187 73.7143 29.9464 73.7143C28.6742 73.7143 27.6429 72.6829 27.6429 71.4107C27.6429 70.1385 28.6742 69.1071 29.9464 69.1071C31.2187 69.1071 32.25 70.1385 32.25 71.4107Z" fill="url(#paint52_linear)"/>
<path d="M46.0714 71.4107C46.0714 72.6829 45.0401 73.7143 43.7679 73.7143C42.4956 73.7143 41.4643 72.6829 41.4643 71.4107C41.4643 70.1385 42.4956 69.1071 43.7679 69.1071C45.0401 69.1071 46.0714 70.1385 46.0714 71.4107Z" fill="url(#paint53_linear)"/>
<path d="M59.8929 71.4107C59.8929 72.6829 58.8615 73.7143 57.5893 73.7143C56.3171 73.7143 55.2857 72.6829 55.2857 71.4107C55.2857 70.1385 56.3171 69.1071 57.5893 69.1071C58.8615 69.1071 59.8929 70.1385 59.8929 71.4107Z" fill="url(#paint54_linear)"/>
<path d="M73.7143 71.4107C73.7143 72.6829 72.6829 73.7143 71.4107 73.7143C70.1385 73.7143 69.1071 72.6829 69.1071 71.4107C69.1071 70.1385 70.1385 69.1071 71.4107 69.1071C72.6829 69.1071 73.7143 70.1385 73.7143 71.4107Z" fill="url(#paint55_linear)"/>
<path d="M87.5357 71.4107C87.5357 72.6829 86.5044 73.7143 85.2321 73.7143C83.9599 73.7143 82.9286 72.6829 82.9286 71.4107C82.9286 70.1385 83.9599 69.1071 85.2321 69.1071C86.5044 69.1071 87.5357 70.1385 87.5357 71.4107Z" fill="url(#paint56_linear)"/>
<path d="M101.357 71.4107C101.357 72.6829 100.326 73.7143 99.0536 73.7143C97.7813 73.7143 96.75 72.6829 96.75 71.4107C96.75 70.1385 97.7813 69.1071 99.0536 69.1071C100.326 69.1071 101.357 70.1385 101.357 71.4107Z" fill="url(#paint57_linear)"/>
<path d="M115.179 71.4107C115.179 72.6829 114.147 73.7143 112.875 73.7143C111.603 73.7143 110.571 72.6829 110.571 71.4107C110.571 70.1385 111.603 69.1071 112.875 69.1071C114.147 69.1071 115.179 70.1385 115.179 71.4107Z" fill="url(#paint58_linear)"/>
<path d="M129 71.4107C129 72.6829 127.969 73.7143 126.696 73.7143C125.424 73.7143 124.393 72.6829 124.393 71.4107C124.393 70.1385 125.424 69.1071 126.696 69.1071C127.969 69.1071 129 70.1385 129 71.4107Z" fill="url(#paint59_linear)"/>
<path d="M4.60714 85.2321C4.60714 86.5044 3.5758 87.5357 2.30357 87.5357C1.03134 87.5357 0 86.5044 0 85.2321C0 83.9599 1.03134 82.9286 2.30357 82.9286C3.5758 82.9286 4.60714 83.9599 4.60714 85.2321Z" fill="url(#paint60_linear)"/>
<path d="M18.4286 85.2321C18.4286 86.5044 17.3972 87.5357 16.125 87.5357C14.8528 87.5357 13.8214 86.5044 13.8214 85.2321C13.8214 83.9599 14.8528 82.9286 16.125 82.9286C17.3972 82.9286 18.4286 83.9599 18.4286 85.2321Z" fill="url(#paint61_linear)"/>
<path d="M32.25 85.2321C32.25 86.5044 31.2187 87.5357 29.9464 87.5357C28.6742 87.5357 27.6429 86.5044 27.6429 85.2321C27.6429 83.9599 28.6742 82.9286 29.9464 82.9286C31.2187 82.9286 32.25 83.9599 32.25 85.2321Z" fill="url(#paint62_linear)"/>
<path d="M46.0714 85.2321C46.0714 86.5044 45.0401 87.5357 43.7679 87.5357C42.4956 87.5357 41.4643 86.5044 41.4643 85.2321C41.4643 83.9599 42.4956 82.9286 43.7679 82.9286C45.0401 82.9286 46.0714 83.9599 46.0714 85.2321Z" fill="url(#paint63_linear)"/>
<path d="M59.8929 85.2321C59.8929 86.5044 58.8615 87.5357 57.5893 87.5357C56.3171 87.5357 55.2857 86.5044 55.2857 85.2321C55.2857 83.9599 56.3171 82.9286 57.5893 82.9286C58.8615 82.9286 59.8929 83.9599 59.8929 85.2321Z" fill="url(#paint64_linear)"/>
<path d="M73.7143 85.2321C73.7143 86.5044 72.6829 87.5357 71.4107 87.5357C70.1385 87.5357 69.1071 86.5044 69.1071 85.2321C69.1071 83.9599 70.1385 82.9286 71.4107 82.9286C72.6829 82.9286 73.7143 83.9599 73.7143 85.2321Z" fill="url(#paint65_linear)"/>
<path d="M87.5357 85.2321C87.5357 86.5044 86.5044 87.5357 85.2321 87.5357C83.9599 87.5357 82.9286 86.5044 82.9286 85.2321C82.9286 83.9599 83.9599 82.9286 85.2321 82.9286C86.5044 82.9286 87.5357 83.9599 87.5357 85.2321Z" fill="url(#paint66_linear)"/>
<path d="M101.357 85.2321C101.357 86.5044 100.326 87.5357 99.0536 87.5357C97.7813 87.5357 96.75 86.5044 96.75 85.2321C96.75 83.9599 97.7813 82.9286 99.0536 82.9286C100.326 82.9286 101.357 83.9599 101.357 85.2321Z" fill="url(#paint67_linear)"/>
<path d="M115.179 85.2321C115.179 86.5044 114.147 87.5357 112.875 87.5357C111.603 87.5357 110.571 86.5044 110.571 85.2321C110.571 83.9599 111.603 82.9286 112.875 82.9286C114.147 82.9286 115.179 83.9599 115.179 85.2321Z" fill="url(#paint68_linear)"/>
<path d="M129 85.2321C129 86.5044 127.969 87.5357 126.696 87.5357C125.424 87.5357 124.393 86.5044 124.393 85.2321C124.393 83.9599 125.424 82.9286 126.696 82.9286C127.969 82.9286 129 83.9599 129 85.2321Z" fill="url(#paint69_linear)"/>
<path d="M18.4286 99.0536C18.4286 100.326 17.3972 101.357 16.125 101.357C14.8528 101.357 13.8214 100.326 13.8214 99.0536C13.8214 97.7813 14.8528 96.75 16.125 96.75C17.3972 96.75 18.4286 97.7813 18.4286 99.0536Z" fill="url(#paint70_linear)"/>
<path d="M32.25 99.0536C32.25 100.326 31.2187 101.357 29.9464 101.357C28.6742 101.357 27.6429 100.326 27.6429 99.0536C27.6429 97.7813 28.6742 96.75 29.9464 96.75C31.2187 96.75 32.25 97.7813 32.25 99.0536Z" fill="url(#paint71_linear)"/>
<path d="M46.0714 99.0536C46.0714 100.326 45.0401 101.357 43.7679 101.357C42.4956 101.357 41.4643 100.326 41.4643 99.0536C41.4643 97.7813 42.4956 96.75 43.7679 96.75C45.0401 96.75 46.0714 97.7813 46.0714 99.0536Z" fill="url(#paint72_linear)"/>
<path d="M59.8929 99.0536C59.8929 100.326 58.8615 101.357 57.5893 101.357C56.3171 101.357 55.2857 100.326 55.2857 99.0536C55.2857 97.7813 56.3171 96.75 57.5893 96.75C58.8615 96.75 59.8929 97.7813 59.8929 99.0536Z" fill="url(#paint73_linear)"/>
<path d="M73.7143 99.0536C73.7143 100.326 72.6829 101.357 71.4107 101.357C70.1385 101.357 69.1071 100.326 69.1071 99.0536C69.1071 97.7813 70.1385 96.75 71.4107 96.75C72.6829 96.75 73.7143 97.7813 73.7143 99.0536Z" fill="url(#paint74_linear)"/>
<path d="M87.5357 99.0536C87.5357 100.326 86.5044 101.357 85.2321 101.357C83.9599 101.357 82.9286 100.326 82.9286 99.0536C82.9286 97.7813 83.9599 96.75 85.2321 96.75C86.5044 96.75 87.5357 97.7813 87.5357 99.0536Z" fill="url(#paint75_linear)"/>
<path d="M101.357 99.0536C101.357 100.326 100.326 101.357 99.0536 101.357C97.7813 101.357 96.75 100.326 96.75 99.0536C96.75 97.7813 97.7813 96.75 99.0536 96.75C100.326 96.75 101.357 97.7813 101.357 99.0536Z" fill="url(#paint76_linear)"/>
<path d="M115.179 99.0536C115.179 100.326 114.147 101.357 112.875 101.357C111.603 101.357 110.571 100.326 110.571 99.0536C110.571 97.7813 111.603 96.75 112.875 96.75C114.147 96.75 115.179 97.7813 115.179 99.0536Z" fill="url(#paint77_linear)"/>
<path d="M32.25 112.875C32.25 114.147 31.2187 115.179 29.9464 115.179C28.6742 115.179 27.6429 114.147 27.6429 112.875C27.6429 111.603 28.6742 110.571 29.9464 110.571C31.2187 110.571 32.25 111.603 32.25 112.875Z" fill="url(#paint78_linear)"/>
<path d="M46.0714 112.875C46.0714 114.147 45.0401 115.179 43.7679 115.179C42.4956 115.179 41.4643 114.147 41.4643 112.875C41.4643 111.603 42.4956 110.571 43.7679 110.571C45.0401 110.571 46.0714 111.603 46.0714 112.875Z" fill="url(#paint79_linear)"/>
<path d="M59.8929 112.875C59.8929 114.147 58.8615 115.179 57.5893 115.179C56.3171 115.179 55.2857 114.147 55.2857 112.875C55.2857 111.603 56.3171 110.571 57.5893 110.571C58.8615 110.571 59.8929 111.603 59.8929 112.875Z" fill="url(#paint80_linear)"/>
<path d="M73.7143 112.875C73.7143 114.147 72.6829 115.179 71.4107 115.179C70.1385 115.179 69.1071 114.147 69.1071 112.875C69.1071 111.603 70.1385 110.571 71.4107 110.571C72.6829 110.571 73.7143 111.603 73.7143 112.875Z" fill="url(#paint81_linear)"/>
<path d="M87.5357 112.875C87.5357 114.147 86.5044 115.179 85.2321 115.179C83.9599 115.179 82.9286 114.147 82.9286 112.875C82.9286 111.603 83.9599 110.571 85.2321 110.571C86.5044 110.571 87.5357 111.603 87.5357 112.875Z" fill="url(#paint82_linear)"/>
<path d="M101.357 112.875C101.357 114.147 100.326 115.179 99.0536 115.179C97.7813 115.179 96.75 114.147 96.75 112.875C96.75 111.603 97.7813 110.571 99.0536 110.571C100.326 110.571 101.357 111.603 101.357 112.875Z" fill="url(#paint83_linear)"/>
<path d="M46.0714 126.696C46.0714 127.969 45.0401 129 43.7679 129C42.4956 129 41.4643 127.969 41.4643 126.696C41.4643 125.424 42.4956 124.393 43.7679 124.393C45.0401 124.393 46.0714 125.424 46.0714 126.696Z" fill="url(#paint84_linear)"/>
<path d="M59.8929 126.696C59.8929 127.969 58.8615 129 57.5893 129C56.3171 129 55.2857 127.969 55.2857 126.696C55.2857 125.424 56.3171 124.393 57.5893 124.393C58.8615 124.393 59.8929 125.424 59.8929 126.696Z" fill="url(#paint85_linear)"/>
<path d="M73.7143 126.696C73.7143 127.969 72.6829 129 71.4107 129C70.1385 129 69.1071 127.969 69.1071 126.696C69.1071 125.424 70.1385 124.393 71.4107 124.393C72.6829 124.393 73.7143 125.424 73.7143 126.696Z" fill="url(#paint86_linear)"/>
<path d="M87.5357 126.696C87.5357 127.969 86.5044 129 85.2321 129C83.9599 129 82.9286 127.969 82.9286 126.696C82.9286 125.424 83.9599 124.393 85.2321 124.393C86.5044 124.393 87.5357 125.424 87.5357 126.696Z" fill="url(#paint87_linear)"/>
<defs>
<linearGradient id="paint0_linear" x1="11.5" y1="-13.5" x2="114.5" y2="147" gradientUnits="userSpaceOnUse">
<stop offset="0.00721488" stop-color="#FDF1E1"/>
<stop offset="1" stop-color="#FB8F00" stop-opacity="0"/>
</linearGradient>
<linearGradient id="paint1_linear" x1="11.5" y1="-13.5" x2="114.5" y2="147" gradientUnits="userSpaceOnUse">
<stop offset="0.00721488" stop-color="#FDF1E1"/>
<stop offset="1" stop-color="#FB8F00" stop-opacity="0"/>
</linearGradient>
<linearGradient id="paint2_linear" x1="11.5" y1="-13.5" x2="114.5" y2="147" gradientUnits="userSpaceOnUse">
<stop offset="0.00721488" stop-color="#FDF1E1"/>
<stop offset="1" stop-color="#FB8F00" stop-opacity="0"/>
</linearGradient>
<linearGradient id="paint3_linear" x1="11.5" y1="-13.5" x2="114.5" y2="147" gradientUnits="userSpaceOnUse">
<stop offset="0.00721488" stop-color="#FDF1E1"/>
<stop offset="1" stop-color="#FB8F00" stop-opacity="0"/>
</linearGradient>
<linearGradient id="paint4_linear" x1="11.5" y1="-13.5" x2="114.5" y2="147" gradientUnits="userSpaceOnUse">
<stop offset="0.00721488" stop-color="#FDF1E1"/>
<stop offset="1" stop-color="#FB8F00" stop-opacity="0"/>
</linearGradient>
<linearGradient id="paint5_linear" x1="11.5" y1="-13.5" x2="114.5" y2="147" gradientUnits="userSpaceOnUse">
<stop offset="0.00721488" stop-color="#FDF1E1"/>
<stop offset="1" stop-color="#FB8F00" stop-opacity="0"/>
</linearGradient>
<linearGradient id="paint6_linear" x1="11.5" y1="-13.5" x2="114.5" y2="147" gradientUnits="userSpaceOnUse">
<stop offset="0.00721488" stop-color="#FDF1E1"/>
<stop offset="1" stop-color="#FB8F00" stop-opacity="0"/>
</linearGradient>
<linearGradient id="paint7_linear" x1="11.5" y1="-13.5" x2="114.5" y2="147" gradientUnits="userSpaceOnUse">
<stop offset="0.00721488" stop-color="#FDF1E1"/>
<stop offset="1" stop-color="#FB8F00" stop-opacity="0"/>
</linearGradient>
<linearGradient id="paint8_linear" x1="11.5" y1="-13.5" x2="114.5" y2="147" gradientUnits="userSpaceOnUse">
<stop offset="0.00721488" stop-color="#FDF1E1"/>
<stop offset="1" stop-color="#FB8F00" stop-opacity="0"/>
</linearGradient>
<linearGradient id="paint9_linear" x1="11.5" y1="-13.5" x2="114.5" y2="147" gradientUnits="userSpaceOnUse">
<stop offset="0.00721488" stop-color="#FDF1E1"/>
<stop offset="1" stop-color="#FB8F00" stop-opacity="0"/>
</linearGradient>
<linearGradient id="paint10_linear" x1="11.5" y1="-13.5" x2="114.5" y2="147" gradientUnits="userSpaceOnUse">
<stop offset="0.00721488" stop-color="#FDF1E1"/>
<stop offset="1" stop-color="#FB8F00" stop-opacity="0"/>
</linearGradient>
<linearGradient id="paint11_linear" x1="11.5" y1="-13.5" x2="114.5" y2="147" gradientUnits="userSpaceOnUse">
<stop offset="0.00721488" stop-color="#FDF1E1"/>
<stop offset="1" stop-color="#FB8F00" stop-opacity="0"/>
</linearGradient>
<linearGradient id="paint12_linear" x1="11.5" y1="-13.5" x2="114.5" y2="147" gradientUnits="userSpaceOnUse">
<stop offset="0.00721488" stop-color="#FDF1E1"/>
<stop offset="1" stop-color="#FB8F00" stop-opacity="0"/>
</linearGradient>
<linearGradient id="paint13_linear" x1="11.5" y1="-13.5" x2="114.5" y2="147" gradientUnits="userSpaceOnUse">
<stop offset="0.00721488" stop-color="#FDF1E1"/>
<stop offset="1" stop-color="#FB8F00" stop-opacity="0"/>
</linearGradient>
<linearGradient id="paint14_linear" x1="11.5" y1="-13.5" x2="114.5" y2="147" gradientUnits="userSpaceOnUse">
<stop offset="0.00721488" stop-color="#FDF1E1"/>
<stop offset="1" stop-color="#FB8F00" stop-opacity="0"/>
</linearGradient>
<linearGradient id="paint15_linear" x1="11.5" y1="-13.5" x2="114.5" y2="147" gradientUnits="userSpaceOnUse">
<stop offset="0.00721488" stop-color="#FDF1E1"/>
<stop offset="1" stop-color="#FB8F00" stop-opacity="0"/>
</linearGradient>
<linearGradient id="paint16_linear" x1="11.5" y1="-13.5" x2="114.5" y2="147" gradientUnits="userSpaceOnUse">
<stop offset="0.00721488" stop-color="#FDF1E1"/>
<stop offset="1" stop-color="#FB8F00" stop-opacity="0"/>
</linearGradient>
<linearGradient id="paint17_linear" x1="11.5" y1="-13.5" x2="114.5" y2="147" gradientUnits="userSpaceOnUse">
<stop offset="0.00721488" stop-color="#FDF1E1"/>
<stop offset="1" stop-color="#FB8F00" stop-opacity="0"/>
</linearGradient>
<linearGradient id="paint18_linear" x1="11.5" y1="-13.5" x2="114.5" y2="147" gradientUnits="userSpaceOnUse">
<stop offset="0.00721488" stop-color="#FDF1E1"/>
<stop offset="1" stop-color="#FB8F00" stop-opacity="0"/>
</linearGradient>
<linearGradient id="paint19_linear" x1="11.5" y1="-13.5" x2="114.5" y2="147" gradientUnits="userSpaceOnUse">
<stop offset="0.00721488" stop-color="#FDF1E1"/>
<stop offset="1" stop-color="#FB8F00" stop-opacity="0"/>
</linearGradient>
<linearGradient id="paint20_linear" x1="11.5" y1="-13.5" x2="114.5" y2="147" gradientUnits="userSpaceOnUse">
<stop offset="0.00721488" stop-color="#FDF1E1"/>
<stop offset="1" stop-color="#FB8F00" stop-opacity="0"/>
</linearGradient>
<linearGradient id="paint21_linear" x1="11.5" y1="-13.5" x2="114.5" y2="147" gradientUnits="userSpaceOnUse">
<stop offset="0.00721488" stop-color="#FDF1E1"/>
<stop offset="1" stop-color="#FB8F00" stop-opacity="0"/>
</linearGradient>
<linearGradient id="paint22_linear" x1="11.5" y1="-13.5" x2="114.5" y2="147" gradientUnits="userSpaceOnUse">
<stop offset="0.00721488" stop-color="#FDF1E1"/>
<stop offset="1" stop-color="#FB8F00" stop-opacity="0"/>
</linearGradient>
<linearGradient id="paint23_linear" x1="11.5" y1="-13.5" x2="114.5" y2="147" gradientUnits="userSpaceOnUse">
<stop offset="0.00721488" stop-color="#FDF1E1"/>
<stop offset="1" stop-color="#FB8F00" stop-opacity="0"/>
</linearGradient>
<linearGradient id="paint24_linear" x1="11.5" y1="-13.5" x2="114.5" y2="147" gradientUnits="userSpaceOnUse">
<stop offset="0.00721488" stop-color="#FDF1E1"/>
<stop offset="1" stop-color="#FB8F00" stop-opacity="0"/>
</linearGradient>
<linearGradient id="paint25_linear" x1="11.5" y1="-13.5" x2="114.5" y2="147" gradientUnits="userSpaceOnUse">
<stop offset="0.00721488" stop-color="#FDF1E1"/>
<stop offset="1" stop-color="#FB8F00" stop-opacity="0"/>
</linearGradient>
<linearGradient id="paint26_linear" x1="11.5" y1="-13.5" x2="114.5" y2="147" gradientUnits="userSpaceOnUse">
<stop offset="0.00721488" stop-color="#FDF1E1"/>
<stop offset="1" stop-color="#FB8F00" stop-opacity="0"/>
</linearGradient>
<linearGradient id="paint27_linear" x1="11.5" y1="-13.5" x2="114.5" y2="147" gradientUnits="userSpaceOnUse">
<stop offset="0.00721488" stop-color="#FDF1E1"/>
<stop offset="1" stop-color="#FB8F00" stop-opacity="0"/>
</linearGradient>
<linearGradient id="paint28_linear" x1="11.5" y1="-13.5" x2="114.5" y2="147" gradientUnits="userSpaceOnUse">
<stop offset="0.00721488" stop-color="#FDF1E1"/>
<stop offset="1" stop-color="#FB8F00" stop-opacity="0"/>
</linearGradient>
<linearGradient id="paint29_linear" x1="11.5" y1="-13.5" x2="114.5" y2="147" gradientUnits="userSpaceOnUse">
<stop offset="0.00721488" stop-color="#FDF1E1"/>
<stop offset="1" stop-color="#FB8F00" stop-opacity="0"/>
</linearGradient>
<linearGradient id="paint30_linear" x1="11.5" y1="-13.5" x2="114.5" y2="147" gradientUnits="userSpaceOnUse">
<stop offset="0.00721488" stop-color="#FDF1E1"/>
<stop offset="1" stop-color="#FB8F00" stop-opacity="0"/>
</linearGradient>
<linearGradient id="paint31_linear" x1="11.5" y1="-13.5" x2="114.5" y2="147" gradientUnits="userSpaceOnUse">
<stop offset="0.00721488" stop-color="#FDF1E1"/>
<stop offset="1" stop-color="#FB8F00" stop-opacity="0"/>
</linearGradient>
<linearGradient id="paint32_linear" x1="11.5" y1="-13.5" x2="114.5" y2="147" gradientUnits="userSpaceOnUse">
<stop offset="0.00721488" stop-color="#FDF1E1"/>
<stop offset="1" stop-color="#FB8F00" stop-opacity="0"/>
</linearGradient>
<linearGradient id="paint33_linear" x1="11.5" y1="-13.5" x2="114.5" y2="147" gradientUnits="userSpaceOnUse">
<stop offset="0.00721488" stop-color="#FDF1E1"/>
<stop offset="1" stop-color="#FB8F00" stop-opacity="0"/>
</linearGradient>
<linearGradient id="paint34_linear" x1="11.5" y1="-13.5" x2="114.5" y2="147" gradientUnits="userSpaceOnUse">
<stop offset="0.00721488" stop-color="#FDF1E1"/>
<stop offset="1" stop-color="#FB8F00" stop-opacity="0"/>
</linearGradient>
<linearGradient id="paint35_linear" x1="11.5" y1="-13.5" x2="114.5" y2="147" gradientUnits="userSpaceOnUse">
<stop offset="0.00721488" stop-color="#FDF1E1"/>
<stop offset="1" stop-color="#FB8F00" stop-opacity="0"/>
</linearGradient>
<linearGradient id="paint36_linear" x1="11.5" y1="-13.5" x2="114.5" y2="147" gradientUnits="userSpaceOnUse">
<stop offset="0.00721488" stop-color="#FDF1E1"/>
<stop offset="1" stop-color="#FB8F00" stop-opacity="0"/>
</linearGradient>
<linearGradient id="paint37_linear" x1="11.5" y1="-13.5" x2="114.5" y2="147" gradientUnits="userSpaceOnUse">
<stop offset="0.00721488" stop-color="#FDF1E1"/>
<stop offset="1" stop-color="#FB8F00" stop-opacity="0"/>
</linearGradient>
<linearGradient id="paint38_linear" x1="11.5" y1="-13.5" x2="114.5" y2="147" gradientUnits="userSpaceOnUse">
<stop offset="0.00721488" stop-color="#FDF1E1"/>
<stop offset="1" stop-color="#FB8F00" stop-opacity="0"/>
</linearGradient>
<linearGradient id="paint39_linear" x1="11.5" y1="-13.5" x2="114.5" y2="147" gradientUnits="userSpaceOnUse">
<stop offset="0.00721488" stop-color="#FDF1E1"/>
<stop offset="1" stop-color="#FB8F00" stop-opacity="0"/>
</linearGradient>
<linearGradient id="paint40_linear" x1="11.5" y1="-13.5" x2="114.5" y2="147" gradientUnits="userSpaceOnUse">
<stop offset="0.00721488" stop-color="#FDF1E1"/>
<stop offset="1" stop-color="#FB8F00" stop-opacity="0"/>
</linearGradient>
<linearGradient id="paint41_linear" x1="11.5" y1="-13.5" x2="114.5" y2="147" gradientUnits="userSpaceOnUse">
<stop offset="0.00721488" stop-color="#FDF1E1"/>
<stop offset="1" stop-color="#FB8F00" stop-opacity="0"/>
</linearGradient>
<linearGradient id="paint42_linear" x1="11.5" y1="-13.5" x2="114.5" y2="147" gradientUnits="userSpaceOnUse">
<stop offset="0.00721488" stop-color="#FDF1E1"/>
<stop offset="1" stop-color="#FB8F00" stop-opacity="0"/>
</linearGradient>
<linearGradient id="paint43_linear" x1="11.5" y1="-13.5" x2="114.5" y2="147" gradientUnits="userSpaceOnUse">
<stop offset="0.00721488" stop-color="#FDF1E1"/>
<stop offset="1" stop-color="#FB8F00" stop-opacity="0"/>
</linearGradient>
<linearGradient id="paint44_linear" x1="11.5" y1="-13.5" x2="114.5" y2="147" gradientUnits="userSpaceOnUse">
<stop offset="0.00721488" stop-color="#FDF1E1"/>
<stop offset="1" stop-color="#FB8F00" stop-opacity="0"/>
</linearGradient>
<linearGradient id="paint45_linear" x1="11.5" y1="-13.5" x2="114.5" y2="147" gradientUnits="userSpaceOnUse">
<stop offset="0.00721488" stop-color="#FDF1E1"/>
<stop offset="1" stop-color="#FB8F00" stop-opacity="0"/>
</linearGradient>
<linearGradient id="paint46_linear" x1="11.5" y1="-13.5" x2="114.5" y2="147" gradientUnits="userSpaceOnUse">
<stop offset="0.00721488" stop-color="#FDF1E1"/>
<stop offset="1" stop-color="#FB8F00" stop-opacity="0"/>
</linearGradient>
<linearGradient id="paint47_linear" x1="11.5" y1="-13.5" x2="114.5" y2="147" gradientUnits="userSpaceOnUse">
<stop offset="0.00721488" stop-color="#FDF1E1"/>
<stop offset="1" stop-color="#FB8F00" stop-opacity="0"/>
</linearGradient>
<linearGradient id="paint48_linear" x1="11.5" y1="-13.5" x2="114.5" y2="147" gradientUnits="userSpaceOnUse">
<stop offset="0.00721488" stop-color="#FDF1E1"/>
<stop offset="1" stop-color="#FB8F00" stop-opacity="0"/>
</linearGradient>
<linearGradient id="paint49_linear" x1="11.5" y1="-13.5" x2="114.5" y2="147" gradientUnits="userSpaceOnUse">
<stop offset="0.00721488" stop-color="#FDF1E1"/>
<stop offset="1" stop-color="#FB8F00" stop-opacity="0"/>
</linearGradient>
<linearGradient id="paint50_linear" x1="11.5" y1="-13.5" x2="114.5" y2="147" gradientUnits="userSpaceOnUse">
<stop offset="0.00721488" stop-color="#FDF1E1"/>
<stop offset="1" stop-color="#FB8F00" stop-opacity="0"/>
</linearGradient>
<linearGradient id="paint51_linear" x1="11.5" y1="-13.5" x2="114.5" y2="147" gradientUnits="userSpaceOnUse">
<stop offset="0.00721488" stop-color="#FDF1E1"/>
<stop offset="1" stop-color="#FB8F00" stop-opacity="0"/>
</linearGradient>
<linearGradient id="paint52_linear" x1="11.5" y1="-13.5" x2="114.5" y2="147" gradientUnits="userSpaceOnUse">
<stop offset="0.00721488" stop-color="#FDF1E1"/>
<stop offset="1" stop-color="#FB8F00" stop-opacity="0"/>
</linearGradient>
<linearGradient id="paint53_linear" x1="11.5" y1="-13.5" x2="114.5" y2="147" gradientUnits="userSpaceOnUse">
<stop offset="0.00721488" stop-color="#FDF1E1"/>
<stop offset="1" stop-color="#FB8F00" stop-opacity="0"/>
</linearGradient>
<linearGradient id="paint54_linear" x1="11.5" y1="-13.5" x2="114.5" y2="147" gradientUnits="userSpaceOnUse">
<stop offset="0.00721488" stop-color="#FDF1E1"/>
<stop offset="1" stop-color="#FB8F00" stop-opacity="0"/>
</linearGradient>
<linearGradient id="paint55_linear" x1="11.5" y1="-13.5" x2="114.5" y2="147" gradientUnits="userSpaceOnUse">
<stop offset="0.00721488" stop-color="#FDF1E1"/>
<stop offset="1" stop-color="#FB8F00" stop-opacity="0"/>
</linearGradient>
<linearGradient id="paint56_linear" x1="11.5" y1="-13.5" x2="114.5" y2="147" gradientUnits="userSpaceOnUse">
<stop offset="0.00721488" stop-color="#FDF1E1"/>
<stop offset="1" stop-color="#FB8F00" stop-opacity="0"/>
</linearGradient>
<linearGradient id="paint57_linear" x1="11.5" y1="-13.5" x2="114.5" y2="147" gradientUnits="userSpaceOnUse">
<stop offset="0.00721488" stop-color="#FDF1E1"/>
<stop offset="1" stop-color="#FB8F00" stop-opacity="0"/>
</linearGradient>
<linearGradient id="paint58_linear" x1="11.5" y1="-13.5" x2="114.5" y2="147" gradientUnits="userSpaceOnUse">
<stop offset="0.00721488" stop-color="#FDF1E1"/>
<stop offset="1" stop-color="#FB8F00" stop-opacity="0"/>
</linearGradient>
<linearGradient id="paint59_linear" x1="11.5" y1="-13.5" x2="114.5" y2="147" gradientUnits="userSpaceOnUse">
<stop offset="0.00721488" stop-color="#FDF1E1"/>
<stop offset="1" stop-color="#FB8F00" stop-opacity="0"/>
</linearGradient>
<linearGradient id="paint60_linear" x1="11.5" y1="-13.5" x2="114.5" y2="147" gradientUnits="userSpaceOnUse">
<stop offset="0.00721488" stop-color="#FDF1E1"/>
<stop offset="1" stop-color="#FB8F00" stop-opacity="0"/>
</linearGradient>
<linearGradient id="paint61_linear" x1="11.5" y1="-13.5" x2="114.5" y2="147" gradientUnits="userSpaceOnUse">
<stop offset="0.00721488" stop-color="#FDF1E1"/>
<stop offset="1" stop-color="#FB8F00" stop-opacity="0"/>
</linearGradient>
<linearGradient id="paint62_linear" x1="11.5" y1="-13.5" x2="114.5" y2="147" gradientUnits="userSpaceOnUse">
<stop offset="0.00721488" stop-color="#FDF1E1"/>
<stop offset="1" stop-color="#FB8F00" stop-opacity="0"/>
</linearGradient>
<linearGradient id="paint63_linear" x1="11.5" y1="-13.5" x2="114.5" y2="147" gradientUnits="userSpaceOnUse">
<stop offset="0.00721488" stop-color="#FDF1E1"/>
<stop offset="1" stop-color="#FB8F00" stop-opacity="0"/>
</linearGradient>
<linearGradient id="paint64_linear" x1="11.5" y1="-13.5" x2="114.5" y2="147" gradientUnits="userSpaceOnUse">
<stop offset="0.00721488" stop-color="#FDF1E1"/>
<stop offset="1" stop-color="#FB8F00" stop-opacity="0"/>
</linearGradient>
<linearGradient id="paint65_linear" x1="11.5" y1="-13.5" x2="114.5" y2="147" gradientUnits="userSpaceOnUse">
<stop offset="0.00721488" stop-color="#FDF1E1"/>
<stop offset="1" stop-color="#FB8F00" stop-opacity="0"/>
</linearGradient>
<linearGradient id="paint66_linear" x1="11.5" y1="-13.5" x2="114.5" y2="147" gradientUnits="userSpaceOnUse">
<stop offset="0.00721488" stop-color="#FDF1E1"/>
<stop offset="1" stop-color="#FB8F00" stop-opacity="0"/>
</linearGradient>
<linearGradient id="paint67_linear" x1="11.5" y1="-13.5" x2="114.5" y2="147" gradientUnits="userSpaceOnUse">
<stop offset="0.00721488" stop-color="#FDF1E1"/>
<stop offset="1" stop-color="#FB8F00" stop-opacity="0"/>
</linearGradient>
<linearGradient id="paint68_linear" x1="11.5" y1="-13.5" x2="114.5" y2="147" gradientUnits="userSpaceOnUse">
<stop offset="0.00721488" stop-color="#FDF1E1"/>
<stop offset="1" stop-color="#FB8F00" stop-opacity="0"/>
</linearGradient>
<linearGradient id="paint69_linear" x1="11.5" y1="-13.5" x2="114.5" y2="147" gradientUnits="userSpaceOnUse">
<stop offset="0.00721488" stop-color="#FDF1E1"/>
<stop offset="1" stop-color="#FB8F00" stop-opacity="0"/>
</linearGradient>
<linearGradient id="paint70_linear" x1="11.5" y1="-13.5" x2="114.5" y2="147" gradientUnits="userSpaceOnUse">
<stop offset="0.00721488" stop-color="#FDF1E1"/>
<stop offset="1" stop-color="#FB8F00" stop-opacity="0"/>
</linearGradient>
<linearGradient id="paint71_linear" x1="11.5" y1="-13.5" x2="114.5" y2="147" gradientUnits="userSpaceOnUse">
<stop offset="0.00721488" stop-color="#FDF1E1"/>
<stop offset="1" stop-color="#FB8F00" stop-opacity="0"/>
</linearGradient>
<linearGradient id="paint72_linear" x1="11.5" y1="-13.5" x2="114.5" y2="147" gradientUnits="userSpaceOnUse">
<stop offset="0.00721488" stop-color="#FDF1E1"/>
<stop offset="1" stop-color="#FB8F00" stop-opacity="0"/>
</linearGradient>
<linearGradient id="paint73_linear" x1="11.5" y1="-13.5" x2="114.5" y2="147" gradientUnits="userSpaceOnUse">
<stop offset="0.00721488" stop-color="#FDF1E1"/>
<stop offset="1" stop-color="#FB8F00" stop-opacity="0"/>
</linearGradient>
<linearGradient id="paint74_linear" x1="11.5" y1="-13.5" x2="114.5" y2="147" gradientUnits="userSpaceOnUse">
<stop offset="0.00721488" stop-color="#FDF1E1"/>
<stop offset="1" stop-color="#FB8F00" stop-opacity="0"/>
</linearGradient>
<linearGradient id="paint75_linear" x1="11.5" y1="-13.5" x2="114.5" y2="147" gradientUnits="userSpaceOnUse">
<stop offset="0.00721488" stop-color="#FDF1E1"/>
<stop offset="1" stop-color="#FB8F00" stop-opacity="0"/>
</linearGradient>
<linearGradient id="paint76_linear" x1="11.5" y1="-13.5" x2="114.5" y2="147" gradientUnits="userSpaceOnUse">
<stop offset="0.00721488" stop-color="#FDF1E1"/>
<stop offset="1" stop-color="#FB8F00" stop-opacity="0"/>
</linearGradient>
<linearGradient id="paint77_linear" x1="11.5" y1="-13.5" x2="114.5" y2="147" gradientUnits="userSpaceOnUse">
<stop offset="0.00721488" stop-color="#FDF1E1"/>
<stop offset="1" stop-color="#FB8F00" stop-opacity="0"/>
</linearGradient>
<linearGradient id="paint78_linear" x1="11.5" y1="-13.5" x2="114.5" y2="147" gradientUnits="userSpaceOnUse">
<stop offset="0.00721488" stop-color="#FDF1E1"/>
<stop offset="1" stop-color="#FB8F00" stop-opacity="0"/>
</linearGradient>
<linearGradient id="paint79_linear" x1="11.5" y1="-13.5" x2="114.5" y2="147" gradientUnits="userSpaceOnUse">
<stop offset="0.00721488" stop-color="#FDF1E1"/>
<stop offset="1" stop-color="#FB8F00" stop-opacity="0"/>
</linearGradient>
<linearGradient id="paint80_linear" x1="11.5" y1="-13.5" x2="114.5" y2="147" gradientUnits="userSpaceOnUse">
<stop offset="0.00721488" stop-color="#FDF1E1"/>
<stop offset="1" stop-color="#FB8F00" stop-opacity="0"/>
</linearGradient>
<linearGradient id="paint81_linear" x1="11.5" y1="-13.5" x2="114.5" y2="147" gradientUnits="userSpaceOnUse">
<stop offset="0.00721488" stop-color="#FDF1E1"/>
<stop offset="1" stop-color="#FB8F00" stop-opacity="0"/>
</linearGradient>
<linearGradient id="paint82_linear" x1="11.5" y1="-13.5" x2="114.5" y2="147" gradientUnits="userSpaceOnUse">
<stop offset="0.00721488" stop-color="#FDF1E1"/>
<stop offset="1" stop-color="#FB8F00" stop-opacity="0"/>
</linearGradient>
<linearGradient id="paint83_linear" x1="11.5" y1="-13.5" x2="114.5" y2="147" gradientUnits="userSpaceOnUse">
<stop offset="0.00721488" stop-color="#FDF1E1"/>
<stop offset="1" stop-color="#FB8F00" stop-opacity="0"/>
</linearGradient>
<linearGradient id="paint84_linear" x1="11.5" y1="-13.5" x2="114.5" y2="147" gradientUnits="userSpaceOnUse">
<stop offset="0.00721488" stop-color="#FDF1E1"/>
<stop offset="1" stop-color="#FB8F00" stop-opacity="0"/>
</linearGradient>
<linearGradient id="paint85_linear" x1="11.5" y1="-13.5" x2="114.5" y2="147" gradientUnits="userSpaceOnUse">
<stop offset="0.00721488" stop-color="#FDF1E1"/>
<stop offset="1" stop-color="#FB8F00" stop-opacity="0"/>
</linearGradient>
<linearGradient id="paint86_linear" x1="11.5" y1="-13.5" x2="114.5" y2="147" gradientUnits="userSpaceOnUse">
<stop offset="0.00721488" stop-color="#FDF1E1"/>
<stop offset="1" stop-color="#FB8F00" stop-opacity="0"/>
</linearGradient>
<linearGradient id="paint87_linear" x1="11.5" y1="-13.5" x2="114.5" y2="147" gradientUnits="userSpaceOnUse">
<stop offset="0.00721488" stop-color="#FDF1E1"/>
<stop offset="1" stop-color="#FB8F00" stop-opacity="0"/>
</linearGradient>
</defs>
</svg>
