<svg width="178" height="130" viewBox="0 0 178 130" fill="none" xmlns="http://www.w3.org/2000/svg">
<path fill-rule="evenodd" clip-rule="evenodd" d="M134.737 119.045L134.833 119.067L135.024 119.114C138.127 119.889 141.151 120.982 144.033 122.37C145.646 123.146 147.325 124.039 149.11 123.902C149.621 123.863 150.126 123.739 150.638 123.733C152.376 123.714 153.843 125.027 155.542 125.394C157.015 125.712 158.535 125.299 160.04 125.213C161.544 125.128 163.284 125.525 163.981 126.861C164.078 127.047 164.152 127.26 164.106 127.464C164.044 127.74 163.795 127.913 163.534 128.044L163.482 128.069L163.371 128.12C161.368 129.018 159.229 129.936 157.059 129.672L156.907 129.652L156.681 129.623C154.647 129.392 152.595 130.054 150.541 129.996C146.302 129.878 141.98 129.418 137.907 128.558L137.471 128.465L137.252 128.417C130.267 126.925 126.754 128.006 123.489 128.089L123.385 128.092L123.182 128.094C121.924 128.101 117.75 128.075 116.257 128.466C115.504 128.664 115.004 127.523 115.402 126.854C115.783 126.211 116.548 125.94 117.247 125.661L117.334 125.626L117.404 125.597C118.082 125.312 118.787 124.858 118.919 124.153L118.93 124.079L118.941 124.009C119.104 123.114 120.172 122.717 121.088 122.513L121.162 122.497L121.688 122.386C123.095 122.093 124.529 121.851 125.943 122.07C126.743 122.195 129.8 120.28 130.717 119.491C131.78 118.576 133.347 118.725 134.737 119.045ZM146.425 59.8978L146.311 59.9352C145.353 60.2106 144.438 60.6308 143.612 61.1879C142.201 62.1397 141.011 63.4807 139.403 64.0405C138.291 64.4276 137.039 64.3944 135.949 63.9491C136.327 64.7689 137.374 65.0548 138.272 64.9616C140.894 64.6895 142.681 62.2215 145.037 61.0408C145.557 60.7803 146.104 60.585 146.667 60.4484C146.901 60.9806 147.135 61.5179 147.368 62.0594L147.366 62.0657C147.187 62.1977 147.024 62.3511 146.883 62.5265C146.343 63.2002 146.209 64.2221 146.69 64.9391C147.173 65.6593 148.057 65.8789 148.958 65.852L148.958 65.8489L149.283 66.647C149.825 67.9821 150.362 69.3403 150.895 70.7221L150.852 70.7453C150.723 70.8103 150.594 70.8764 150.466 70.9434C146.965 72.7737 143.792 75.3291 140.002 76.4431C139.299 76.6499 138.558 76.8054 137.835 76.6835C137.112 76.5616 136.407 76.111 136.162 75.42C135.89 75.439 135.864 75.8395 135.979 76.0858C136.624 77.4624 138.587 77.4554 140.046 77.0302C143.948 75.8936 147.265 73.3678 150.86 71.4622L151.123 71.3237L151.538 72.4281C169.587 121.779 120.898 118.126 106.906 114.503C86.1606 109.131 24.5412 129.19 11.0352 114.503C5.41697 108.393 2.61401 100.352 2.12468 91.3565C6.22919 89.657 9.8003 86.6827 13.9849 85.109C16.6126 84.1208 19.4546 83.707 22.255 83.905C23.6597 84.0043 25.0961 84.2721 26.2764 85.0401C27.4567 85.8081 28.3332 87.1651 28.2022 88.5671C28.111 89.5438 27.5624 90.4132 26.9846 91.2059C26.5836 91.756 26.1571 92.2941 25.6392 92.7359C24.6516 93.5783 23.3686 94.0286 22.0763 94.1504C20.7471 94.2757 19.3352 94.0441 18.2707 93.2383C17.2062 92.4325 16.5829 90.9766 16.9969 89.7074C17.1649 89.192 17.4861 88.737 17.8643 88.3487C18.6365 87.5558 19.735 87.0052 20.8325 87.1488C21.9299 87.2925 22.9312 88.2834 22.8445 89.3868C22.7578 90.4901 21.333 91.3178 20.4303 90.6774C20.5711 90.1927 19.8576 89.7377 19.4775 90.0697C19.146 90.3593 19.2572 90.9428 19.5944 91.2257C19.9315 91.5087 20.4022 91.5623 20.8424 91.5655C21.5595 91.5707 22.3133 91.4596 22.8843 91.0259C24.1854 90.0377 23.7622 87.7369 22.3547 86.9076C20.9471 86.0783 19.0727 86.4952 17.772 87.4838C17.1183 87.9806 16.5549 88.6271 16.2827 89.4017C15.7163 91.0139 16.5801 92.8911 17.997 93.8464C19.4139 94.8017 21.2436 94.9619 22.9306 94.6894C23.8881 94.5347 24.8408 94.2432 25.6367 93.6889C26.4233 93.1411 27.0191 92.3649 27.569 91.5796C28.2946 90.5432 28.9872 89.3933 29 88.1281C29.0139 86.7107 28.1345 85.3885 26.9648 84.5878C25.7951 83.787 24.3701 83.4432 22.9609 83.2895C18.7204 82.8271 14.4133 83.9706 10.6331 85.9469C7.7409 87.459 5.07294 89.4658 2.09566 90.7461C1.79302 83.6575 2.90713 75.996 5.19542 68.2334L5.37848 68.1959C8.20525 67.6071 11.0872 67.2835 13.9741 67.2305C15.8896 67.1954 17.8304 67.2829 19.6677 67.8256C20.4391 68.0534 21.1967 68.3621 21.9979 68.4315C23.535 68.5646 25.0999 67.8062 26.5922 68.1978C27.3451 68.3953 27.8451 67.2546 27.4479 66.5852C27.0507 65.9159 26.2371 65.6492 25.5156 65.3573C24.7941 65.0654 24.0165 64.5829 23.9195 63.8106C23.7978 62.8414 22.6424 62.4321 21.6871 62.2282L21.3367 62.1537C19.874 61.8455 18.3792 61.5731 16.9069 61.8017C16.1063 61.9261 15.2654 62.1934 14.5118 61.8957C13.3872 61.4514 13.0495 60.0111 12.1328 59.2225C11.1878 58.4095 9.8449 58.4361 8.58269 58.6769C13.4008 47.0143 20.6448 35.5592 29.4934 25.9099L29.4983 25.9156C29.5492 25.922 29.6 25.928 29.6506 25.9337C32.9905 26.3128 36.4129 25.9464 39.5968 24.8687C41.873 24.0983 44.3415 25.1633 46.4094 26.3875C48.4774 27.6117 50.5791 29.0666 52.9812 29.1373C54.7013 29.1879 56.3464 28.5131 58.0077 28.0639C65.075 26.1524 72.5048 28.303 79.7284 29.4947C81.9527 29.8617 84.4561 30.0723 86.2483 28.7048C85.7066 27.5202 84.4102 26.8357 83.1242 26.6288C81.8381 26.4218 80.5265 26.6061 79.2267 26.6902C74.6915 26.9837 70.0814 26.0221 66.0417 23.9399C63.8243 22.7971 61.1959 22.9685 58.7151 22.7063C56.2343 22.4442 53.4768 21.4306 52.6112 19.091C51.8475 17.0266 49.6891 15.6865 47.4982 15.4746C45.3073 15.2627 43.1164 16.0291 41.2329 17.1682C39.3494 18.3072 37.7169 19.8081 36.0398 21.2338C35.4235 21.7577 34.7795 22.284 34.0104 22.5351C33.5764 22.6768 33.1227 22.7243 32.6651 22.7485L32.5109 22.7529C63.7295 -8.56964 112.389 -17.0287 146.425 59.8978ZM147.608 62.6202C147.664 62.7512 147.721 62.8847 147.778 63.0185L148.713 65.2552C148.185 65.2263 147.683 65.0652 147.365 64.6608C146.908 64.0809 147.054 63.1711 147.577 62.6495L147.608 62.6202ZM23.853 42.1396L23.6791 42.2318C23.4126 42.3753 23.1559 42.524 22.7832 42.7491L21.9014 43.2855C20.7445 43.982 20.1147 44.2943 19.3181 44.5284C18.9664 44.6318 18.7111 44.6665 18.4775 44.6272C18.2184 44.5835 18.0011 44.4269 17.9316 44.2308L17.8706 44.0588L17.6886 44.0715C17.3593 44.0946 17.2896 44.4511 17.4082 44.7042C17.7212 45.372 18.5809 45.5057 19.4722 45.2461C20.377 44.9825 21.0812 44.6397 22.3648 43.8839L23.1872 43.3948C24.2506 42.7657 24.8092 42.4759 25.5153 42.2104C26.6327 41.7901 27.8416 41.6141 29.0325 41.6983C29.7292 41.7476 30.2582 41.8836 30.678 42.1567C31.1586 42.4694 31.4579 42.9911 31.4126 43.4765C31.3832 43.7905 31.2326 44.0898 30.9248 44.512C30.7163 44.798 30.5556 44.9856 30.3744 45.1402C30.0024 45.4575 29.5 45.6508 28.9487 45.7028C28.3683 45.7575 27.8324 45.64 27.4509 45.3512C27.0413 45.0411 26.8365 44.5028 26.9769 44.0721C27.033 43.9001 27.1433 43.7318 27.3002 43.5707C27.6175 43.2449 28.0282 43.0681 28.3958 43.1162C28.7751 43.1659 29.094 43.5076 29.068 43.8386L29.0632 43.876C29.0185 44.1223 28.7328 44.3093 28.5121 44.2748L28.4886 44.27L28.488 44.2646C28.4103 43.9357 27.9618 43.7259 27.6761 43.9755C27.4155 44.2032 27.4712 44.628 27.7309 44.8459C27.9124 44.9982 28.1326 45.0486 28.4295 45.0508C28.8501 45.0538 29.197 44.9731 29.47 44.7658C30.1686 44.2351 29.9885 43.0216 29.2149 42.5658C28.5442 42.1707 27.6298 42.3113 26.9426 42.8336C26.596 43.0971 26.338 43.4194 26.2097 43.7844C25.9332 44.5713 26.3169 45.5121 27.0521 46.0078C27.6821 46.4325 28.511 46.5555 29.3833 46.4146C29.8863 46.3333 30.3136 46.1824 30.6663 45.9368C30.9921 45.7099 31.2424 45.4242 31.5712 44.9546C32.0183 44.316 32.2353 43.8458 32.2408 43.3091C32.2474 42.6341 31.852 41.9745 31.2458 41.5595C30.7463 41.2176 30.1354 41.0328 29.3843 40.9509C27.5814 40.7543 25.6653 41.1921 23.853 42.1396Z" fill="#FFF1DA"/>
<path fill-rule="evenodd" clip-rule="evenodd" d="M5.93055 86.2225C6.17557 86.9136 6.8811 87.3642 7.60412 87.4861C8.32714 87.6079 9.06771 87.4524 9.77117 87.2457C12.2829 86.5074 14.5234 85.1362 16.7679 83.7625C17.9104 83.0632 19.054 82.3633 20.2349 81.7459C24.0151 79.7696 28.3222 78.6261 32.5627 79.0885C33.9719 79.2422 35.3969 79.586 36.5666 80.3868C37.7363 81.1875 38.6157 82.5097 38.6016 83.9272C38.589 85.1923 37.8964 86.3422 37.1708 87.3787C36.621 88.164 36.0251 88.9401 35.2385 89.488C34.4426 90.0423 33.4899 90.3337 32.5324 90.4884C30.8454 90.7609 29.0157 90.6007 27.5988 89.6454C26.1819 88.6901 25.3181 86.8129 25.8845 85.2007C26.1567 84.4261 26.7201 83.7797 27.3738 83.2828C28.6745 82.2942 30.5489 81.8773 31.9565 82.7066C33.3641 83.5359 33.7872 85.8368 32.4862 86.8249C31.9151 87.2586 31.1613 87.3698 30.4442 87.3645C30.004 87.3613 29.5333 87.3077 29.1962 87.0247C28.859 86.7418 28.7478 86.1583 29.0793 85.8688C29.4594 85.5367 30.1729 85.9917 30.0321 86.4764C30.9348 87.1168 32.3596 86.2892 32.4463 85.1858C32.533 84.0824 31.5317 83.0915 30.4343 82.9479C29.3368 82.8042 28.2383 83.3548 27.4661 84.1477C27.0879 84.5361 26.7667 84.991 26.5987 85.5064C26.1847 86.7757 26.808 88.2315 27.8725 89.0373C28.937 89.8431 30.3489 90.0747 31.6781 89.9494C32.9704 89.8276 34.2534 89.3773 35.241 88.5349C35.7589 88.0932 36.1854 87.555 36.5864 87.0049C37.1642 86.2122 37.7128 85.3428 37.804 84.3662C37.935 82.9641 37.0585 81.6071 35.8782 80.8391C34.6979 80.0712 33.2615 79.8034 31.8568 79.704C29.0564 79.506 26.2144 79.9198 23.5867 80.908C21.386 81.7356 19.355 82.9506 17.327 84.1638C14.9127 85.6081 12.5025 87.0499 9.8152 87.8327C8.35557 88.2579 6.39346 88.265 5.74833 86.8884C5.6329 86.642 5.6592 86.2415 5.93055 86.2225Z" fill="#FFF1DA"/>
<path fill-rule="evenodd" clip-rule="evenodd" d="M75.1393 101.842C72.278 105.498 64.4668 102.674 61.1116 100.539C57.7565 98.4029 59.0446 96.3341 59.0446 95.3224C59.0446 94.3106 58.8142 93.0733 58.253 92.1987C57.6918 91.3241 48.8184 87.5734 48.8184 83.4536C48.8184 79.6112 51.4781 76.0955 55.1989 74.503C61.1116 71.9723 64.0041 73.5814 69.4678 75.8039C74.9315 78.0263 74.4822 83.4536 74.4822 83.4536C74.4822 83.4536 78.9633 96.9557 75.1393 101.842Z" fill="#E7EAEE"/>
<path d="M71.6138 103.866C59.5264 103.077 48.2057 95.3049 42.8838 84.4234C37.5618 73.542 38.3209 59.9816 44.5935 49.6191C50.8661 39.2565 62.3833 32.3327 74.4589 31.3795C77.5817 31.133 80.7715 31.2669 83.7648 32.1906C87.0157 33.1938 89.9381 35.0947 93.2037 36.0491C97.6934 37.3614 102.468 36.3712 106.504 34.0069C109.505 32.2489 112.217 29.9573 115.44 28.6502C119.206 27.123 123.616 27.6925 127.214 29.5827C130.811 31.4729 133.661 34.5677 135.856 37.9873C142.394 48.1695 143.364 60.8313 144.148 72.9062C144.579 79.5412 144.975 86.4178 142.605 92.6297C140.453 98.2674 136.207 102.835 131.777 106.932C127.079 111.277 122.023 115.295 116.368 118.291C105.347 124.129 92.4533 125.818 80.031 124.703C67.6086 123.588 55.5697 119.8 43.9777 115.198C37.5076 112.629 30.5318 119.555 23.72 118.119C19.5112 117.232 16.562 113.379 12.5623 111.797C8.26417 110.097 2.94376 111.466 0 115.029C2.57634 108.794 11.3961 106.199 16.9385 110.047C19.7432 111.993 23.5035 111.872 26.8193 111.058C30.135 110.244 33.3085 108.821 36.695 108.388C41.542 107.767 46.3902 109.216 51.2614 109.603C57.2203 110.077 63.1781 108.959 69.0511 107.845C75.3769 106.646 81.7027 105.447 88.0285 104.248C91.0806 103.669 94.1848 103.073 96.9323 101.623C100.027 99.9904 102.543 97.2869 103.95 94.0836C93.4138 102.913 77.5795 103.378 71.6138 103.866Z" fill="white"/>
<path fill-rule="evenodd" clip-rule="evenodd" d="M76.0397 102.142C73.1784 105.798 65.3671 102.974 62.012 100.839C58.6569 98.7029 59.945 96.6342 59.945 95.6224C59.945 94.6107 59.7146 93.3734 59.1534 92.4988C58.5922 91.6241 49.7188 87.8734 49.7188 83.7537C49.7188 79.9112 52.3785 76.3956 56.0993 74.803C62.012 72.2723 64.9045 73.8814 70.3682 76.1039C75.8319 78.3264 75.3826 83.7537 75.3826 83.7537C75.3826 83.7537 79.8637 97.2557 76.0397 102.142Z" fill="#E7EAEE"/>
<path fill-rule="evenodd" clip-rule="evenodd" d="M87.8966 85.0782C87.9844 85.4502 88.3986 85.8229 88.7124 85.6045C90.3518 84.4638 91.9973 83.3195 93.7734 82.406C94.9174 81.8176 96.1421 81.3057 97.033 80.3776C95.9527 80.9037 94.6769 80.8237 93.5002 80.5805C92.3236 80.3374 91.1703 79.9425 89.9708 79.872C88.9434 79.8115 87.9023 79.9957 86.958 80.405C86.3899 80.6513 85.8319 81.0035 85.5407 81.5499C85.2495 82.0963 85.3187 82.87 85.8274 83.223C86.3757 83.6036 87.2578 83.425 87.6409 83.9716C87.8603 84.2847 87.8088 84.7061 87.8966 85.0782Z" fill="#E7EAEE"/>
<path fill-rule="evenodd" clip-rule="evenodd" d="M103.532 49.6839C105.985 54.077 109.107 57.2137 107.119 59.2085C105.395 60.938 105.997 57.9291 104.041 57.2834C102.742 56.8549 99.972 57.7388 97.5474 57.6371C94.2073 57.4971 93.7447 59.6973 91.2578 59.5803C87.3877 59.3984 82.1211 56.8584 80.5025 56.2332C78.5593 55.4826 79.1413 52.8816 80.5025 51.6482C81.0037 51.194 82.6452 52.5231 82.8265 51.9147C83.5003 49.6541 82.0388 47.6369 83.1545 47.335C83.6676 47.1962 85.54 47.8087 86.2489 48.5351C87.0814 49.388 87.9192 50.6573 89.6389 50.1413C92.8232 49.1859 92.4142 47.1039 94.9028 47.1039C97.3914 47.1039 100.644 48.9269 102.211 49.4633C103.778 49.9996 101.08 45.2908 103.532 49.6839Z" fill="#E7EAEE"/>
<path fill-rule="evenodd" clip-rule="evenodd" d="M78.2431 71.838C78.5686 72.8082 79.2364 73.6578 79.9927 74.3472C80.7004 74.9923 81.8282 75.5423 81.6875 76.4895C83.09 75.0071 85.1877 74.2121 87.2205 74.3924C87.9099 74.4536 88.5871 74.6198 89.2771 74.6734C91.8117 74.8704 94.1899 73.555 96.3908 72.2825C97.9715 71.3687 99.5521 70.4549 101.133 69.541C101.499 68.7798 101.216 67.8292 100.65 67.2019C100.084 66.5747 99.2881 66.2096 98.4997 65.906C97.6453 65.5769 96.7554 65.2971 95.84 65.2784C94.9466 65.2601 93.7778 65.3379 93.455 64.5047C93.0267 63.3989 91.9811 62.5563 90.8096 62.3726C89.6381 62.1889 88.3849 62.6712 87.6387 63.5928C86.8664 64.5467 85.6041 64.9137 84.4508 65.3336C83.0534 65.8424 81.7102 66.4994 80.4507 67.2901C79.3948 67.9531 78.3027 68.878 78.2431 70.1234C78.2177 70.6531 78.0743 71.3352 78.2431 71.838Z" fill="#E7EAEE"/>
<path fill-rule="evenodd" clip-rule="evenodd" d="M81.541 43.872C83.2006 44.3456 84.756 42.7979 86.4722 42.6154C87.8744 42.4664 89.2603 43.248 90.6574 43.0574C91.1619 42.9886 91.7574 42.5184 91.4918 42.084C91.3368 41.8304 90.9872 41.7995 90.69 41.7966C89.0747 41.7808 87.4593 41.765 85.844 41.7492C85.3187 41.7441 84.749 41.7238 84.3413 41.3926C83.4925 40.7031 82.459 40.2808 81.4168 39.9499C79.9915 39.4973 78.5171 39.1974 77.0272 39.0696C75.4006 38.9301 73.7565 38.9962 72.1464 39.2656C71.5147 40.0859 70.883 40.9062 70.2513 41.7264C69.4758 42.7334 68.436 43.8524 67.1822 43.6446C65.546 43.3734 63.826 43.6342 62.3438 44.3782C63.8344 43.8858 65.4848 43.891 66.9722 44.3931C67.9165 44.7117 68.7898 45.2215 69.7443 45.508C72.1175 46.2204 74.6662 45.4792 76.9857 44.6075C78.4522 44.0564 80.0345 43.4421 81.541 43.872Z" fill="#E7EAEE"/>
<path d="M109.703 62.5855C109.741 62.9127 109.95 63.1918 110.162 63.4442C111.23 64.7168 112.603 65.792 114.209 66.2178C117.181 67.0057 120.375 65.3827 122.316 62.998C124.256 60.6132 125.198 57.5904 126.06 54.6393C126.309 53.7874 126.679 52.8058 127.534 52.5671C128.458 52.309 129.228 51.5555 129.505 50.6371C129.783 49.7186 129.559 48.665 128.933 47.9384C128.224 47.1168 126.697 46.8806 126.157 47.8215C125.947 48.1871 125.434 48.2721 125.034 48.1414C124.633 48.0107 124.308 47.7204 123.969 47.4702C121.868 45.9202 119.065 45.8319 116.454 45.8049C115.628 45.7964 114.791 45.7889 113.988 45.984C112.328 46.3873 110.985 47.6069 109.384 48.2014C107.336 48.9614 104.907 48.5889 103.182 47.2501C105.056 50.2168 106.621 53.3788 107.843 56.6684C107.932 57.329 109.486 60.7224 109.703 62.5855Z" fill="white"/>
<path fill-rule="evenodd" clip-rule="evenodd" d="M67.6799 50.8996C67.2469 49.8465 66.5972 48.6089 65.4593 48.5668C65.1487 48.5552 64.8441 48.6419 64.5377 48.694C62.9039 48.9717 60.8902 46.9175 60.2775 46.751C59.6649 46.5846 58.9224 47.7397 58.1463 48.0865C57.3702 48.4333 56.5554 48.9871 56.4425 49.8296C56.3521 50.5038 56.745 51.212 56.5073 51.8493C56.1699 52.7538 54.8059 52.9081 54.4477 53.8045C54.1345 54.5882 54.7715 55.4089 55.3861 55.9873C56.7567 57.2774 58.3774 58.6396 58.5125 60.5171C58.5631 61.2201 59.2207 61.6973 59.7989 62.1004C61.929 63.5858 63.8138 65.4222 65.3538 67.5131C65.0015 67.0262 65.1856 66.3169 65.5658 65.8513C65.946 65.3858 66.482 65.0791 66.9368 64.6862C67.8277 63.9163 68.4022 62.8187 69.3425 62.11C70.5263 61.2178 72.0895 61.0767 73.5486 60.8157C75.0078 60.5547 76.5869 60.0332 77.3145 58.7418C77.3854 58.616 77.4482 58.4766 77.4343 58.3329C77.3947 57.9252 76.8537 57.8331 76.5098 57.6106C75.865 57.1935 75.9122 56.2604 75.6908 55.5251C75.3686 54.4551 74.3629 53.7024 73.293 53.38C72.2231 53.0577 71.0825 53.0949 69.9659 53.135C68.8279 53.1758 68.1129 51.9527 67.6799 50.8996Z" fill="#E7EAEE"/>
<path d="M177.897 120.266C177.772 120.374 177.65 120.1 177.745 119.965C177.879 119.926 177.923 120.14 177.892 120.276L177.897 120.266Z" fill="black"/>
<path fill-rule="evenodd" clip-rule="evenodd" d="M129.796 93.6413C129.043 93.9245 128.126 93.6914 127.599 93.0832C127.331 92.7736 126.815 92.9616 126.51 93.2342C126.204 93.5069 125.903 93.8688 125.494 93.8662C125.074 93.8636 124.754 93.4444 124.708 93.0274C124.663 92.6105 124.82 92.201 124.974 91.811C124.401 91.9202 123.798 92.0278 123.243 91.8469C122.688 91.666 122.214 91.0903 122.361 90.5252C122.414 90.3184 122.543 90.138 122.69 89.9834C123.178 89.471 123.913 89.2052 124.616 89.287C124.959 89.3267 125.078 88.8443 125.049 88.5009C124.993 87.8468 124.888 87.1745 125.071 86.5441C125.255 85.9138 125.839 85.3377 126.489 85.424C127.315 85.5335 127.662 86.531 127.754 87.3591C127.785 87.642 128.021 88.0295 128.241 87.8497C128.95 87.2718 130.083 87.3042 130.758 87.9218C131.019 88.1602 131.218 88.4944 131.2 88.8471C131.179 89.258 130.872 89.6015 130.531 89.8308C130.189 90.0602 129.799 90.2121 129.467 90.4547C130.19 90.9393 130.95 91.6676 130.801 92.5255C130.712 93.0417 130.287 93.4568 129.796 93.6413ZM126.602 90.8512C126.62 90.9347 126.638 91.0182 126.656 91.1017C126.051 91.4054 125.864 92.1638 125.744 92.8298C125.924 92.9657 126.175 92.7889 126.304 92.6035C126.587 92.1978 126.72 91.7097 126.928 91.2608C127.135 90.812 127.457 90.3703 127.932 90.2325C128.129 90.1752 128.339 90.1753 128.54 90.1356C128.97 90.0511 129.342 89.7927 129.7 89.5405C129.899 89.3997 130.11 89.2445 130.192 89.0143C130.375 88.4994 129.735 87.996 129.198 88.0944C128.66 88.1929 128.271 88.6514 127.955 89.0973C127.639 89.5433 127.321 90.0314 126.819 90.2483C126.674 90.3111 126.507 90.3479 126.358 90.2947C126.208 90.2415 126.094 90.0731 126.144 89.923C126.195 89.7729 126.442 89.7284 126.513 89.8702C126.639 89.8125 126.698 89.6434 126.637 89.5195C125.999 89.6331 125.361 89.7466 124.724 89.8602C124.373 89.9225 124.01 89.9903 123.721 90.1983C123.433 90.4064 123.243 90.7984 123.381 91.1264C124.307 91.7382 125.524 90.5869 126.602 90.8512ZM128.209 90.9129C127.772 90.9969 127.607 91.5839 127.776 91.9956C127.945 92.4074 128.322 92.6876 128.656 92.9813C128.98 93.2655 129.543 93.1341 129.774 92.7708C130.005 92.4075 129.931 91.9046 129.67 91.5622C129.409 91.2199 128.995 91.0218 128.573 90.9326C128.454 90.9073 128.329 90.8898 128.209 90.9129ZM127.042 88.0832C127.017 87.4439 126.953 86.7228 126.457 86.3192C126.305 86.1961 126.111 86.4147 126.05 86.5999C125.893 87.0725 125.821 87.573 125.837 88.0706C125.845 88.3194 125.879 88.5782 126.018 88.7849C126.157 88.9917 126.426 89.1286 126.661 89.0452C127.01 88.921 127.057 88.4537 127.042 88.0832L127.042 88.0832Z" fill="#FFB61D"/>
<path fill-rule="evenodd" clip-rule="evenodd" d="M126.428 37.3929C126.13 37.1857 125.832 36.9784 125.533 36.7712C125.983 36.4475 126.647 36.5425 127.07 36.8999C127.494 37.2573 127.699 37.821 127.736 38.3737C127.765 38.795 127.672 39.2779 127.314 39.5022C126.97 39.7183 126.523 39.6124 126.132 39.4997C125.809 39.4067 125.487 39.3138 125.164 39.2208C124.826 39.1232 124.527 39.4618 124.364 39.7742C124.201 40.0866 124.013 40.4605 123.664 40.5071C123.199 40.5692 122.924 40.0265 122.593 39.6943C121.63 38.727 119.705 39.4209 118.815 38.3852C118.436 37.9441 118.381 37.2765 118.611 36.7424C118.842 36.2083 119.323 35.8068 119.863 35.5922C120.083 35.5051 120.319 35.4428 120.503 35.2957C120.688 35.1486 120.806 34.8804 120.695 34.6721C120.441 34.1971 120.182 33.7064 120.13 33.1704C120.077 32.6345 120.281 32.036 120.756 31.7824C121.216 31.5369 121.809 31.6821 122.215 32.0099C122.62 32.3376 122.874 32.8146 123.088 33.2899C123.149 33.426 123.215 33.5713 123.342 33.6498C123.469 33.7282 123.675 33.6945 123.716 33.551C123.923 32.8248 124.905 32.523 125.576 32.8694C126.247 33.2157 126.586 34.0218 126.564 34.7767C126.556 35.0457 126.507 35.3224 126.356 35.5451C126.25 35.7017 126.1 35.8227 125.95 35.9381C125.5 36.2844 125.028 36.6023 124.538 36.8893C124.517 37.8222 125.272 38.7097 126.196 38.8377C126.51 38.8812 126.885 38.8133 127.034 38.5337C127.257 38.1157 126.817 37.6631 126.428 37.3929ZM124.718 35.8462C125.24 35.7789 125.704 35.3834 125.853 34.8794C126.002 34.3754 125.828 33.7909 125.427 33.4507C125.348 33.3836 125.256 33.3235 125.153 33.3169C125.031 33.3091 124.919 33.3753 124.815 33.4392C124.068 33.9007 123.228 34.5217 123.245 35.4003C123.263 36.3281 122.953 37.2591 122.381 37.9899C122.174 38.2537 122.331 38.6504 122.564 38.8911C122.797 39.1319 123.104 39.3115 123.262 39.6069C123.372 39.813 123.704 39.7872 123.86 39.6134C124.017 39.4396 124.043 39.1879 124.055 38.9544C124.096 38.0811 124.022 37.2025 123.837 36.3481C123.796 36.1595 123.963 35.9807 124.145 35.9181C124.328 35.8555 124.527 35.8709 124.718 35.8462M122.475 36.4309C122.161 36.6041 121.821 36.283 121.515 36.0968C120.666 35.5796 119.444 36.25 119.21 37.2168C119.119 37.5944 119.389 37.9843 119.735 38.1612C120.081 38.338 120.484 38.3522 120.873 38.3628C121.132 38.3699 121.415 38.3696 121.618 38.209C121.752 38.104 121.829 37.9455 121.901 37.7917C122.109 37.3454 122.3 36.8914 122.475 36.4309ZM121.417 32.3393C121.113 32.3211 120.853 32.5999 120.792 32.8989C120.731 33.1979 120.822 33.5059 120.929 33.7915C121.286 34.7399 121.845 35.6118 122.558 36.3324C122.729 35.0379 122.836 33.5402 121.917 32.6133C121.78 32.4754 121.611 32.351 121.417 32.3393V32.3393Z" fill="#E7EAEE"/>
<path fill-rule="evenodd" clip-rule="evenodd" d="M58.2409 66.8833C57.4157 67.3352 56.8844 68.2769 56.9243 69.2169C56.9415 69.6238 57.0123 70.1309 56.6667 70.3464C56.3816 69.3619 56.5153 68.2633 57.0284 67.376C57.155 67.157 57.3115 66.9433 57.5347 66.8242C57.7578 66.705 58.061 66.7054 58.2409 66.8833V66.8833Z" fill="#00160A"/>
<circle cx="123.664" cy="55.633" r="1.05025" fill="#FFB61D"/>
<path fill-rule="evenodd" clip-rule="evenodd" d="M90.4749 88.9078C90.559 88.5487 90.7233 88.1602 91.0667 88.0256C91.8232 87.7292 92.4159 88.8805 93.226 88.9425C93.6685 88.9764 94.0647 88.6732 94.5021 88.5987C95.2272 88.4752 95.9825 89.1189 95.9755 89.8544C95.9696 90.4782 95.5101 91.0224 95.4694 91.6449C95.0599 91.5738 94.6002 91.7416 94.3893 92.0997C94.1783 92.4578 94.2878 92.9886 94.6554 93.1825C95.023 93.3765 95.5636 93.1059 95.5765 92.6905C95.5835 92.4664 95.4574 92.2599 95.4244 92.0381C95.3915 91.8163 95.5314 91.5296 95.7531 91.5633C96.1823 91.8394 96.414 92.3916 96.3105 92.8912C96.2071 93.3909 95.7751 93.8056 95.2716 93.8886C95.117 93.914 94.9523 93.9127 94.8157 93.9892C94.5823 94.12 94.519 94.418 94.4287 94.6697C94.2533 95.1582 93.8733 95.5847 93.3815 95.7502C92.8896 95.9158 92.2938 95.7853 91.9633 95.3851C91.6329 94.9849 91.6378 94.3273 92.0168 93.9728C91.7831 93.8541 91.5433 94.0995 91.3236 94.2423C90.7704 94.6021 89.9445 94.2405 89.7129 93.6225C89.4813 93.0045 89.7634 92.2759 90.2673 91.8497C90.4284 91.7135 90.6329 91.5396 90.569 91.3385C90.3206 90.5563 90.2877 89.7069 90.4749 88.9078ZM92.9002 91.8647C92.7015 92.6885 92.5025 93.5145 92.3988 94.3555C92.368 94.6062 92.3638 94.9036 92.5621 95.06C92.7759 95.2286 93.0981 95.1242 93.3095 94.9525C93.8771 94.4913 94.0008 93.5736 93.5756 92.9786C93.2762 92.5596 93.5485 91.9608 93.9285 91.6132C94.3085 91.2656 94.7981 91.0228 95.0741 90.5881C95.3501 90.1533 95.2346 89.4138 94.7261 89.3328C94.3301 89.2698 93.8962 89.3792 93.6204 89.6702C93.3709 89.9335 93.2767 90.3034 93.1917 90.656C93.0945 91.0589 92.9974 91.4618 92.9002 91.8647ZM92.2075 91.265C92.5805 91.0573 92.6431 90.5384 92.5476 90.1223C92.4383 89.6458 92.1792 89.2048 91.8161 88.8773C91.7299 88.7996 91.631 88.7251 91.5154 88.7141C91.2027 88.6842 91.0553 89.0858 91.0133 89.397C90.9514 89.8553 90.8932 90.3415 91.0814 90.7639C91.2696 91.1863 91.8034 91.4899 92.2075 91.265ZM90.476 93.4826C90.7356 93.801 91.2712 93.6159 91.5416 93.3067C91.8121 92.9974 91.9818 92.5845 92.3355 92.3754C92.4889 92.2848 92.3683 92.0198 92.1925 91.9912C92.0167 91.9626 91.8513 92.0683 91.6916 92.1471C91.3747 92.3033 91.0118 92.3676 90.7232 92.5716C90.4347 92.7756 90.2527 93.2087 90.476 93.4826Z" fill="#FFB61D"/>
<path d="M177.434 115.415C177.571 115.365 177.621 115.603 177.547 115.729C177.408 115.778 177.358 115.54 177.428 115.41L177.434 115.415Z" fill="black"/>
<path fill-rule="evenodd" clip-rule="evenodd" d="M129.505 50.6371C129.861 49.7201 129.559 48.665 128.933 47.9384C128.224 47.1168 126.697 46.8806 126.157 47.8215C125.947 48.1871 125.434 48.2721 125.034 48.1414C124.633 48.0107 124.308 47.7204 123.969 47.4702C121.868 45.9202 119.065 45.8319 116.454 45.8049C115.628 45.7964 114.791 45.7889 113.988 45.984C112.328 46.3873 110.985 47.6069 109.384 48.2014C107.336 48.9614 104.907 48.5889 103.182 47.2501C103.879 48.3546 105.797 51.9248 105.797 51.9248C105.797 51.9248 105.452 50.257 105.968 50.1039C106.916 49.8225 108.122 50.3907 109.054 50.2599C112.525 49.7725 114.363 48.0804 115.712 47.9384C125.034 46.9572 128.582 53.0194 129.505 50.6371Z" fill="#E7EAEE"/>
<path fill-rule="evenodd" clip-rule="evenodd" d="M131.777 104.532C127.079 108.877 122.023 112.894 116.368 115.89C105.347 121.728 92.4533 123.417 80.0309 122.303C67.6085 121.188 55.5697 117.4 43.9777 112.797C40.6994 111.496 70.1758 120.812 93.8016 118.548C116.805 116.343 133.962 102.511 131.777 104.532Z" fill="#E7EAEE"/>
<circle cx="112.26" cy="61.4844" r="1.50035" fill="#FFB61D"/>
<path d="M65.1277 69.7483C65.9169 71.1929 67.2333 72.3106 67.9323 73.8009C68.7687 75.5841 78.9474 91.84 79.3004 91.8986C80.0346 92.0204 81.2913 90.8113 81.1598 91.219C81.1087 91.1393 92.7393 97.5891 90.3774 99.1636C87.6647 100.972 82.0611 102.913 74.9978 102.913C72.2692 102.304 70.5703 99.6561 69.1707 97.2357C64.9306 89.9029 60.68 82.5153 57.8049 74.5477C57.4712 73.6229 57.1178 72.6363 56.3365 72.0395C55.685 71.5419 54.8362 71.397 54.0211 71.3088C51.9805 71.0877 49.9188 71.3079 47.8807 71.4176C45.5018 71.5457 45.5018 70.3747 46.1512 70.0172C47.1426 69.4716 48.2213 69.2601 48.9965 68.5594C47.9062 69.046 47.4957 69.274 46.3117 69.4278C45.1276 69.5815 45.6761 68.6151 45.7337 68.1592C45.5533 68.8694 44.5281 69.3385 43.9581 68.786C43.2172 68.0678 44.2637 66.4332 45.0403 65.9986C45.1726 65.9246 49.5008 63.686 49.8005 63.5049C49.4193 63.4156 45.6141 66.0885 44.3638 65.6856C43.5505 65.4234 44.4036 63.9977 45.1911 63.1077C47.6285 60.3527 46.9835 61.2934 47.8797 60.3863C48.3792 59.8807 49.1877 59.9025 49.8962 59.9591C50.9653 60.0445 55.2618 59.7227 58.8119 62.0568C62.1462 64.249 64.7657 69.0858 65.1277 69.7483Z" fill="white"/>
<path fill-rule="evenodd" clip-rule="evenodd" d="M132.242 13.6924C131.665 13.8494 131.183 14.3188 131.011 14.8917C130.885 15.3111 130.919 15.7601 130.966 16.1955C131.044 16.908 131.175 17.6635 131.662 18.1893C132.191 17.699 132.195 16.8697 132.076 16.1588C132.058 16.0543 132.039 15.9491 132.02 15.8435L132.02 15.8431C131.907 15.2299 131.792 14.6024 132.003 14.0249C132.562 14.9041 132.738 16.0176 132.477 17.0262L134.138 16.342C134.45 16.2135 134.82 16.3982 135.012 16.6752C135.204 16.9522 135.261 17.2981 135.313 17.6312C135.437 18.4247 135.463 19.4312 134.756 19.8124C134.55 19.9235 134.262 20.1703 134.455 20.3029C135.032 20.6996 135.186 21.5825 134.803 22.1694C134.42 22.7563 133.582 22.9781 132.944 22.6883C132.306 22.3985 131.923 21.6508 132.026 20.9576L130.568 21.8913C130.434 21.9769 130.284 22.0662 130.127 22.0407C129.931 22.0088 129.811 21.8149 129.716 21.6403C129.343 20.9518 128.967 20.1117 129.343 19.4247C128.716 19.2649 128.146 18.8419 127.876 18.2542C127.606 17.6664 127.673 16.9201 128.097 16.4318C128.521 15.9435 129.301 15.7815 129.854 16.1167C130.113 16.2736 130.308 15.8377 130.319 15.5352C130.347 14.7103 130.611 13.793 131.34 13.4063C131.675 13.2286 132.236 13.3133 132.242 13.6924ZM133.268 19.1859C133.843 19.5108 134.681 19.165 134.859 18.529C135.038 17.893 134.502 17.1619 133.842 17.1404C133.046 17.1145 132.491 17.9133 132.191 18.65C132.07 18.9453 131.631 18.867 131.348 18.721C131.064 18.5749 130.662 18.4357 130.476 18.6949C130.231 19.0363 129.857 19.2832 129.447 19.3748C129.685 19.5642 129.772 19.8622 129.86 20.1619C129.898 20.2942 129.937 20.4268 129.989 20.5505C130.158 20.9545 130.73 21.2854 131.002 20.9422C131.48 20.3403 132.036 19.8007 132.652 19.3415C132.832 19.207 133.072 19.0752 133.268 19.1859ZM128.995 16.6798C128.699 16.6019 128.395 16.8654 128.339 17.1658C128.282 17.4662 128.414 17.7721 128.591 18.0215C128.671 18.1349 128.763 18.2429 128.88 18.3192C129.179 18.5152 129.578 18.4648 129.912 18.3353C130.046 18.2833 130.175 18.2199 130.305 18.1566L130.305 18.1565C130.498 18.0622 130.69 17.968 130.896 17.9117C130.414 17.3139 129.738 16.8756 128.995 16.6798ZM134.323 21.6905C134.449 21.4392 134.367 21.1237 134.196 20.9008C134.025 20.678 133.778 20.5278 133.537 20.3829L133.143 20.1457C132.991 20.0545 132.811 19.9604 132.647 20.0256C132.372 20.1348 132.423 20.5361 132.529 20.8124C132.681 21.2093 132.861 21.6248 133.211 21.8651C133.562 22.1053 134.132 22.0704 134.323 21.6905ZM103.149 19.1123C103.377 19.3318 103.409 19.7368 103.192 19.9677C102.976 20.1986 102.538 20.1729 102.375 19.9014C102.287 19.7555 102.285 19.5811 102.283 19.4077V19.4073C102.283 19.3529 102.282 19.2985 102.279 19.2452C102.265 19.0219 102.079 18.5064 102.03 18.3878C101.425 17.8924 101.195 17.0768 101.073 16.3045C100.981 15.7275 100.935 15.1159 101.161 14.5774C101.388 14.039 101.965 13.6079 102.537 13.7295C103.199 13.8706 103.517 14.6114 103.73 15.2543C103.904 15.7793 104.018 16.4855 103.546 16.7729C103.465 16.0722 103.368 15.3312 102.929 14.7791C102.65 14.4288 102.076 14.1997 101.778 14.5338C101.65 14.6774 101.62 14.8812 101.605 15.073C101.494 16.5578 102.075 18.0802 103.149 19.1123ZM102.043 22.5693L101.956 22.5827C101.179 22.7029 100.372 22.8277 99.762 22.1277C99.1294 21.4016 98.9088 19.8186 99.2515 19.4058C99.7335 18.8252 100.503 18.4826 101.259 18.5324C101.292 18.6107 101.271 18.7863 101.25 18.9636V18.9637C101.229 19.1444 101.207 19.3268 101.242 19.4096C100.717 19.1369 100 19.3241 99.6761 19.8186C99.6359 19.8799 99.6002 19.9542 99.6222 20.0242C99.7945 20.573 99.9827 21.1447 100.393 21.5474C100.804 21.9501 101.51 22.1143 101.956 21.7507C102.098 21.6344 102.199 21.4794 102.3 21.324C102.381 21.1988 102.463 21.0733 102.567 20.9675C102.799 20.7303 103.27 20.6529 103.416 20.9516C103.063 21.3054 102.729 21.6771 102.413 22.0646C102.338 22.157 102.264 22.2939 102.342 22.3841C102.532 22.605 102.569 22.9048 102.605 23.2011C102.615 23.2834 102.625 23.3655 102.639 23.4455C102.7 23.8135 102.932 24.2315 103.305 24.2224C103.62 24.2148 103.832 23.9085 103.99 23.6361L104.583 22.6121C104.756 22.633 104.868 22.8218 104.864 22.9955C104.861 23.1692 104.772 23.3285 104.683 23.4778C104.409 23.9376 104.107 24.3808 103.78 24.8039C103.68 24.9328 103.565 25.0678 103.406 25.1049C103.242 25.1434 103.072 25.0657 102.931 24.9734C102.163 24.474 101.784 23.4476 102.043 22.5693ZM105.426 16.2088C105.69 16.0762 106.047 16.0797 106.246 16.2975C106.685 17.3602 106.39 18.6833 105.541 19.4584C105.52 19.4767 105.5 19.4951 105.479 19.5135C105.339 19.6384 105.194 19.7673 105.146 19.9459C105.091 20.1509 105.268 20.4201 105.469 20.3531C105.609 20.3064 105.654 20.1487 105.697 19.9991C105.706 19.9668 105.715 19.9348 105.725 19.9045C105.847 19.5281 106.258 19.2688 106.65 19.3196C107.155 19.537 108.176 20.1245 107.983 21.6817C107.81 23.0746 107.122 23.0093 106.876 22.986C106.847 22.9833 106.824 22.9811 106.809 22.982C106.142 23.0207 105.743 22.2948 105.418 21.7045L105.4 21.672C105.247 21.394 104.902 21.0938 104.663 21.3024C104.57 21.3839 104.541 21.5157 104.524 21.6384C104.498 21.8263 104.49 22.037 104.609 22.1846C104.728 22.3322 105.018 22.3307 105.069 22.1478C105.13 22.7022 105.433 23.2378 105.91 23.5264C106.387 23.815 107.035 23.8249 107.491 23.5036C107.821 23.2716 108.025 22.9015 108.176 22.5279C108.314 22.1853 108.419 21.8236 108.427 21.454C108.445 20.5549 107.881 19.7227 107.155 19.1928C106.965 19.0546 106.739 18.8832 106.763 18.6498L106.869 17.6087C106.921 17.1071 106.97 16.5838 106.789 16.1128C106.609 15.6419 106.124 15.2465 105.629 15.3456C105.234 15.4249 104.987 15.7609 104.737 16.1005C104.51 16.4094 104.281 16.7213 103.935 16.8457C103.553 16.9833 103.534 17.5087 103.584 17.9115C103.601 18.047 103.621 18.19 103.706 18.2968C103.791 18.4037 103.965 18.452 104.066 18.3595C104.04 17.7773 104.423 17.2658 104.786 16.8101C104.97 16.5792 105.162 16.3414 105.426 16.2088ZM70.9146 38.7127C71.6605 38.0543 72.6926 37.8373 73.6819 37.7316C77.1565 37.3606 80.7405 38.0921 83.7918 39.7949C83.8515 39.8282 83.9114 39.862 83.9714 39.8959L83.9728 39.8967C84.53 40.2114 85.101 40.534 85.7352 40.5733C85.9342 40.5856 86.1331 40.5692 86.3322 40.5528C86.5062 40.5385 86.6803 40.5242 86.8545 40.529C87.2714 40.5406 87.6608 40.6025 88.0459 40.6638C88.768 40.7787 89.4751 40.8911 90.3201 40.6647C91.5306 40.3405 91.7088 40.6583 91.8375 41.3089C91.9663 41.9594 91.4973 42.6171 90.8946 42.8937C90.2919 43.1704 89.5945 43.1418 88.9397 43.0368C88.7502 43.0064 88.5612 42.97 88.3723 42.9337C87.9083 42.8444 87.4444 42.7551 86.9732 42.7543C86.0409 42.7525 85.1151 43.0911 84.2038 43.4244C82.9158 43.8955 81.6566 44.356 80.4483 43.8305C80.0208 43.6445 79.5289 43.7764 79.0823 43.9102L74.361 45.3247C73.1927 45.6747 71.9846 46.0287 70.7729 45.8896C69.8109 45.7791 68.9232 45.3672 68.0357 44.9553C67.1411 44.5402 66.2467 44.1251 65.2763 44.0189C64.4589 43.9295 63.6308 44.0651 62.807 44.2C61.7582 44.3717 60.7164 44.5423 59.7122 44.246C59.7669 43.9871 60.0497 43.8558 60.2975 43.7631C61.8109 43.1973 63.3494 42.6258 64.9606 42.5044C65.2257 42.4844 65.4964 42.4754 65.7679 42.4664L65.768 42.4663L65.7681 42.4663L65.7682 42.4663L65.7683 42.4663L65.7684 42.4663L65.7685 42.4663L65.7686 42.4663C66.7531 42.4335 67.7492 42.4002 68.5366 41.8439C69.1124 41.437 69.4694 40.8204 69.8278 40.201C70.1402 39.6612 70.4538 39.1194 70.9146 38.7127ZM81.2402 43.2718C82.2193 43.5512 83.1621 43.1271 84.123 42.6949C84.7909 42.3945 85.4677 42.0901 86.1714 42.0153C86.8577 41.9423 87.54 42.0923 88.2217 42.2421C88.9329 42.3984 89.6433 42.5546 90.3567 42.4573C90.8611 42.3884 91.4566 41.9182 91.191 41.4839C91.036 41.2303 90.6865 41.1994 90.3893 41.1964L85.5432 41.1491C85.0179 41.1439 84.4483 41.1236 84.0405 40.7924C83.1917 40.1029 82.1583 39.6806 81.116 39.3497C79.6907 38.8972 78.2163 38.5973 76.7264 38.4695C75.0999 38.33 73.4558 38.396 71.8457 38.6655L69.9505 41.1263C69.1751 42.1332 68.1353 43.2522 66.8814 43.0444C65.2453 42.7732 63.5252 43.034 62.043 43.7781C63.5336 43.2856 65.184 43.2909 66.6715 43.7929C67.1076 43.9401 67.5286 44.128 67.9495 44.3159C68.4398 44.5348 68.9299 44.7537 69.4435 44.9078C71.8168 45.6202 74.3655 44.879 76.6849 44.0073L76.7682 43.976C78.2112 43.4334 79.7622 42.8501 81.2402 43.2718ZM67.7234 63.5036C68.5606 62.4966 69.3748 61.5174 70.6223 61.4701C72.5633 61.3966 74.4689 60.7025 76.0331 59.5509C76.4124 59.2716 76.7903 58.94 76.9275 58.4894C77.0647 58.0387 76.8517 57.4539 76.3921 57.3509C75.5014 57.1512 75.1615 56.2229 74.8272 55.3099C74.7202 55.0175 74.6137 54.7268 74.49 54.462C73.9624 53.3335 72.8627 52.4911 71.6358 52.2757C71.1708 52.194 70.6977 52.1978 70.2243 52.2015C69.8048 52.2048 69.3851 52.2082 68.9705 52.1521C68.0881 52.0327 67.1453 51.5151 66.9839 50.6394C66.5758 48.4252 64.0583 46.8544 61.8901 47.4612C61.2727 47.634 60.7482 47.2362 60.2069 46.8257C59.7797 46.5016 59.3421 46.1697 58.8402 46.1044C58.4039 46.0477 57.9709 46.2031 57.5583 46.356C56.6281 46.7007 55.6727 47.0603 54.9392 47.7283C54.2057 48.3963 53.7379 49.4554 54.0494 50.3973C54.2352 50.9589 53.772 51.5257 53.2825 51.8577C53.1816 51.9262 53.0766 51.9921 52.9712 52.0581L52.9711 52.0582L52.9711 52.0582L52.971 52.0583L52.9709 52.0583L52.9708 52.0584C52.5654 52.3126 52.1548 52.5701 51.9498 52.9923C51.6409 53.6286 51.9244 54.3961 52.3211 54.9817C52.7576 55.626 53.3385 56.2043 53.9143 56.7775C55.0204 57.8787 56.1074 58.9609 56.1152 60.456L49.8953 59.9591C49.1868 59.9024 48.3783 59.8806 47.8788 60.3862C47.5801 60.6886 47.4526 60.7857 47.3251 60.8827C47.0701 61.0768 46.8152 61.271 45.1902 63.1076C44.4027 63.9977 43.5496 65.4234 44.3629 65.6855C45.1835 65.95 47.1047 64.8895 48.436 64.1545L48.4361 64.1545L48.4362 64.1544L48.4364 64.1543C49.1334 63.7696 49.6686 63.4742 49.7996 63.5048C49.5939 63.6291 47.4907 64.7225 46.1487 65.4202L46.1466 65.4213L46.1465 65.4213L46.1464 65.4214C45.5342 65.7397 45.0809 65.9753 45.0395 65.9985C44.2628 66.4331 43.2163 68.0678 43.9572 68.7859C44.5272 69.3384 45.5525 68.8693 45.7328 68.1592C45.7214 68.2491 45.691 68.3588 45.6585 68.4758L45.6585 68.4759C45.5262 68.9526 45.3602 69.5512 46.3108 69.4277C47.3745 69.2896 47.8139 69.0915 48.6829 68.6998L48.6836 68.6995C48.7816 68.6553 48.8851 68.6086 48.9956 68.5593C48.512 68.9965 47.9102 69.2432 47.2852 69.4995C46.9084 69.654 46.5232 69.812 46.1503 70.0172C45.5009 70.3746 45.5009 71.5457 47.8799 71.4176C48.2844 71.3958 48.6899 71.3697 49.0959 71.3435C50.7356 71.2378 52.3847 71.1316 54.0202 71.3087C54.8353 71.397 55.6841 71.5418 56.3356 72.0395C57.1133 72.6335 57.467 73.6137 57.7994 74.5348L57.804 74.5477C60.6791 82.5153 64.9297 89.9028 69.1699 97.2357C70.5694 99.656 72.2683 102.304 74.9969 102.913C67.7663 94.1129 62.0961 84.0341 58.3287 73.2853C57.8926 72.0411 56.7135 71.1737 55.4569 70.7745C54.2003 70.3753 52.857 70.3732 51.5385 70.3746C50.7027 70.3756 50.0235 70.4968 49.3661 70.6141C48.5018 70.7684 47.675 70.9159 46.5795 70.7745C45.6969 70.6606 46.4439 70.3518 47.5046 69.9133C48.5735 69.4715 49.961 68.8979 50.3209 68.2593C49.9064 67.6004 48.886 67.8837 48.2339 68.3089C47.5819 68.7341 45.563 69.3912 46.05 68.5593C46.6532 67.5291 47.7269 66.9722 48.8088 66.411C49.1507 66.2336 49.4934 66.0559 49.8224 65.8626C50.1817 65.6515 49.9121 65.0241 49.4999 64.9622C49.0878 64.9003 48.7085 65.1748 48.3821 65.434C48.0224 65.7198 47.6118 66.1338 47.1878 66.5614C46.1922 67.5653 45.1229 68.6434 44.4663 68.3089C43.0387 67.5814 47.5757 65.1798 50.0887 63.8496L50.0887 63.8496L50.0888 63.8496L50.089 63.8495C50.2526 63.7629 50.4075 63.6809 50.5518 63.6041C49.9814 62.6221 48.4512 63.1057 47.5907 63.8468C47.5459 63.8854 47.5006 63.9246 47.4548 63.9642C46.6228 64.6846 45.6455 65.5309 44.6374 65.1536C44.0381 64.9294 44.9057 64.2174 45.7733 63.5054L45.7733 63.5053C46.2071 63.1493 46.6408 62.7933 46.8913 62.4983C47.312 62.0027 47.7461 61.4959 48.3166 61.1839C49.0144 60.8022 49.8413 60.7522 50.6367 60.745C52.6168 60.7271 54.5989 60.9223 56.5375 61.3263C59.3586 63.1955 61.7977 65.6386 63.6621 68.4628C68.0149 75.0563 72.278 81.7085 76.541 88.3604C76.5896 88.4362 76.6774 88.5813 76.793 88.7723L76.7939 88.7739L76.7967 88.7784L76.7971 88.7792L76.7972 88.7793C77.4233 89.8141 78.8516 92.1746 79.2995 92.2306C79.7951 92.2925 80.3082 91.8792 80.6714 91.5583L98.0951 80.7124C100.928 78.9492 104.062 77.1153 107.371 77.5442C112.731 78.2389 118.169 78.8705 123.526 78.1511C128.883 77.4317 134.23 75.2128 137.701 71.0694C131.429 76.0654 123.195 78.5276 115.21 77.7952C114.123 77.6955 113.028 77.5403 111.931 77.3849C108.623 76.9164 105.304 76.4463 102.183 77.4922C101.38 77.7611 100.566 78.1266 99.7506 78.4929C97.4433 79.5291 95.1226 80.5712 93.0072 79.4488C91.0861 78.4295 88.6826 78.9571 86.7711 79.9944C84.8595 81.0317 82.4519 82.448 84.1258 84.2438C85.7996 86.0396 82.3043 85.2207 80.3527 84.2609C78.4012 83.301 77.9439 79.9526 79.9374 78.5964C79.0451 79.6106 79.0749 81.6424 80.3788 81.9954C81.6828 82.3483 83.0534 81.7048 84.1258 80.8834C85.3396 79.9535 85.1702 78.7566 85.0187 77.6866C84.8568 76.5425 84.7154 75.5435 86.3073 75.1712C87.398 74.9161 88.5223 74.995 89.6482 75.0741C90.6752 75.1462 91.7036 75.2184 92.7091 75.0373C94.3678 74.7386 95.7778 73.7968 97.1967 72.8493C98.0832 72.2572 98.9732 71.6628 99.9293 71.2216C102.417 70.0738 105.236 70.0086 107.985 69.945C108.146 69.9413 108.308 69.9375 108.469 69.9336C113.494 69.8104 118.618 69.3877 123.248 67.4286C127.878 65.4694 131.994 61.739 133.295 56.8832C134.367 52.8862 133.354 48.39 130.671 45.239C127.989 42.088 123.712 40.3701 119.595 40.79C117.445 41.0093 115.367 41.7655 113.302 42.5171C110.469 43.548 107.66 44.5704 104.72 44.1865C100.446 43.6283 97.1656 40.2545 94.2516 37.0777C97.7259 37.6102 101.347 37.1438 104.573 35.7483C106.217 35.0375 107.754 34.0947 109.288 33.1538C111.385 31.8681 113.476 30.5858 115.825 29.9025C121.655 28.2069 128.148 30.6631 132.405 34.9908C136.663 39.3186 138.96 45.2352 140.172 51.1842C140.962 55.0606 141.337 59.0009 141.711 62.9425L141.711 62.9428C141.912 65.0502 142.112 67.1579 142.376 69.2564C142.509 70.3131 142.657 71.3765 142.806 72.4434L142.807 72.4453C143.677 78.6786 144.564 85.0333 142.473 90.8939C140.688 95.8998 136.927 99.9096 133.236 103.734C128.222 108.929 123.055 114.149 116.72 117.613C110.86 120.818 104.242 122.381 97.636 123.37C92.4546 124.146 87.2059 124.59 81.9736 124.321C71.027 123.758 60.5013 120.106 50.2007 116.359C46.4988 115.012 42.6312 113.627 38.7195 114.091C36.7102 114.329 34.7575 115.05 32.8192 115.764C29.9424 116.825 27.0972 117.874 24.1456 117.32C21.4327 116.811 19.2259 115.038 17.0209 113.267C14.783 111.469 12.5471 109.673 9.78577 109.2C12.2543 108.792 14.6881 109.927 17.0804 111.043C19.8432 112.332 22.5508 113.595 25.1929 112.425C34.7994 108.17 45.8452 109.559 56.2484 111.03L69.0388 112.838C70.8319 113.091 72.6066 112.687 74.3896 112.28C75.4388 112.041 76.4909 111.802 77.5512 111.695C80.2985 111.418 83.003 112.037 85.7158 112.658C87.1503 112.986 88.5871 113.315 90.0337 113.512C100.872 114.99 112.276 108.075 115.978 97.7826C116.462 96.4368 116.851 95.0111 117.241 93.583C118.366 89.4627 119.497 85.3224 122.923 83.0215C123.281 82.781 123.665 82.5581 124.051 82.3344L124.051 82.3343C125.265 81.6309 126.491 80.9208 126.932 79.6379C123.689 80.7015 120.855 82.9667 119.104 85.8957C117.872 87.9556 117.188 90.2651 116.503 92.5771C116.189 93.6343 115.876 94.6921 115.51 95.7267C112.131 105.282 102.914 113.263 92.7969 112.665C90.7612 112.544 88.7583 112.096 86.7586 111.648C84.2577 111.088 81.7618 110.529 79.213 110.615C77.7912 110.662 76.3889 110.91 74.9859 111.158L74.9858 111.158C73.8407 111.361 72.695 111.564 71.5378 111.657C67.7295 111.966 63.9357 111.091 60.215 110.223C68.5938 108.157 77.0846 106.544 85.6376 105.395C91.9336 104.549 99.186 103.387 102.41 97.9131C104.709 94.009 108.452 91.3079 112.191 88.6091C116.011 85.852 119.828 83.0972 122.1 79.0644C111.314 89.8927 95.78 99.1985 73.3834 103.774C73.2283 103.804 73.0755 103.835 72.925 103.866C73.0781 103.836 73.2309 103.805 73.3834 103.774C74.9317 103.472 76.7028 103.239 78.6295 102.985L78.6297 102.985C86.0423 102.009 95.7582 100.729 103.95 94.0836C102.543 97.287 100.027 99.9905 96.9323 101.623C94.1848 103.073 91.0806 103.669 88.0285 104.248L69.0511 107.845C63.1781 108.959 57.2203 110.077 51.2614 109.603C49.6066 109.472 47.9545 109.218 46.3042 108.964L46.304 108.964C43.0963 108.47 39.8954 107.978 36.695 108.388C34.6036 108.656 32.5935 109.301 30.581 109.947L30.5809 109.947C29.3346 110.347 28.0873 110.747 26.8193 111.058C23.5035 111.872 19.7432 111.993 16.9385 110.047C11.3961 106.199 2.57634 108.794 0 115.03C2.94376 111.466 8.26417 110.097 12.5623 111.797C14.3173 112.491 15.87 113.623 17.4156 114.749C19.3926 116.189 21.3579 117.621 23.72 118.119C26.9308 118.796 30.178 117.615 33.3915 116.446C36.9956 115.135 40.5573 113.84 43.9777 115.198C55.5697 119.8 67.6086 123.588 80.031 124.703C92.4533 125.818 105.347 124.129 116.368 118.291C122.023 115.295 127.079 111.277 131.777 106.933C136.207 102.835 140.453 98.2675 142.605 92.6298C144.975 86.4179 144.579 79.5413 144.148 72.9063C143.364 60.8314 142.394 48.1696 135.856 37.9874C133.661 34.5678 130.811 31.473 127.214 29.5828C123.616 27.6926 119.206 27.1231 115.44 28.6503C113.358 29.4946 111.49 30.7498 109.618 32.0065C108.593 32.6953 107.567 33.3845 106.504 34.0069C102.468 36.3713 97.6934 37.3614 93.2037 36.0492C91.5288 35.5597 89.9442 34.8212 88.3593 34.0825C86.854 33.381 85.3484 32.6793 83.7648 32.1907C80.7715 31.267 77.5817 31.1331 74.4589 31.3796C62.3833 32.3328 50.8661 39.2566 44.5935 49.6191C38.3209 59.9817 37.5618 73.5421 42.8838 84.4235C48.2057 95.3049 59.5264 103.077 71.6138 103.866C70.1133 102.936 68.3733 102.587 66.6259 102.236L66.6258 102.236C65.6396 102.039 64.651 101.84 63.7019 101.537C61.0712 100.695 58.4269 98.2883 59.0895 95.6069C59.6579 93.3071 57.6219 91.1944 55.5652 90.0186C55.1648 89.7897 54.7506 89.5702 54.3348 89.3499L54.3347 89.3498C52.6145 88.4383 50.8658 87.5117 49.9475 85.8396C47.9693 82.2373 51.0527 78.0317 53.9237 75.0912C50.7297 76.925 48.355 80.1307 47.5314 83.7203C49.452 87.0513 52.519 89.7069 56.0906 91.1311C57.9242 93.5238 58.8148 96.6199 58.5327 99.6211C48.0802 93.2365 40.9583 81.6917 39.9426 69.4857C39.7001 66.5717 39.8065 63.5365 41.0287 60.8801C43.768 54.9258 46.5821 48.8741 50.9849 44.019C57.6555 36.663 67.8562 32.6624 77.7491 33.5225C87.642 34.3826 96.9992 40.0836 102.3 48.4804C100.367 47.4133 98.369 46.325 96.1745 46.0778C93.9799 45.8307 91.5142 46.6321 90.443 48.5634C89.632 50.0256 87.422 48.87 86.2539 47.6736C85.0858 46.4773 82.7112 45.5211 82.116 47.0836L82.7123 50.5028C80.4427 49.3835 77.6844 52.7732 79.2417 54.7679C79.7706 55.4453 80.5722 55.8419 81.3457 56.2164C85.6778 58.3135 90.7215 60.4374 95.121 58.4854C97.3785 57.4838 99.8569 56.9836 102.326 57.0311C102.921 57.0426 103.542 57.0931 104.052 57.3999C104.451 57.6401 104.739 58.0093 105.029 58.3804L105.029 58.3804C105.223 58.6298 105.418 58.8801 105.649 59.0926C106.221 59.6212 107.31 59.795 107.663 59.1002C108.593 60.7592 109.541 62.4719 109.777 64.3591C110.013 66.2463 109.366 68.3741 107.73 69.3445C106.094 70.3149 103.517 69.4974 103.189 67.624C102.876 65.8379 101.042 65.3862 99.1202 64.9128C97.493 64.5119 95.8025 64.0955 94.9183 62.8405C93.9898 61.5225 92.0833 61.2577 90.532 61.6965C89.3955 62.018 88.3789 62.6319 87.3626 63.2456C86.9917 63.4696 86.6208 63.6936 86.2442 63.9033C85.6461 64.2363 85.0246 64.5386 84.4032 64.8408L84.4031 64.8409C82.8328 65.6046 81.2632 66.368 80.0752 67.6252C78.4169 69.38 77.9568 72.6184 79.9374 73.9992C80.6779 74.5154 86.2442 79.0644 83.1832 80.6062C78.6201 82.9046 79.8707 78.7985 80.3516 78.0685C78.1501 78.3308 77.1452 81.3978 78.3385 83.2663C79.5318 85.1349 82.2043 86.3014 84.3728 85.8396C85.4469 85.6108 85.1311 85.0361 84.759 84.3592C84.3799 83.6695 83.9425 82.8735 84.857 82.229C84.6817 82.8951 85.3451 83.1248 86.0802 83.3793C86.6556 83.5786 87.2749 83.793 87.5706 84.2438C88.1038 85.0569 87.2762 86.0605 86.5228 86.6752L80.9897 91.1894C80.9148 91.2293 80.8197 91.288 80.7114 91.3549L80.7111 91.3551C80.3069 91.6046 79.7183 91.968 79.2995 91.8985C78.9465 91.84 75.2512 85.3694 74.5003 82.0453C74.4137 81.6621 74.3462 81.2687 74.2789 80.8761L74.2788 80.8759L74.2788 80.8756L74.2788 80.8754L74.2787 80.8752L74.2787 80.875L74.2786 80.8747L74.2786 80.8745L74.2785 80.8743C74.0352 79.4559 73.7938 78.0482 72.664 77.1707C72.1012 76.7335 71.4356 76.405 70.7757 76.0793C69.6116 75.5048 68.4652 74.9389 67.9314 73.8009C67.5559 73.0003 67.0022 72.3072 66.4478 71.6133L66.4478 71.6132C65.9702 71.0154 65.492 70.4168 65.1268 69.7483C64.3376 68.3037 64.3169 66.1444 65.7619 65.3559C66.5333 64.935 67.134 64.2124 67.7234 63.5036ZM63.9595 48.2668C65.0974 48.3089 65.7471 49.5465 66.1801 50.5996C66.6131 51.6527 67.3281 52.8758 68.466 52.835C69.5827 52.7949 70.7233 52.7577 71.7932 53.08C72.8631 53.4024 73.8688 54.1551 74.1909 55.2251C74.2528 55.4305 74.2937 55.6513 74.3345 55.872C74.44 56.4414 74.5453 57.01 75.01 57.3106C75.109 57.3747 75.2244 57.428 75.3395 57.4811C75.6239 57.6123 75.9062 57.7426 75.9345 58.0329C75.9484 58.1766 75.8855 58.316 75.8147 58.4418C75.0871 59.7332 73.5079 60.2547 72.0488 60.5157C71.8385 60.5533 71.6261 60.5884 71.4129 60.6237C70.147 60.8329 68.8559 61.0464 67.8427 61.81C67.3357 62.1921 66.9351 62.6873 66.5339 63.1832C66.1909 63.607 65.8475 64.0314 65.437 64.3862C65.2787 64.5229 65.1105 64.6493 64.9426 64.7755L64.9425 64.7755C64.6279 65.0119 64.3138 65.2479 64.066 65.5513C63.6858 66.0169 63.5017 66.7262 63.854 67.2131C62.3139 65.1222 60.4292 63.2858 58.299 61.8004C57.7209 61.3973 57.0633 60.9201 57.0127 60.2171C56.8881 58.4862 55.5009 57.1933 54.211 55.991L54.2106 55.9906C54.1015 55.8889 53.9931 55.7879 53.8863 55.6873C53.2717 55.1089 52.6347 54.2882 52.9479 53.5045C53.1256 53.0597 53.551 52.7976 53.9757 52.536C54.4069 52.2703 54.8375 52.005 55.0075 51.5493C55.1416 51.1897 55.0749 50.8075 55.0076 50.4215C54.9556 50.1235 54.9033 49.8234 54.9426 49.5296C55.0098 49.0283 55.2144 48.8978 55.7232 48.5728C56.0696 48.3517 56.5569 48.0406 57.2379 47.4612C58.2709 46.5824 59.7466 47.2461 61.0242 47.8207C61.8263 48.1814 62.5503 48.5071 63.0378 48.394C63.3392 48.3242 63.6489 48.2552 63.9595 48.2668ZM71.9589 77.4924C72.6849 78.3194 73.443 79.2148 73.5875 80.3057C73.6611 80.8616 73.5629 81.439 73.3097 81.9393L70.0271 76.8251C69.9917 76.7698 69.9549 76.7022 69.9814 76.6421C70.0244 76.5443 70.1696 76.5745 70.266 76.6206L71.6151 77.2667C71.7397 77.3263 71.8678 77.3886 71.9589 77.4924ZM106.51 52.2075C106.48 52.482 106.578 52.7675 106.77 52.9662C107.02 53.0917 107.284 52.9708 107.553 52.848L107.553 52.8479C107.678 52.7908 107.804 52.7332 107.93 52.6999C108.161 52.6388 108.404 52.6619 108.642 52.6855L111.558 52.9749C111.737 52.697 111.37 52.3889 111.058 52.2786C109.603 51.7638 107.98 51.7384 106.51 52.2075ZM122.4 57.4621C121.214 59.2825 119.357 60.6555 117.269 61.2569L117.25 61.7251C119.576 61.2058 121.689 59.784 123.046 57.8244C123.202 57.5986 123.33 57.2466 123.106 57.0884C122.861 56.916 122.564 57.2113 122.4 57.4621ZM117.71 52.8249C117.425 52.7457 117.041 52.6723 116.903 52.9335C117.398 53.3836 117.954 53.8594 118.623 53.8795C119.102 53.8939 119.551 53.6688 119.976 53.4494C120.977 52.9334 121.987 52.4115 122.854 51.6924C122.821 51.3889 122.425 51.2477 122.135 51.3449C121.895 51.4256 121.71 51.6085 121.528 51.7888L121.473 51.8422C121.454 51.861 121.435 51.8796 121.416 51.8981C120.452 52.817 118.993 53.1818 117.71 52.8249ZM115.053 59.0085C115.13 59.1359 115.226 59.271 115.371 59.3045C115.475 59.3284 115.582 59.2946 115.683 59.2613L117.26 58.7403C117.26 58.5542 117.061 58.4253 116.876 58.4068C116.773 58.3965 116.669 58.4087 116.565 58.421C116.483 58.4307 116.402 58.4404 116.32 58.4391C115.688 58.4291 115.25 57.789 115.092 57.1776C115.037 56.9647 115.001 56.7455 114.966 56.5267C114.899 56.1173 114.833 55.7093 114.64 55.3456C114.277 55.3281 114.144 55.8203 114.168 56.1836C114.231 57.1779 114.538 58.1559 115.053 59.0085ZM110.573 55.5248C110.943 55.1248 111.497 54.5927 111.921 54.936C111.2 56.3487 109.629 57.2833 108.044 57.2427C108.921 58.9005 109.487 60.7224 109.704 62.5854C109.742 62.9127 109.951 63.1917 110.163 63.4441C111.231 64.7167 112.604 65.7919 114.21 66.2177C117.182 67.0056 120.376 65.3827 122.317 62.9979C124.257 60.6131 125.199 57.5903 126.061 54.6393C126.31 53.7874 126.68 52.8058 127.535 52.567C128.459 52.309 129.229 51.5555 129.506 50.637C129.784 49.7186 129.56 48.665 128.934 47.9383C128.225 47.1167 126.698 46.8805 126.158 47.8214C125.948 48.1871 125.435 48.272 125.035 48.1413C124.71 48.0355 124.436 47.8252 124.163 47.6162C124.099 47.567 124.035 47.5178 123.97 47.4701C121.869 45.9201 119.066 45.8318 116.455 45.8048C115.629 45.7963 114.792 45.7888 113.989 45.9839C113.054 46.2112 112.219 46.6974 111.383 47.1851C110.734 47.563 110.084 47.9417 109.385 48.2013C107.337 48.9613 104.908 48.5888 103.183 47.2501C105.057 50.2168 106.622 53.3788 107.843 56.6683C108.86 56.6994 109.882 56.2713 110.573 55.5248ZM82.6715 47.2378C82.7802 47.5871 82.9417 47.9209 83.1027 48.2536C83.3543 48.7737 83.6047 49.2912 83.6502 49.8614C83.725 50.7963 82.7446 51.8661 81.9523 51.3641C81.1299 50.8431 79.9157 51.3321 79.5322 52.227C79.1488 53.1218 79.5119 54.2226 80.2429 54.8656C80.7946 55.3508 81.5064 55.6053 82.1996 55.849C83.0375 56.1436 83.9815 56.5408 84.9617 56.9532C87.4359 57.9943 90.1411 59.1326 91.9544 58.9634C92.8626 58.8786 94.5547 57.8868 95.1307 57.5295C96.2293 56.8482 97.5018 56.139 98.7449 56.4934C100.311 56.9398 102.036 56.8027 103.511 56.1146C104.231 55.779 104.898 56.6595 105.193 57.3969C105.488 58.1343 106.075 59.0426 106.828 58.7895C107.243 58.6499 107.466 58.1727 107.453 57.7348C107.44 57.297 107.243 56.8883 107.05 56.495L103.548 49.3482C102.614 49.6099 101.785 49.0679 100.931 48.5101C100.351 48.1307 99.7589 47.744 99.1151 47.5978C98.7921 47.5244 98.4597 47.514 98.1274 47.5036C97.7816 47.4928 97.4359 47.4819 97.1011 47.4002C96.7427 47.3127 96.4084 47.1467 96.0751 46.9812C95.6687 46.7794 95.2637 46.5783 94.8175 46.5207C93.8598 46.3971 92.9459 46.9652 92.2483 47.6329C92.0191 47.8522 91.8017 48.0856 91.5845 48.3189C91.1408 48.7954 90.6976 49.2713 90.1548 49.6258C89.3464 50.1539 88.1995 50.3435 87.4506 49.734C87.1609 49.4983 86.9675 49.1762 86.7735 48.8532C86.6776 48.6934 86.5815 48.5334 86.4735 48.3835C85.642 47.2288 84.0025 46.7347 82.6715 47.2378ZM79.5679 71.5609C79.8935 72.531 80.5613 73.3806 81.3176 74.07C81.4828 74.2207 81.671 74.3661 81.8606 74.5127C82.4828 74.9937 83.1202 75.4864 83.0123 76.2124C84.4149 74.73 86.5126 73.9349 88.5454 74.1153C88.8782 74.1448 89.2082 74.1988 89.5381 74.2528C89.8916 74.3107 90.2451 74.3685 90.602 74.3963C93.1366 74.5932 95.5148 73.2778 97.7157 72.0054L102.458 69.2639C102.824 68.5026 102.54 67.552 101.975 66.9248C101.409 66.2976 100.613 65.9324 99.8246 65.6288C98.9701 65.2997 98.0803 65.02 97.1649 65.0012C97.0781 64.9995 96.9888 64.9986 96.898 64.9977C96.0526 64.9895 95.0713 64.9799 94.7799 64.2275C94.3515 63.1217 93.306 62.2791 92.1345 62.0954C90.963 61.9118 89.7098 62.394 88.9636 63.3157C88.2742 64.1671 87.1946 64.5509 86.1505 64.9221L86.1501 64.9223C86.0245 64.967 85.8995 65.0114 85.7757 65.0565C84.3783 65.5652 83.035 66.2223 81.7756 67.013C80.7197 67.676 79.6276 68.6008 79.5679 69.8462C79.5614 69.9835 79.5469 70.131 79.5319 70.283C79.4892 70.7175 79.443 71.1884 79.5679 71.5609ZM127.306 64.105C129.278 62.5673 131.005 60.6516 132.022 58.3667C133.039 56.0818 133.294 53.4029 132.411 51.0634C131.885 49.6722 130.987 48.4514 129.997 47.3416C128.279 45.415 126.03 43.6807 123.448 43.6447C122.588 43.6327 121.737 43.8122 120.895 43.9907L116.012 45.0262C118.778 44.9746 121.554 45.4254 124.162 46.3503L124.183 46.3578C124.77 46.5661 125.412 46.7937 125.994 46.5753C127.423 46.0388 129.19 46.6342 130.003 47.9261C130.816 49.2179 130.589 51.0684 129.487 52.1249C129.264 52.3384 129.013 52.5198 128.763 52.7011C128.486 52.9016 128.209 53.102 127.97 53.3457C127.256 54.0736 126.965 55.0909 126.682 56.0797C126.649 56.1936 126.616 56.307 126.583 56.4196C124.895 62.1761 120.49 67.4442 114.622 68.6926C119.191 68.5467 123.701 66.9156 127.306 64.105ZM121.98 43.3542C123.475 43.1891 125.028 43.0388 126.45 43.5266C127.752 43.9729 128.817 44.9102 129.844 45.8254L131.331 47.1497C129.114 43.6171 125.017 41.3449 120.846 41.3345C118.841 41.3294 116.86 41.8109 114.971 42.4828C114.37 42.6965 113.776 42.9296 113.182 43.1627C112.979 43.2422 112.777 43.3217 112.574 43.4004C110.367 44.257 108.08 45.0316 105.713 45.0894C103.347 45.1471 100.86 44.3937 99.2964 42.6166C99.2273 42.5382 99.1592 42.4572 99.0908 42.376C98.7576 41.9801 98.4178 41.5764 97.9349 41.4161C99.3197 43.201 100.733 45.0139 102.583 46.3115C104.432 47.6091 106.816 48.3372 108.984 47.7013C109.966 47.4134 110.838 46.8717 111.712 46.3293C112.11 46.0823 112.508 45.8352 112.916 45.6118C115.667 44.1085 118.864 43.6983 121.98 43.3542ZM88.4964 84.7782C88.5842 85.1503 88.9984 85.5229 89.3122 85.3046C90.9517 84.1639 92.5972 83.0195 94.3733 82.106C94.5642 82.0078 94.7573 81.9118 94.9508 81.8155L94.951 81.8155C95.9169 81.3351 96.8907 80.8508 97.6328 80.0777C96.5526 80.6038 95.2767 80.5238 94.1001 80.2806C93.7246 80.203 93.3514 80.1099 92.9784 80.0169L92.9779 80.0168C92.1823 79.8183 91.3872 79.62 90.5707 79.572C89.5432 79.5116 88.5022 79.6958 87.5578 80.1051C86.9898 80.3513 86.4317 80.7035 86.1405 81.2499C85.8494 81.7963 85.9185 82.57 86.4272 82.923C86.6637 83.0872 86.9624 83.1473 87.2563 83.2065C87.6437 83.2845 88.0229 83.3608 88.2408 83.6717C88.3859 83.8787 88.4125 84.1332 88.4393 84.3895C88.453 84.5206 88.4667 84.6522 88.4964 84.7782ZM113.191 67.1984C112.73 66.9212 112.357 66.5224 111.99 66.1289L110.19 64.1977L110.4 67.3921C110.42 67.7009 110.44 68.0191 110.341 68.3126C110.243 68.6061 109.997 68.8723 109.688 68.8971C109.526 68.9102 109.522 69.1812 109.662 69.2648C109.802 69.3484 109.98 69.3021 110.135 69.2536L114.38 67.9306C114.643 67.8486 114.915 67.7618 115.121 67.5784C114.459 67.6802 113.764 67.5433 113.191 67.1984ZM122.176 48.7548C120.772 48.6616 119.374 48.949 117.997 49.2348C117.636 49.3096 117.273 49.3853 116.935 49.5306C116.147 49.8697 115.567 50.5519 115.018 51.2112C114.936 51.3091 114.849 51.4222 114.863 51.549C114.885 51.7646 115.189 51.8411 115.379 51.7362C115.536 51.6492 115.636 51.4924 115.733 51.3383C115.753 51.3067 115.773 51.2753 115.793 51.2446C116.516 50.1532 117.938 49.8182 119.224 49.5712C120.312 49.362 121.434 49.1525 122.522 49.3654C122.712 49.4026 122.819 49.1081 122.702 48.9539C122.585 48.7998 122.369 48.7677 122.176 48.7548Z" fill="#00160A"/>
</svg>
