<svg width="142" height="130" viewBox="0 0 142 130" fill="none" xmlns="http://www.w3.org/2000/svg">
<path fill-rule="evenodd" clip-rule="evenodd" d="M78.4528 0C115.218 0 122.958 50.9511 123.108 51.3703C123.263 51.8023 123.409 52.2469 123.55 52.6784C123.837 53.5547 124.206 54.3985 124.493 55.269C124.668 55.8002 124.991 56.2401 125.207 56.7416C125.626 57.6999 126.14 58.6142 126.741 59.4709C126.988 59.8103 127.183 60.1852 127.318 60.583C127.413 60.8873 127.728 60.9687 127.863 61.2373C128.083 61.6722 128.376 62.0696 128.629 62.4872C128.687 62.634 128.819 62.7384 128.976 62.7603L128.926 63.1748C129.018 63.3242 129.049 63.1222 129.145 63.1578C129.265 63.3196 129.437 63.4633 129.454 63.7096C129.47 63.9411 129.74 63.9629 129.833 64.1649C130.035 64.6033 130.599 64.8268 130.591 65.402C130.996 65.6565 131.196 66.0934 131.502 66.4363C131.659 66.5941 131.755 66.802 131.773 67.0227L131.776 67.0738C131.773 67.2932 132.197 67.2439 132.083 67.5433C132.732 68.0302 132.9 68.8256 133.243 69.4845C133.792 70.5419 134.425 71.5634 134.798 72.7212C134.985 73.3004 135.347 73.8482 135.549 74.4347C136.002 75.7529 136.546 77.0425 136.84 78.4153C136.962 78.9824 137.21 79.5226 137.326 80.0913L137.46 80.7485C137.659 81.7349 137.848 82.7236 137.974 83.7231C138.038 83.9486 138.038 84.1876 137.974 84.4131C137.866 84.6697 138.153 84.834 138.176 85.0914C138.205 85.3968 138.083 85.6861 138.171 86.0102C138.219 86.1889 138.171 86.4758 138.226 86.6831C138.407 87.3571 138.178 88.0521 138.375 88.7214C138.406 88.9802 138.378 89.2425 138.295 89.4894C138.159 90.3134 138.408 91.155 138.16 91.9596C138.044 92.3564 138.021 92.7743 138.095 93.1804L138.125 93.337C138.147 93.453 138.162 93.566 138.105 93.6441C137.879 93.9531 137.937 94.3175 137.892 94.6555L137.883 94.7115C137.818 95.09 137.885 95.4867 137.771 95.8722C137.615 96.2497 137.527 96.6518 137.512 97.0599C137.57 97.7519 137.337 98.3729 137.194 99.0153C137.123 99.3362 137.182 99.7178 136.829 99.9566C136.649 100.078 137.073 100.314 136.816 100.492L136.786 100.51C136.597 100.617 136.605 100.789 136.659 100.994C136.707 101.183 136.378 101.313 136.473 101.505C136.567 101.698 136.609 101.978 136.499 102.013C136.224 102.103 136.504 102.402 136.273 102.459C136.251 102.471 136.235 102.493 136.231 102.519C136.152 103.241 135.687 103.835 135.572 104.557C135.484 104.988 135.316 105.399 135.076 105.768C134.878 106.125 134.709 106.497 134.572 106.881C134.313 107.527 133.872 108.066 133.623 108.709C133.555 108.883 133.104 108.825 133.334 109.182C133.071 109.275 133.151 109.547 133.045 109.717C132.928 109.846 132.793 109.955 132.643 110.043C132.546 110.425 132.36 110.78 132.1 111.077C131.646 111.741 131.15 112.376 130.615 112.978L130.174 113.472C129.584 114.131 128.975 114.776 128.197 115.23C127.998 115.347 128.089 115.568 127.924 115.688C126.971 116.392 126.093 117.19 125.008 117.724C124.554 117.947 124.165 118.344 123.701 118.577C122.822 119.018 122.005 119.567 121.065 119.911L120.898 119.97C120.298 120.169 119.709 120.471 119.101 120.69C117.852 121.181 116.548 121.52 115.218 121.699L114.397 121.79C113.668 121.871 112.937 121.945 112.2 121.965C111.852 121.975 111.517 121.864 111.198 121.904C110.887 121.943 110.571 121.918 110.271 121.829C110.033 121.763 109.832 121.967 109.577 121.858C109.38 121.735 109.137 121.716 108.925 121.806L108.884 121.825C108.762 121.896 108.524 121.766 108.339 121.724C108.07 121.687 107.805 121.621 107.549 121.529C107.351 121.437 107.098 121.732 106.96 121.419C106.709 121.613 89.6765 117.566 74.0302 125.785C72.756 126.629 71.265 127 69.9035 127.655C69.2706 127.961 68.5591 128.1 67.8777 128.309L67.7322 128.355C66.5296 128.743 65.2962 129.009 64.0647 129.286C62.9331 129.531 61.7866 129.701 60.6327 129.796C59.803 129.871 58.9695 129.906 58.1418 129.996C57.8062 130.033 57.4771 129.796 57.1488 129.999C56.4108 129.798 55.6362 130.042 54.9003 129.815C54.4109 129.96 53.9511 129.78 53.5012 129.648C53.1579 129.546 52.8344 129.757 52.4875 129.608C52.1717 129.443 51.818 129.364 51.4621 129.38C50.8713 129.47 50.357 129.254 49.8188 129.139C48.5684 128.873 47.3224 128.585 46.0809 128.275C45.6743 128.174 45.2176 128.213 44.8692 127.902C44.5637 127.629 44.0814 127.8 43.7811 127.478C43.6715 127.361 43.5317 127.588 43.3667 127.499C43.0447 127.326 42.6309 127.441 42.3301 127.129C42.1073 126.898 41.6867 127.054 41.44 126.775L41.4074 126.734C41.2619 126.532 40.8776 127.009 40.7639 126.559C40.3048 126.523 39.9243 126.273 39.5154 126.101C39.1767 125.96 38.777 126.04 38.4713 125.745C38.2108 125.494 37.7186 125.678 37.493 125.302C36.941 125.297 36.5339 124.884 36.0079 124.775C35.6086 124.671 35.2252 124.513 34.8678 124.306C34.3014 124.015 33.7262 123.741 33.1467 123.48C32.9388 123.384 32.7364 123.276 32.5405 123.157C32.4306 123.092 32.4039 122.95 32.247 122.915C31.2533 122.695 30.4176 122.116 29.5689 121.61C29.0849 121.359 28.6218 121.071 28.184 120.747L28.039 120.638C27.9109 120.528 27.6448 120.474 27.5321 120.32C27.2181 119.894 26.7483 119.685 26.3223 119.429L26.2518 119.386C26.0118 119.245 25.7936 119.069 25.6042 118.865C25.5683 118.826 25.5537 118.742 25.5157 118.732C24.8086 118.558 24.3866 117.974 23.846 117.566C23.381 117.215 22.9743 116.787 22.5163 116.429L22.342 116.299C21.2704 115.532 9.54486 102.63 8.21618 100.403L7.83597 99.7661C7.45627 99.1277 7.08096 98.4847 6.73539 97.8288L6.44111 97.2705C6.1473 96.7111 5.8581 96.1475 5.60242 95.5743L5.26034 94.8091C4.57784 93.2777 3.91 91.7387 3.34079 90.1578C2.83322 88.7472 2.41301 87.3135 1.98879 85.8786C1.71708 84.9573 1.48747 84.0318 1.2935 83.0932C0.983608 81.593 0.707272 80.0868 0.464495 78.5745C0.238058 77.1505 0.321817 75.7057 0.0194298 74.2979C0.217542 73.4333 -0.146688 72.556 0.07947 71.6924C-0.0882974 71.2661 0.0592237 70.8235 0.0749917 70.4033C0.0911649 69.9694 -0.0061696 69.5148 0.167109 69.0751C0.246488 68.8753 0.0629972 68.6352 0.162417 68.3913C0.271557 68.1883 0.284153 67.9473 0.196763 67.7341C0.491375 67.5986 0.140208 67.3901 0.262554 67.1972C0.394462 66.9878 0.452733 66.7405 0.428162 66.4944C0.342369 65.9435 0.659701 65.4348 0.603991 64.9371C0.545903 64.4281 0.797263 63.9967 0.796471 63.5405L0.793231 63.4547C0.749849 62.8558 1.17795 62.4049 1.19223 61.8384C1.19358 61.7887 1.31075 61.743 1.37499 61.6937C1.35438 61.5663 1.21345 61.5952 1.11348 61.4961C1.27307 61.3575 1.41271 61.1977 1.52843 61.021C1.61603 60.7786 1.67823 60.5279 1.71406 60.2728L1.30824 59.7493C1.45799 59.4498 1.40579 59.1774 1.60572 58.9426C1.69274 58.84 1.64422 58.5264 1.65497 58.3099C1.66913 58.0255 2.03458 57.8561 1.94642 57.6315C1.87842 57.3732 1.90045 57.0994 2.00889 56.8553C2.53173 54.5503 3.06429 52.2476 3.60657 49.9471C3.66361 49.7005 3.61399 49.3903 3.91744 49.2459C3.58585 48.9036 4.10658 48.7841 4.11466 48.5127C4.15693 48.259 4.25468 48.0178 4.40096 47.8061C4.60807 47.4101 4.62712 46.9186 4.74509 46.4722C4.77616 46.1567 4.89567 45.8564 5.08992 45.6056C5.29192 45.3963 5.26281 45.032 5.41492 44.7383C5.62979 44.3834 5.79633 44.0015 5.91012 43.6027C5.9444 43.3161 6.05865 43.0449 6.23984 42.82C6.40073 42.6424 6.26859 42.2746 6.58131 42.1406C6.66902 41.6251 6.97681 41.2111 7.20468 40.7594L7.2464 40.6742C7.80613 39.512 8.43524 38.3843 9.13033 37.2973C9.70782 36.3824 10.2697 35.4578 10.856 34.5487C11.0468 34.2553 11.2496 33.9629 11.4593 33.6843C12.188 32.6596 12.9728 31.676 13.8102 30.7378C14.5761 29.9262 15.3062 29.0781 16.1104 28.2977C16.5379 27.8825 16.8877 27.3728 17.3028 26.9317C18.2809 25.8909 19.2853 24.8781 20.3417 23.9169C21.2338 23.0355 22.2095 22.2425 23.2549 21.5491C23.5391 21.3763 23.7729 21.1229 24.0472 20.9315C24.3803 20.7481 24.6999 20.5412 25.0036 20.3125C25.3569 19.9803 25.7905 19.7689 26.1474 19.461C26.4244 19.2222 26.8676 19.3584 27.0659 18.9287C27.2104 18.6161 27.7514 18.7306 27.9335 18.3653C28.4329 18.3487 28.6661 17.8652 29.1196 17.7063L29.18 17.6875C29.6578 17.5571 30.0656 17.1715 30.5039 16.898C30.9267 16.5986 31.3691 16.3279 31.8281 16.0875C32.6899 15.6994 33.4338 15.1081 34.2761 14.7073C35.0793 14.3256 35.802 13.7669 36.678 13.5541C36.885 13.504 36.8464 13.3215 36.9888 13.2436C37.137 13.1622 37.2993 13.2161 37.4332 13.1222C37.9871 12.7608 41.6879 0 78.4528 0Z" fill="#FFF1DA"/>
<path fill-rule="evenodd" clip-rule="evenodd" d="M36.9817 27.3522C35.7519 28.046 33.9512 27.161 33.7493 25.7635C34.5336 25.7216 35.3721 25.6604 35.9922 25.1782C36.6122 24.6961 36.8293 23.6283 36.2078 23.1481C31.1474 22.5266 26.2247 20.8073 21.8778 18.1431C24.846 17.2487 27.4 15.3622 30.1879 14.0067C32.9758 12.6512 36.3479 11.8495 39.1284 13.2202C41.8586 14.566 45.0017 12.8493 47.8507 11.7776C52.8049 9.91416 58.4857 10.0704 63.33 12.2033C66.8642 13.7595 72.8531 11.2336 76.671 10.6543C82.9076 9.7081 88.9957 14.0791 95.2581 13.3221C94.5863 13.7663 93.9144 14.2106 93.2426 14.6548C93.9044 14.5943 94.5694 14.5698 95.2337 14.5816C90.0366 17.0685 84.8395 19.5555 79.6425 22.0424C80.959 22.575 82.2756 23.1075 83.5922 23.6401C83.2827 24.6323 82.1732 25.3024 81.1509 25.1146C81.9735 25.7692 82.7961 26.4238 83.6186 27.0784C82.7406 27.702 81.6293 27.9885 80.5592 27.8671C81.6989 28.603 82.6395 29.644 83.2563 30.8521C85.9711 29.9477 88.945 29.8364 91.7198 30.5352C89.2128 30.8639 86.7057 31.1926 84.1986 31.5213C84.5772 32.5521 84.9558 33.5829 85.3344 34.6138C88.6096 33.8642 92.0903 34.0346 95.2767 35.1005C92.1171 35.1809 88.9574 35.2613 85.7978 35.3417C85.7239 39.5337 83.6371 43.8086 79.9726 45.8457C76.3082 47.8828 68.9858 49.6941 66.5604 43.7628C64.7035 44.9815 64.835 47.9108 66.1589 49.6941C67.4828 51.4775 69.5861 52.4645 71.4884 53.6109C77.8071 57.419 82.573 63.7255 84.5115 70.8438C86.4501 77.9621 85.54 85.8142 82.0247 92.3005C86.7641 93.0372 91.1681 95.7343 93.9782 99.6212C100.03 96.8054 103.382 90.3805 108.017 85.5781C113.29 80.1152 120.569 76.6331 128.132 75.9559C132.606 75.5552 137.709 76.4179 140.318 80.0742C143.711 84.8267 140.583 92.216 135.168 94.4007C130.876 96.1325 126.034 95.2615 121.417 95.5887C112.133 96.2466 103.982 101.721 96.3263 107.015C96.0141 108.729 96.6407 110.584 97.9282 111.758C100.667 108.928 104.121 106.795 107.879 105.615C109.268 105.179 111.35 105.293 111.504 106.741C111.562 107.289 111.274 107.808 110.982 108.276C108.477 112.292 104.945 115.661 100.815 117.974C98.6348 119.195 96.1988 120.141 93.7042 120.002C91.2096 119.862 88.6692 118.422 87.8219 116.071C87.4293 114.982 87.3868 113.722 86.6432 112.834C85.3852 111.333 82.9687 111.782 81.2054 112.635C79.442 113.488 77.5623 114.648 75.6701 114.141C70.9397 112.876 66.0168 112.334 61.1244 112.539C54.894 112.799 48.5457 114.25 42.5093 112.685C40.4928 112.162 38.2362 111.338 36.4498 112.41C32.9293 114.522 35.3038 121.282 31.6921 123.234C30.4128 123.925 28.8449 123.67 27.4336 123.32C21.1965 121.772 15.3463 118.689 10.5432 114.42C10.0803 114.009 9.60338 113.547 9.47362 112.941C9.08439 111.125 11.7656 110.369 13.5926 110.705C16.6961 111.276 19.6643 112.57 22.1954 114.455C23.0827 115.115 24.4327 114.345 24.8086 113.304C25.1844 112.264 24.9258 111.118 24.7791 110.022C23.8525 103.096 28.1971 95.8155 34.7318 93.3425C30.7754 87.5689 29.271 80.1714 30.658 73.3112C32.045 66.451 36.3052 60.219 42.1937 56.4359C44.5461 54.9247 47.2488 53.6886 48.748 51.3285C50.2472 48.9684 49.5892 45.0089 46.8467 44.4648C44.2626 47.2634 40.0595 48.4471 36.3947 47.4084C32.73 46.3696 29.7731 43.1565 29.0419 39.4182C26.6095 40.2397 24.177 41.0612 21.7446 41.8827C23.9036 40.2188 26.4604 39.0748 29.1397 38.5738C29.3968 37.4596 29.654 36.3454 29.9111 35.2312C25.2698 34.9318 20.563 35.6957 16.2546 37.4475C18.9058 35.4519 22.2791 34.4378 25.5913 34.6407C28.9602 34.847 32.3847 33.1987 34.325 30.4369C33.1111 30.0101 32.0201 29.2396 31.2118 28.2384C32.4499 27.5664 33.9493 27.3922 35.3084 27.7626M60.7916 100.426C60.5706 100.641 60.3329 100.897 60.3485 101.205C60.3641 101.512 60.8261 101.742 60.9854 101.478C61.8552 100.037 63.3679 99.0016 65.0257 98.7114C66.6835 98.4212 68.4581 98.8817 69.7656 99.9414C70.2218 100.311 70.629 100.753 71.1502 101.023C71.3378 101.121 71.6589 101.123 71.6667 100.912C71.6693 100.843 71.6296 100.78 71.5906 100.722C70.6517 99.3384 69.2478 98.2761 67.6608 97.7487C66.2697 97.2865 64.6577 97.2573 63.4136 98.0325C62.9618 98.314 62.5765 98.6884 62.195 99.0598C61.7272 99.5153 61.2594 99.9707 60.7916 100.426ZM54.0455 97.9081C52.2445 97.6699 50.3054 98.2744 49.106 99.6389C48.8946 99.8795 48.7025 100.15 48.6298 100.462C48.557 100.774 48.6254 101.135 48.867 101.345C49.7947 99.9035 51.4434 98.953 53.1556 98.8722C54.8679 98.7914 56.5987 99.5826 57.658 100.93C57.8237 101.141 57.9817 101.371 58.2168 101.5C58.452 101.629 58.7942 101.612 58.9373 101.386C59.1082 101.115 58.9015 100.769 58.6907 100.528C57.494 99.1609 55.8466 98.1462 54.0455 97.9081ZM66.75 96.0642C66.7222 96.3687 67.1245 96.5582 67.4136 96.4585C67.7027 96.3588 67.8944 96.0925 68.0879 95.8558C69.6981 93.8866 72.7639 93.2933 74.9924 94.5197C75.2847 94.2728 75.3014 93.7994 75.1057 93.4705C74.9101 93.1417 74.553 92.9399 74.1886 92.8234C73.3992 92.5711 72.5422 92.6571 71.7299 92.8215C69.8076 93.2104 67.8656 94.1218 66.855 95.8027C66.8062 95.8839 66.7587 95.9698 66.75 96.0642ZM59.1923 102.453C58.4023 102.508 57.6289 102.717 56.8893 103C55.8671 103.391 54.8606 103.961 54.2622 104.878C55.1397 105.126 55.981 104.472 56.7826 104.037C58.5808 103.061 60.9132 103.162 62.6205 104.289C63.1562 104.643 63.8444 105.1 64.3667 104.727C63.1447 103.195 61.147 102.317 59.1923 102.453ZM62.4378 101.959C63.0371 101.647 63.5162 101.14 64.1106 100.818C64.9292 100.375 65.949 100.324 66.8078 100.683C67.2742 100.878 67.6871 101.182 68.1466 101.393C68.6062 101.603 69.1535 101.712 69.6112 101.498C69.6621 101.474 69.7147 101.443 69.7361 101.391C69.7709 101.307 69.7091 101.216 69.649 101.148C68.6246 99.9784 67.0194 99.3448 65.4725 99.4992C63.9255 99.6536 62.4772 100.592 61.7041 101.941C61.8655 102.153 62.2012 102.082 62.4378 101.959ZM50.4364 102.015C50.7575 101.832 51.0087 101.55 51.3022 101.326C51.8892 100.878 52.654 100.671 53.3877 100.756C54.2053 100.851 54.9426 101.284 55.6188 101.753C55.8166 101.891 56.0183 102.035 56.2529 102.09C56.4874 102.144 56.7667 102.085 56.8993 101.884C57.0306 101.685 56.9779 101.408 56.8375 101.216C56.697 101.024 56.4862 100.897 56.2808 100.777C55.445 100.286 54.5617 99.7965 53.5941 99.7465C52.3846 99.684 51.2603 100.315 50.2143 100.925C49.7901 101.172 49.3029 101.547 49.3927 102.03C49.6831 102.259 50.1153 102.197 50.4364 102.015ZM55.8837 97.3262C56.102 97.6088 56.5296 97.3059 56.7706 97.0425C57.5132 96.2311 58.5835 95.7288 59.6821 95.6761C60.7807 95.6233 61.8943 96.0208 62.7111 96.7573C62.9172 96.9431 63.1345 97.1625 63.4118 97.17C63.6891 97.1776 63.9389 96.7905 63.719 96.6215C62.5413 95.7167 61.1712 94.9773 59.6893 94.8796C58.2075 94.782 56.6104 95.4468 55.9244 96.7639C55.8324 96.9404 55.762 97.1688 55.8837 97.3262ZM68.9857 97.0786C69.1813 96.9959 69.3247 96.8276 69.4743 96.677C70.6145 95.53 72.5461 95.2736 73.946 96.0835C74.2961 96.286 74.8227 96.5094 75.0261 96.1598C75.1958 95.8683 74.8934 95.5291 74.605 95.3542C72.7221 94.2124 70.038 94.6473 68.6119 96.3252C68.4667 96.4961 68.3273 96.7305 68.4271 96.9314C68.5216 97.1215 68.7902 97.1612 68.9857 97.0786ZM70.0268 97.1864C69.9459 97.254 69.8652 97.3298 69.8312 97.4295C69.736 97.7083 70.0748 97.9693 70.3684 97.9459C70.6621 97.9226 70.9117 97.7338 71.1781 97.6082C71.8277 97.3019 72.6084 97.3749 73.2677 97.6596C73.5286 97.7722 73.7813 97.9177 74.0622 97.96C74.3432 98.0023 74.671 97.9091 74.799 97.6554C73.6816 96.2704 71.3925 96.0454 70.0268 97.1864ZM52.3593 96.6548C52.5261 96.7331 52.7536 96.718 52.8609 96.5683C53.0069 96.3647 52.8505 96.0874 52.6956 95.8905C52.1712 95.2237 51.6071 94.5672 50.8863 94.12C50.1654 93.6727 49.2576 93.4576 48.4548 93.7317C48.3731 94.0282 48.7422 94.2296 49.0326 94.3308C50.1508 94.7207 51.1657 95.4029 51.9489 96.2911C52.0708 96.4293 52.1926 96.5766 52.3593 96.6548ZM62.2411 97.399C60.9214 96.5574 59.1202 96.5426 57.7869 97.3624C57.5552 97.5049 57.3171 97.7051 57.2991 97.9766C57.2811 98.248 57.6497 98.4999 57.8324 98.2985C58.569 97.4865 59.9148 97.3181 60.8287 97.9234C61.2775 98.2206 61.9219 98.1801 62.3299 97.829C62.5225 97.8089 62.4044 97.5031 62.2411 97.399ZM71.841 101.953C69.9659 101.826 68.2211 102.929 66.8601 104.225C66.9591 104.454 67.2971 104.394 67.5261 104.295C69.076 103.624 70.626 102.953 72.1759 102.282C72.2924 102.128 72.0338 101.966 71.841 101.953ZM53.9951 102.788C54.2257 102.919 54.4516 103.096 54.7166 103.097C54.9817 103.097 55.2445 102.778 55.0764 102.573C54.5469 101.927 53.7148 101.541 52.88 101.554C52.0452 101.567 51.2252 101.978 50.7157 102.639C50.7785 102.88 51.0727 102.99 51.3185 102.955C51.5644 102.919 51.7809 102.78 52.0089 102.681C52.6395 102.408 53.3973 102.449 53.9951 102.788ZM63.2933 102.612C63.2723 102.796 63.4815 102.937 63.667 102.927C63.8525 102.917 64.0155 102.809 64.1782 102.719C64.8613 102.343 65.7024 102.266 66.4425 102.511C66.9168 102.669 67.5085 102.926 67.8508 102.562C67.8808 102.354 67.6721 102.197 67.4866 102.099C66.8218 101.745 66.09 101.478 65.3371 101.485C64.5841 101.492 63.8072 101.808 63.3773 102.426C63.3382 102.482 63.3011 102.543 63.2933 102.612ZM61.8935 94.5099C62.6686 94.7874 63.3905 95.2127 64.009 95.7561C64.2639 95.9801 64.508 96.2284 64.8173 96.3681C65.1266 96.5078 65.528 96.5114 65.7701 96.2736C65.2345 95.8627 64.7945 95.328 64.4944 94.7233C64.3327 94.3976 63.9018 94.3379 63.5386 94.3202C63.0078 94.2942 62.477 94.2682 61.9461 94.2423C61.8901 94.3177 61.8702 94.4188 61.8935 94.5099ZM54.9701 96.3738C55.2442 96.1178 55.4464 95.7951 55.6996 95.5185C56.0923 95.0896 56.6094 94.776 57.1713 94.6261C57.4137 94.5614 57.7325 94.4374 57.6959 94.1892C57.0091 94.0698 56.2255 93.9736 55.6839 94.4124C54.9253 95.027 54.3239 95.834 53.9518 96.7366C54.318 96.8175 54.696 96.6297 54.9701 96.3738ZM48.8653 96.063C49.3575 96.3836 49.8497 96.7043 50.3418 97.025C50.5502 97.1607 50.8162 97.2997 51.0324 97.1768C51.2329 97.0627 51.2636 96.7686 51.1591 96.5629C51.0545 96.3572 50.8552 96.2195 50.6637 96.0906C50.263 95.8208 49.8623 95.551 49.4616 95.2811C49.126 95.0552 48.5794 94.875 48.3968 95.2361C48.2394 95.5473 48.5731 95.8726 48.8653 96.063ZM59.2283 99.918C59.4166 100.105 59.6804 100.307 59.9197 100.192C60.0288 100.14 60.0991 100.033 60.1637 99.9305C60.3771 99.5933 60.5905 99.256 60.8039 98.9188C60.2452 98.2976 59.1486 98.281 58.5714 98.885C58.5271 98.9314 58.4839 98.9846 58.4759 99.0482C58.4634 99.1492 58.5414 99.2364 58.6136 99.308C58.8185 99.5114 59.0234 99.7147 59.2283 99.918ZM50.6153 104.74C51.0155 104.881 51.4879 104.922 51.8409 104.687C51.3095 104.076 50.6866 103.544 49.9995 103.115C49.8045 102.994 49.5848 102.876 49.3573 102.909C49.1298 102.941 48.9285 103.2 49.0386 103.401C49.3767 104.02 49.9498 104.507 50.6153 104.74ZM72.5753 99.8274C72.7645 99.5988 72.9537 99.3703 73.1428 99.1417C73.208 99.063 73.2768 98.9741 73.2727 98.872C73.2676 98.7424 73.1488 98.6491 73.0358 98.5856C72.6427 98.3645 72.1786 98.2722 71.7308 98.3261C71.5596 98.3467 71.3812 98.3933 71.2608 98.5168C71.1405 98.6403 71.1058 98.8596 71.2269 98.9823C71.5015 99.2605 71.7761 99.5387 72.0507 99.8169C72.1404 99.9078 72.2541 100.006 72.3789 99.9793C72.4614 99.9614 72.5215 99.8924 72.5753 99.8274ZM52.8373 94.8895C53.007 95.0721 53.2201 95.2591 53.4686 95.2386C54.0013 95.1945 54.1731 94.2752 54.7053 94.3255C54.8482 94.09 54.4583 93.9015 54.1828 93.8972C53.4699 93.8859 52.7571 93.8746 52.0442 93.8633C52.2769 94.2283 52.5427 94.5723 52.8373 94.8895ZM57.2403 104.909C58.7232 104.903 60.206 104.896 61.6889 104.89C61.5589 104.597 61.211 104.477 60.8971 104.412C59.8681 104.199 58.7891 104.232 57.7748 104.507C57.5477 104.568 57.2885 104.679 57.2403 104.909ZM66.3961 103.349C65.9055 103.371 65.4149 103.393 64.9243 103.415C64.7659 103.422 64.5626 103.468 64.5431 103.626C64.5344 103.696 64.5697 103.763 64.6038 103.825C64.7336 104.061 64.8716 104.306 65.0959 104.454C65.3202 104.603 65.6578 104.617 65.8324 104.413C65.9662 104.256 65.9767 104.011 66.1361 103.88C66.2389 103.796 66.3815 103.78 66.4952 103.711C66.6089 103.642 66.6813 103.463 66.5759 103.383C66.5264 103.345 66.4584 103.346 66.3961 103.349ZM53.6922 104.169C53.8233 103.965 53.6993 103.675 53.4951 103.544C53.2908 103.412 53.0355 103.396 52.7929 103.384C52.5249 103.371 52.172 103.42 52.1239 103.684C52.101 103.81 52.1651 103.934 52.227 104.045C52.4088 104.374 52.6763 104.75 53.0498 104.713C53.3393 104.684 53.5353 104.414 53.6922 104.169ZM73.0736 101.227C73.2938 101.245 73.4912 101.096 73.6457 100.938C74.1169 100.456 74.4165 99.81 74.4798 99.1391C74.3239 99.0395 74.1332 99.1941 74.0137 99.3353C73.6125 99.8097 73.2113 100.284 72.8101 100.759C72.6675 100.927 72.8535 101.209 73.0736 101.227ZM48.5308 97.8662C48.7545 98.1461 49.1861 98.2339 49.5014 98.0635C49.6628 97.9762 49.7991 97.803 49.767 97.6223C49.7385 97.4614 49.592 97.3524 49.457 97.2603C49.2619 97.1273 49.0668 96.9943 48.8717 96.8613C48.8121 96.8207 48.7436 96.7781 48.673 96.7927C48.6243 96.8027 48.5852 96.8385 48.5525 96.876C48.3167 97.1459 48.3071 97.5862 48.5308 97.8662ZM65.858 94.9109C66.0923 95.1075 66.4395 94.9044 66.672 94.7057C66.9243 94.4901 67.1766 94.2745 67.4289 94.0589C67.2861 93.9225 67.0579 93.9534 66.8646 93.9933C66.3028 94.1094 65.7411 94.2255 65.1794 94.3416C65.4056 94.5313 65.6318 94.7211 65.858 94.9109ZM74.6792 92.1554C74.8207 92.3315 75.1184 92.2936 75.2805 92.1363C75.4427 91.979 75.5025 91.7466 75.549 91.5255C75.5602 91.4724 75.5706 91.4149 75.5483 91.3654C75.4917 91.2395 75.3049 91.2775 75.1798 91.3358C74.8431 91.4927 74.4466 91.8657 74.6792 92.1554Z" fill="white"/>
<path fill-rule="evenodd" clip-rule="evenodd" d="M30.6587 73.3112C32.0458 66.4509 36.7883 60.7081 42.6768 56.925C39.6995 61.0064 30.563 67.6993 33.4996 75.1559C38.1938 87.0751 56.455 88.9497 55.8197 89.0792C45.019 91.2814 29.626 78.4189 30.6587 73.3112Z" fill="#E7EAEE"/>
<path fill-rule="evenodd" clip-rule="evenodd" d="M65.2059 13.7788C64.4546 13.87 63.7925 14.4717 63.6303 15.211C69.7126 11.9408 77.0589 11.1 83.7228 12.9116C83.7285 16.2722 81.371 19.5046 78.1693 20.526L71.2281 22.7404C73.0592 22.9435 74.9406 22.675 76.6418 21.9678C77.2462 22.9201 78.2419 23.6157 79.3441 23.8555L77.2104 24.3234C77.525 25.2819 78.1673 26.1295 79.005 26.6916C78.2941 26.4481 77.5031 26.4456 76.7906 26.6846L77.2683 28.4194C74.1222 27.983 70.7606 28.4114 68.1107 30.1626C65.4608 31.9137 63.6814 35.1329 64.1589 38.273C64.7177 34.8589 67.0573 31.7873 70.2002 30.3415C73.3431 28.8958 77.1978 29.1178 80.1539 30.915L78.1487 32.4003C78.9188 32.7066 79.8313 32.6283 80.5381 32.1953C82.0815 32.8782 81.6541 35.7021 79.9778 35.8977L82.1952 36.0519C82.5796 39.8225 80.2503 43.7109 76.7445 45.1511C73.2387 46.5914 68.8486 45.4635 66.4712 42.5117C63.5202 44.0187 63.727 48.5861 65.8302 51.1466C67.2984 52.9341 69.3203 54.0953 71.3455 55.2584C72.2214 55.7615 73.098 56.2649 73.9306 56.8196C78.3538 59.7658 81.6511 64.3602 83.0263 69.4937C80.6244 71.102 78.4879 73.1057 76.7288 75.3995C79.3313 75.2781 81.88 74.2165 83.7991 72.4544L84.2089 76.4185C82.102 77.0673 80.2088 78.3918 78.877 80.1486C80.7548 80.3399 82.6912 79.9012 84.3032 78.9195C83.7258 83.4807 82.6837 87.9829 81.1983 92.3339L76.3555 92.2943C77.5045 89.1191 78.6682 85.703 77.8218 82.4342C76.9753 79.1653 73.1787 76.467 70.1904 78.0393C73.6273 75.2692 76.2297 71.4772 77.5786 67.2741L68.924 78.4454L62.2827 78.5017C62.0738 75.3726 61.8729 72.1654 62.7625 69.1582C63.652 66.1509 65.8731 63.3357 68.9333 62.6499C69.2654 62.5755 69.6188 62.515 69.977 62.4536C71.4727 62.1974 73.0498 61.9272 73.4889 60.5755C68.5281 60.2869 63.5554 63.4627 61.7307 68.0847C60.4305 71.3783 60.6596 75.0494 60.9087 78.5816C56.3226 77.9202 51.6267 78.0265 47.0752 78.8948C46.2851 76.2014 45.4657 73.4477 43.8082 71.1824C42.1508 68.9172 39.4601 67.1991 36.6672 67.4787C41.1651 68.1472 43.3931 73.1453 45.0892 77.3644C46.7852 81.5836 49.8641 86.4028 54.3922 85.9853C55.6818 85.8664 56.0923 87.9847 55.1039 88.8215C54.1156 89.6584 52.647 89.499 51.3819 89.2221C44.8652 87.796 38.7809 84.4498 34.0865 79.7101C33.1725 78.7872 32.2886 77.7774 31.8663 76.549C31.3452 75.0335 31.588 73.3599 32.0361 71.8212C34.3251 63.9606 41.3697 58.5748 48.0645 53.8621C51.6662 51.3267 51.537 45.0436 47.8341 42.6584C45.093 45.1493 41.4382 46.891 37.7567 46.4846C34.0753 46.0783 30.5911 43.0641 30.4724 39.3622C31.6287 39.2603 32.7619 38.9053 33.7697 38.3294C32.7805 37.9779 31.6657 37.9929 30.6863 38.3709C30.42 37.3732 30.6145 36.2623 31.2039 35.4145L33.3028 35.1902C32.8809 34.7131 32.2924 34.3863 31.6643 34.2804C33.1791 31.7562 36.6949 31.0653 39.5125 31.9183C42.33 32.7712 44.6118 34.8034 46.7949 36.7783C44.5185 31.7874 38.346 30.1786 32.9567 29.1558L35.3084 27.7626C33.9493 27.3922 32.4499 27.5664 31.2118 28.2384C32.0201 29.2396 33.1111 30.0101 34.325 30.4369C32.3847 33.1987 28.9602 34.847 25.5913 34.6407C22.2791 34.4378 18.9058 35.4519 16.2546 37.4475C20.563 35.6957 25.2698 34.9318 29.9111 35.2312L29.1397 38.5738C26.4604 39.0748 23.9036 40.2188 21.7446 41.8827L29.0419 39.4182C29.7731 43.1565 32.73 46.3696 36.3947 47.4084C40.0595 48.4471 44.2626 47.2634 46.8467 44.4648C49.5892 45.0089 50.2472 48.9684 48.748 51.3285C47.5609 53.1973 45.6193 54.3613 43.6945 55.5152L43.6944 55.5152L43.6944 55.5152L43.6943 55.5153L43.6943 55.5153L43.6942 55.5153C43.1882 55.8187 42.6834 56.1213 42.1937 56.4359C36.3052 60.219 32.045 66.451 30.658 73.3112C29.271 80.1714 30.7754 87.5689 34.7318 93.3425C28.1971 95.8155 23.8525 103.096 24.7791 110.022C24.8003 110.18 24.8238 110.34 24.8475 110.5L24.8475 110.5C24.9873 111.447 25.1301 112.414 24.8086 113.304C24.4327 114.345 23.0827 115.115 22.1954 114.455C19.6643 112.57 16.6961 111.276 13.5926 110.705C11.7656 110.369 9.08439 111.125 9.47362 112.941C9.60338 113.547 10.0803 114.009 10.5432 114.42C15.3463 118.689 21.1965 121.772 27.4336 123.32C28.8449 123.67 30.4128 123.925 31.6921 123.234C33.5135 122.25 33.8125 120.043 34.1128 117.825C34.4081 115.646 34.7046 113.457 36.4498 112.41C38.0257 111.464 39.9675 111.994 41.7876 112.491C42.0307 112.558 42.2717 112.623 42.5093 112.685C46.8373 113.807 51.3256 113.379 55.8158 112.951C57.5883 112.781 59.3611 112.612 61.1244 112.539C66.0168 112.334 70.9397 112.876 75.6701 114.141C77.3175 114.582 78.9555 113.76 80.5155 112.977L80.516 112.977C80.7476 112.861 80.9775 112.745 81.2054 112.635C82.9687 111.782 85.3852 111.333 86.6432 112.834C87.1406 113.428 87.3243 114.189 87.509 114.953L87.509 114.953L87.509 114.953L87.5091 114.953L87.5091 114.954L87.5091 114.954L87.5091 114.954L87.5092 114.954L87.5092 114.954L87.5092 114.954L87.5092 114.954L87.5092 114.954L87.5093 114.954L87.5093 114.954L87.5093 114.954L87.5093 114.955L87.5094 114.955L87.5094 114.955L87.5094 114.955L87.5094 114.955L87.5095 114.955L87.5095 114.955L87.5095 114.955L87.5095 114.955L87.5095 114.955L87.5096 114.955L87.5096 114.956L87.5096 114.956L87.5096 114.956L87.5097 114.956L87.5097 114.956L87.5097 114.956L87.5097 114.956L87.5098 114.956L87.5098 114.956C87.6009 115.334 87.6922 115.712 87.8219 116.071C88.6692 118.422 91.2096 119.862 93.7042 120.002C96.1988 120.141 98.6348 119.195 100.815 117.974C104.945 115.661 108.477 112.292 110.982 108.276C111.274 107.808 111.562 107.289 111.504 106.741C111.35 105.293 109.268 105.179 107.879 105.615C104.121 106.795 100.667 108.928 97.9282 111.758C96.6407 110.584 96.0141 108.729 96.3263 107.015C103.982 101.721 112.133 96.2466 121.417 95.5887C122.872 95.4855 124.349 95.5015 125.825 95.5174H125.825H125.825H125.825H125.825H125.825H125.825H125.825H125.825H125.825H125.825H125.826H125.826H125.826H125.826H125.826H125.826H125.826H125.826H125.826H125.826H125.826H125.826H125.826H125.826H125.826H125.827H125.827H125.827H125.827H125.827H125.827H125.827H125.827H125.827C129.033 95.552 132.229 95.5865 135.168 94.4007C140.583 92.216 143.711 84.8267 140.318 80.0742C137.709 76.4179 132.606 75.5552 128.132 75.9559C120.569 76.6331 113.29 80.1152 108.017 85.5781C106.552 87.096 105.215 88.7759 103.881 90.4528C100.993 94.0813 98.1171 97.6954 93.9782 99.6212C91.1681 95.7343 86.7641 93.0372 82.0247 92.3005C85.54 85.8142 86.4501 77.9621 84.5115 70.8438C82.573 63.7255 77.8071 57.419 71.4884 53.6109C71.144 53.4034 70.7931 53.2011 70.4414 52.9984C68.8502 52.0811 67.2431 51.1547 66.1589 49.6941C64.835 47.9108 64.7035 44.9815 66.5604 43.7628C69.0297 47.1511 74.2114 47.8828 77.8759 45.8457C81.5403 43.8086 83.6272 39.5337 83.701 35.3417L93.1799 35.1005C89.9935 34.0346 86.5128 33.8642 83.2376 34.6138L82.1019 31.5213L89.623 30.5352C86.8482 29.8364 83.8744 29.9477 81.1596 30.8521C80.5427 29.644 79.6021 28.603 78.4624 27.8671C79.5325 27.9885 80.6438 27.702 81.5219 27.0784L79.0541 25.1146C80.0764 25.3024 81.1859 24.6323 81.4954 23.6401L77.5457 22.0424L93.137 14.5815C92.4726 14.5698 91.8076 14.5943 91.1459 14.6548L93.1613 13.3221C90.0842 13.6941 87.0491 12.8279 84.0178 11.9628C80.8801 11.0674 77.7464 10.1731 74.5743 10.6543C73.3281 10.8434 72.074 11.2399 70.827 11.6341C68.2537 12.4476 65.7106 13.2515 63.33 12.2033C58.4857 10.0704 52.8049 9.91416 47.8507 11.7776C47.4127 11.9424 46.9678 12.1224 46.5184 12.3041L46.5182 12.3042L46.5182 12.3042C44.0448 13.3048 41.4388 14.3591 39.1284 13.2202C36.3479 11.8495 32.9758 12.6512 30.1879 14.0067C29.2092 14.4825 28.2594 15.0238 27.3103 15.5646L27.3103 15.5646C25.5558 16.5644 23.804 17.5627 21.8778 18.1431C26.2247 20.8073 31.1474 22.5266 36.2078 23.1481C36.8293 23.6283 36.6122 24.6961 35.9922 25.1782C35.3721 25.6604 34.5336 25.7216 33.7493 25.7635C33.9512 27.161 35.7519 28.046 36.9817 27.3522C36.4648 27.4483 36.4263 26.6087 36.641 26.1289L37.9808 23.1347C39.0213 23.5168 40.3164 22.9038 40.6804 21.8568C38.1037 22.1669 35.4301 22.4686 32.9616 21.667C30.4932 20.8654 28.2877 18.629 28.4034 16.0362C33.9004 12.8513 41.2799 13.2826 46.3686 17.0861C45.9757 15.9394 45.0099 15.0052 43.8507 14.6506C45.1891 13.3331 46.9656 12.4684 48.8283 12.228C47.7218 13.1035 47.2147 14.6687 47.5976 16.0267L52.5658 11.4572C51.7508 12.9183 51.2943 14.5776 51.2472 16.25C53.0898 15.0459 54.5578 13.277 55.4016 11.244L57.6118 11.5543C56.2587 12.6975 55.5049 14.514 55.651 16.2794C57.335 15.2324 58.6406 13.5903 59.2811 11.7137C61.3564 12.049 63.3718 12.7515 65.2059 13.7788ZM126.256 94.6706H126.256H126.255H126.255H126.255H126.255H126.255H126.255H126.255H126.255H126.255H126.254H126.254H126.254H126.254H126.254H126.254H126.254H126.254H126.254H126.253H126.253H126.253H126.253H126.253H126.253H126.253H126.253H126.252H126.252H126.252H126.252H126.252H126.252H126.252C125.142 94.6339 124.031 94.5971 122.927 94.6284C114.699 94.8621 107.05 98.8695 100.261 103.524C100.167 103.589 100.072 103.654 99.9774 103.719L99.9754 103.721C98.6871 104.607 97.3862 105.501 95.9155 106.024L94.1879 100.989C94.0952 100.719 94.0381 100.347 94.2894 100.212C96.9311 98.7831 99.3433 96.9312 101.406 94.7482C102.78 93.2937 103.999 91.6954 105.217 90.0989C106.941 87.8382 108.662 85.5812 110.818 83.7417C114.26 80.8042 118.593 79.1229 122.941 77.8689C126.158 76.9409 129.53 76.2129 132.84 76.7226C136.15 77.2324 139.408 79.2077 140.622 82.3288C141.586 84.8078 141.114 87.7319 139.629 89.9384C138.144 92.145 135.733 93.6466 133.149 94.2766C130.901 94.8244 128.58 94.7476 126.256 94.6706ZM31.5858 105.337C31.7597 105.751 31.8695 106.303 31.5221 106.588C31.0748 106.954 30.4402 106.482 30.0643 106.043L26.8604 102.299C26.0934 104.293 25.7415 106.445 25.8337 108.579C25.8522 109.008 25.8871 109.443 25.9221 109.879C26.056 111.546 26.1917 113.235 25.4196 114.681C25.0809 115.315 24.5046 115.897 23.7872 115.944C23.3806 115.97 22.9846 115.821 22.6094 115.663C21.5807 115.228 20.5672 114.693 19.5539 114.159C16.9457 112.783 14.3395 111.408 11.4835 111.736C11.0934 111.781 10.6077 111.973 10.623 112.366C10.6298 112.541 10.7444 112.692 10.8558 112.828C14.9736 117.857 21.4128 120.296 27.6462 122.137C28.6657 122.438 29.7401 122.731 30.7782 122.503C31.8163 122.274 32.78 121.338 32.6546 120.282C32.323 117.49 33.198 114.574 35.0128 112.426C35.7373 111.568 36.6533 110.804 37.7526 110.576C39.1029 110.296 40.4226 110.852 41.7223 111.4L41.7225 111.4L41.7226 111.4L41.7228 111.4L41.723 111.4L41.7232 111.4L41.7234 111.4L41.7236 111.4C42.057 111.541 42.3892 111.681 42.7202 111.806C45.2608 112.767 48.1164 112.871 50.7206 112.1C49.7025 112.086 49.2135 110.866 49.0025 109.87C47.6354 103.416 46.9086 96.8276 46.8362 90.2315C46.8283 89.5143 46.3252 88.8801 45.7184 88.4978C45.2046 88.1741 44.6189 87.9941 44.0364 87.815C43.9309 87.7825 43.8254 87.7501 43.7204 87.7169C41.5995 87.0449 39.601 85.9887 37.8511 84.6148C37.6306 84.4417 37.4135 84.2633 37.1963 84.0848L37.1962 84.0847L37.1961 84.0846C36.5264 83.5342 35.8561 82.9833 35.0872 82.5888C34.0689 82.0663 32.8087 81.8533 31.7882 82.3713C31.5605 82.9137 31.9722 83.5441 32.4989 83.806C32.8979 84.0044 33.3448 84.0582 33.7907 84.1119L33.7908 84.1119L33.791 84.1119C33.9338 84.1291 34.0765 84.1463 34.2175 84.1682C34.8882 84.2724 35.541 84.4909 36.1394 84.8113C36.768 85.1479 37.3633 86.0367 36.8031 86.4779C36.5734 86.6588 36.2514 86.6461 35.9597 86.6247L32.67 86.383C33.472 88.5649 34.4944 90.6657 35.7167 92.643C35.8265 92.8205 35.9729 93.0178 36.1816 93.0197C39.4046 93.0487 43.0037 93.4999 45.0462 95.9933C45.4333 96.4659 45.7509 97.1489 45.4189 97.6618C43.5467 95.4011 40.6182 94.0547 37.6834 94.1054C34.7485 94.1561 31.8682 95.6027 30.0751 97.9267C31.6577 98.9859 32.9158 100.523 33.6411 102.284C33.8601 102.816 33.8198 103.686 33.2448 103.674L29.7914 99.4454C29.6371 99.2565 29.4517 99.0514 29.2079 99.0439C29.0123 99.0379 28.8399 99.163 28.6848 99.2822C28.3489 99.5404 28.0003 99.8141 27.825 100.2C27.6496 100.585 27.7149 101.116 28.0801 101.331C29.6369 102.245 30.8862 103.673 31.5858 105.337ZM70.9566 111.954C73.1743 110.104 73.8976 107.058 74.4932 104.232L76.6754 93.8771C76.6988 93.7664 76.7255 93.6491 76.8052 93.5687C76.9102 93.4627 77.075 93.4511 77.2242 93.4466C81.2021 93.3265 85.4371 93.7054 88.6411 96.0661C87.3337 96.7143 86.191 97.6912 85.3474 98.8819C85.1107 99.2159 84.913 99.7184 85.2177 99.9918C85.332 100.094 85.4911 100.131 85.6443 100.141C86.408 100.196 87.1057 99.7188 87.6638 99.1947C87.7841 99.0817 87.9023 98.9648 88.0206 98.8478L88.0206 98.8477L88.0207 98.8476C88.4511 98.4219 88.8833 97.9943 89.4294 97.7443C90.1256 97.4256 91.0926 97.515 91.4768 98.1773C90.2352 98.8098 89.2121 99.862 88.6146 101.121C88.4591 101.449 88.3306 101.827 88.4566 102.168C88.5825 102.508 89.0782 102.707 89.3218 102.439L91.7207 99.7903C91.8367 99.6622 91.9979 99.5216 92.1602 99.5809C92.2479 99.6129 92.3051 99.6957 92.3552 99.7744C93.6266 101.769 94.1319 104.092 94.6394 106.425C94.9366 107.791 95.2345 109.16 95.6874 110.47C96.0503 111.518 96.7508 112.697 97.8607 112.697C98.4742 112.698 99.0166 112.32 99.5022 111.946C100.021 111.545 100.537 111.125 101.056 110.703L101.056 110.703C103.496 108.717 105.991 106.687 109.064 106.444C109.548 106.405 110.169 106.512 110.283 106.985C110.349 107.259 110.201 107.535 110.054 107.776C107.77 111.514 104.345 114.461 100.561 116.668C98.623 117.797 96.4984 118.767 94.2557 118.785C92.013 118.802 89.6382 117.655 88.7908 115.579C88.6179 115.155 88.5122 114.708 88.4065 114.261C88.2843 113.745 88.1622 113.228 87.9366 112.75C87.3551 111.516 86.0662 110.648 84.7047 110.573C83.4083 110.501 82.216 111.078 81.0264 111.655L81.0263 111.655L81.0262 111.655L81.0261 111.655L81.0259 111.655L81.0258 111.655L81.0257 111.655L81.0256 111.655L81.0255 111.655L81.0254 111.655L81.0253 111.655L81.0251 111.655L81.025 111.655L81.0249 111.655L81.0248 111.655L81.0247 111.655L81.0246 111.655L81.0245 111.655L81.0243 111.656L81.0242 111.656L81.0241 111.656L81.024 111.656L81.0239 111.656L81.0238 111.656L81.0237 111.656L81.0235 111.656L81.0234 111.656L81.0233 111.656L81.0232 111.656L81.0231 111.656L81.023 111.656L81.0229 111.656L81.0227 111.656C80.606 111.858 80.1897 112.06 79.7692 112.233C76.9695 113.388 73.6776 113.284 70.9566 111.954ZM56.1528 89.6611C55.3181 90.3735 54.1952 90.6579 53.1007 90.7382C51.1289 90.8829 49.1167 90.4213 47.4051 89.4316L48.1113 92.1048C48.1417 92.2199 48.178 92.344 48.2737 92.415C48.3568 92.4766 48.4668 92.4844 48.5701 92.4898L58.7178 93.0231C60.1972 93.1008 61.6785 93.1786 63.1593 93.1358C67.3129 93.0158 71.4355 91.9314 75.1106 89.9924C75.3226 89.8805 75.5386 89.7614 75.6913 89.5766C75.8733 89.3564 75.9452 89.0677 76.0061 88.7886C76.5208 86.4276 76.6098 83.9744 76.2676 81.5823C76.1835 80.9948 76.0664 80.3922 75.7361 79.8991C75.4058 79.4059 74.8118 79.0455 74.2287 79.1565C68.2567 80.2936 62.1605 79.9424 56.0648 79.5912L56.0646 79.5911C53.7671 79.4588 51.4698 79.3264 49.1792 79.2737C48.7702 79.2643 48.3401 79.2623 47.9808 79.458C47.6216 79.6536 47.3743 80.1182 47.5588 80.4833C48.6034 82.5497 50.7615 83.8685 52.9993 84.4634C53.1586 84.5057 53.3217 84.5472 53.4867 84.5892L53.4869 84.5893L53.4888 84.5897L53.4901 84.5901L53.4909 84.5903C54.9384 84.9585 56.5326 85.364 57.0582 86.7113C57.457 87.7336 56.9876 88.9488 56.1528 89.6611ZM72.4341 107.176C72.0248 108.801 71.1643 110.487 69.6029 111.097C69.0567 111.31 68.4653 111.374 67.8814 111.428C62.4683 111.932 56.9972 111.81 51.6116 111.067C51.2909 111.023 50.9529 110.969 50.703 110.763C50.3986 110.512 50.2954 110.098 50.2156 109.712C49.9711 108.528 49.7817 107.334 49.6481 106.133C49.6244 105.92 49.6834 105.616 49.8968 105.633C53.3429 105.901 56.799 106.042 60.2555 106.055C62.6399 106.064 65.0432 106.01 67.3719 105.498C69.7006 104.986 71.9712 103.985 73.6737 102.316C73.1896 103.332 72.9813 104.442 72.7727 105.554L72.7726 105.554C72.6706 106.098 72.5685 106.642 72.4341 107.176ZM60.7916 100.426C60.5706 100.641 60.3329 100.897 60.3485 101.205C60.3641 101.512 60.8261 101.742 60.9854 101.478C61.8552 100.037 63.3679 99.0016 65.0257 98.7114C66.6835 98.4212 68.4581 98.8817 69.7656 99.9414C69.9015 100.052 70.0329 100.168 70.1644 100.284C70.4744 100.559 70.7842 100.834 71.1502 101.023C71.3378 101.121 71.6589 101.123 71.6667 100.912C71.6693 100.843 71.6296 100.78 71.5906 100.722C70.6517 99.3384 69.2478 98.2761 67.6608 97.7487C66.2697 97.2865 64.6577 97.2573 63.4136 98.0325C62.9618 98.314 62.5765 98.6884 62.195 99.0598L60.7916 100.426ZM49.106 99.6389C50.3054 98.2744 52.2445 97.6699 54.0455 97.9081C55.8466 98.1462 57.494 99.1609 58.6907 100.528C58.9015 100.769 59.1082 101.115 58.9373 101.386C58.7942 101.612 58.452 101.629 58.2168 101.5C58.0117 101.388 57.8653 101.198 57.7212 101.011C57.7002 100.984 57.6792 100.957 57.658 100.93C56.5987 99.5826 54.8679 98.7914 53.1556 98.8722C51.4434 98.953 49.7947 99.9035 48.867 101.345C48.6254 101.135 48.557 100.774 48.6298 100.462C48.7025 100.15 48.8946 99.8795 49.106 99.6389ZM66.75 96.0642C66.7222 96.3687 67.1245 96.5582 67.4136 96.4585C67.6738 96.3688 67.8551 96.1441 68.0298 95.9275C68.0493 95.9034 68.0686 95.8794 68.0879 95.8558C69.6981 93.8866 72.7639 93.2933 74.9924 94.5197C75.2847 94.2728 75.3014 93.7994 75.1057 93.4705C74.9101 93.1417 74.553 92.9399 74.1886 92.8234C73.3992 92.5711 72.5422 92.6571 71.7299 92.8215C69.8076 93.2104 67.8656 94.1218 66.855 95.8027C66.8062 95.8839 66.7587 95.9698 66.75 96.0642ZM56.8893 103C57.6289 102.717 58.4023 102.508 59.1923 102.453C61.147 102.317 63.1447 103.195 64.3667 104.727C63.8461 105.099 63.1606 104.646 62.6257 104.293L62.6205 104.289C60.9132 103.162 58.5808 103.061 56.7826 104.037C56.6424 104.113 56.501 104.196 56.3585 104.279L56.358 104.279C55.6854 104.673 54.9861 105.083 54.2622 104.878C54.8606 103.961 55.8671 103.391 56.8893 103ZM62.4378 101.959C62.7443 101.799 63.0194 101.589 63.2945 101.378C63.5573 101.176 63.8202 100.975 64.1106 100.818C64.9292 100.375 65.949 100.324 66.8078 100.683C67.0584 100.788 67.2935 100.924 67.5288 101.06L67.5289 101.06C67.7314 101.178 67.934 101.295 68.1466 101.393C68.6062 101.603 69.1535 101.712 69.6112 101.498C69.6621 101.474 69.7147 101.443 69.7361 101.391C69.7709 101.307 69.7091 101.216 69.649 101.148C68.6246 99.9784 67.0194 99.3448 65.4725 99.4992C63.9255 99.6536 62.4772 100.592 61.7041 101.941C61.8655 102.153 62.2012 102.082 62.4378 101.959ZM50.9868 101.592C50.8124 101.746 50.6382 101.9 50.4364 102.015C50.1153 102.197 49.6831 102.259 49.3927 102.03C49.3029 101.547 49.7901 101.172 50.2143 100.925C51.2603 100.315 52.3846 99.684 53.5941 99.7465C54.5617 99.7965 55.445 100.286 56.2808 100.777C56.4862 100.897 56.697 101.024 56.8375 101.216C56.9779 101.408 57.0306 101.685 56.8993 101.884C56.7667 102.085 56.4874 102.144 56.2529 102.09C56.0271 102.037 55.8318 101.901 55.6411 101.769L55.641 101.769L55.6188 101.753C54.9426 101.284 54.2053 100.851 53.3877 100.756C52.654 100.671 51.8892 100.878 51.3022 101.326C51.1932 101.409 51.09 101.5 50.9869 101.592L50.9868 101.592ZM55.8837 97.3262C56.102 97.6088 56.5296 97.3059 56.7706 97.0425C57.5132 96.2311 58.5835 95.7288 59.6821 95.6761C60.7807 95.6233 61.8943 96.0208 62.7111 96.7573L62.7613 96.8028C62.9526 96.9771 63.1569 97.1631 63.4118 97.17C63.6891 97.1776 63.9389 96.7905 63.719 96.6215C62.5413 95.7167 61.1712 94.9773 59.6893 94.8796C58.2075 94.782 56.6104 95.4468 55.9244 96.7639C55.8324 96.9404 55.762 97.1688 55.8837 97.3262ZM69.4081 96.7447C69.2811 96.8755 69.1524 97.0081 68.9857 97.0786C68.7902 97.1612 68.5216 97.1215 68.4271 96.9314C68.3273 96.7305 68.4667 96.4961 68.6119 96.3252C70.038 94.6473 72.7221 94.2124 74.605 95.3542C74.8934 95.5291 75.1958 95.8683 75.0261 96.1598C74.8227 96.5094 74.2961 96.286 73.946 96.0835C72.5461 95.2736 70.6145 95.53 69.4743 96.677L69.4369 96.7151L69.4083 96.7445L69.4081 96.7447ZM70.0268 97.1864C69.9459 97.254 69.8652 97.3298 69.8312 97.4295C69.736 97.7083 70.0748 97.9693 70.3684 97.9459C70.5809 97.929 70.7704 97.8255 70.9599 97.7219C71.0322 97.6824 71.1045 97.6429 71.1781 97.6082C71.8277 97.3019 72.6084 97.3749 73.2677 97.6596C73.3302 97.6866 73.3922 97.7154 73.4543 97.7443C73.6513 97.836 73.8486 97.9279 74.0622 97.96C74.3432 98.0023 74.671 97.9091 74.799 97.6554C73.6816 96.2704 71.3925 96.0454 70.0268 97.1864ZM52.8609 96.5683C52.7536 96.718 52.5261 96.7331 52.3593 96.6548C52.2044 96.5822 52.0883 96.4498 51.9749 96.3206L51.9489 96.2911C51.1657 95.4029 50.1508 94.7207 49.0326 94.3308C48.7422 94.2296 48.3731 94.0282 48.4548 93.7317C49.2576 93.4576 50.1654 93.6727 50.8863 94.12C51.6071 94.5672 52.1712 95.2237 52.6956 95.8905C52.8505 96.0874 53.0069 96.3647 52.8609 96.5683ZM62.2411 97.399C60.9214 96.5574 59.1202 96.5426 57.7869 97.3624C57.5552 97.5049 57.3171 97.7051 57.2991 97.9766C57.2811 98.248 57.6497 98.4999 57.8324 98.2985C58.569 97.4865 59.9148 97.3181 60.8287 97.9234C61.2775 98.2206 61.9219 98.1801 62.3299 97.829C62.5225 97.8089 62.4044 97.5031 62.2411 97.399ZM66.8601 104.225C68.2211 102.929 69.9659 101.826 71.841 101.953C72.0338 101.966 72.2924 102.128 72.1759 102.282L67.5261 104.295C67.2971 104.394 66.9591 104.454 66.8601 104.225ZM53.9951 102.788C54.0128 102.798 54.0305 102.808 54.0482 102.819L54.0721 102.833L54.0968 102.848L54.1321 102.869C54.3169 102.982 54.5042 103.096 54.7166 103.097C54.9817 103.097 55.2445 102.778 55.0764 102.573C54.5469 101.927 53.7148 101.541 52.88 101.554C52.0452 101.567 51.2252 101.978 50.7157 102.639C50.7785 102.88 51.0727 102.99 51.3185 102.955C51.4957 102.929 51.6577 102.849 51.8197 102.77C51.8825 102.74 51.9453 102.709 52.0089 102.681C52.6395 102.408 53.3973 102.449 53.9951 102.788ZM63.667 102.927C63.4815 102.937 63.2723 102.796 63.2933 102.612C63.3011 102.543 63.3382 102.482 63.3773 102.426C63.8072 101.808 64.5841 101.492 65.3371 101.485C66.09 101.478 66.8218 101.745 67.4866 102.099C67.6721 102.197 67.8808 102.354 67.8508 102.562C67.5427 102.89 67.0325 102.714 66.5878 102.561L66.5868 102.561C66.5495 102.548 66.5126 102.535 66.4763 102.523L66.4425 102.511C65.7024 102.266 64.8613 102.343 64.1782 102.719C64.1548 102.732 64.1312 102.745 64.1077 102.759C63.968 102.838 63.8257 102.919 63.667 102.927ZM61.8935 94.5099C62.6686 94.7874 63.3905 95.2127 64.009 95.7561C64.0521 95.794 64.0949 95.8326 64.1377 95.8712C64.3483 96.061 64.5603 96.252 64.8173 96.3681C65.1266 96.5078 65.528 96.5114 65.7701 96.2736C65.2345 95.8627 64.7945 95.328 64.4944 94.7233C64.3327 94.3976 63.9018 94.3379 63.5386 94.3202L61.9461 94.2423C61.8901 94.3177 61.8702 94.4188 61.8935 94.5099ZM55.4038 95.8763C55.2674 96.0499 55.1312 96.2234 54.9701 96.3738C54.696 96.6297 54.318 96.8175 53.9518 96.7366C54.3239 95.834 54.9253 95.027 55.6839 94.4124C56.2255 93.9736 57.0091 94.0698 57.6959 94.1892C57.7325 94.4374 57.4137 94.5614 57.1713 94.6261C56.6094 94.776 56.0923 95.0896 55.6996 95.5185C55.5952 95.6326 55.4995 95.7544 55.4038 95.8763ZM48.8653 96.063L50.3418 97.025C50.5502 97.1607 50.8162 97.2997 51.0324 97.1768C51.2329 97.0627 51.2636 96.7686 51.1591 96.5629C51.0545 96.3572 50.8552 96.2195 50.6637 96.0906L49.4616 95.2811C49.126 95.0552 48.5794 94.875 48.3968 95.2361C48.2394 95.5473 48.5731 95.8726 48.8653 96.063ZM59.9197 100.192C59.6804 100.307 59.4166 100.105 59.2283 99.918L58.6136 99.308C58.5414 99.2364 58.4634 99.1492 58.4759 99.0482C58.4839 98.9846 58.5271 98.9314 58.5714 98.885C59.1486 98.281 60.2452 98.2976 60.8039 98.9188L60.1637 99.9305C60.0991 100.033 60.0288 100.14 59.9197 100.192ZM50.6153 104.74C51.0155 104.881 51.4879 104.922 51.8409 104.687C51.3095 104.076 50.6866 103.544 49.9995 103.115C49.8045 102.994 49.5848 102.876 49.3573 102.909C49.1298 102.941 48.9285 103.2 49.0386 103.401C49.3767 104.02 49.9498 104.507 50.6153 104.74ZM73.1428 99.1417L72.5753 99.8274C72.5215 99.8924 72.4614 99.9614 72.3789 99.9793C72.2541 100.006 72.1404 99.9078 72.0507 99.8169L71.2269 98.9823C71.1058 98.8596 71.1405 98.6403 71.2608 98.5168C71.3812 98.3933 71.5596 98.3467 71.7308 98.3261C72.1786 98.2722 72.6427 98.3645 73.0358 98.5856C73.1488 98.6491 73.2676 98.7424 73.2727 98.872C73.2768 98.9741 73.208 99.063 73.1428 99.1417ZM52.8373 94.8895C53.007 95.0721 53.2201 95.2591 53.4686 95.2386C53.726 95.2173 53.8991 94.9917 54.0694 94.7698C54.2515 94.5325 54.4303 94.2995 54.7053 94.3255C54.8482 94.09 54.4583 93.9015 54.1828 93.8972L52.0442 93.8633C52.2769 94.2283 52.5427 94.5723 52.8373 94.8895ZM61.6889 104.89L57.2403 104.909C57.2885 104.679 57.5477 104.568 57.7748 104.507C58.7891 104.232 59.8681 104.199 60.8971 104.412C61.211 104.477 61.5589 104.597 61.6889 104.89ZM66.3961 103.349L64.9243 103.415C64.7659 103.422 64.5626 103.468 64.5431 103.626C64.5344 103.696 64.5697 103.763 64.6038 103.825C64.7336 104.061 64.8716 104.306 65.0959 104.454C65.3202 104.603 65.6578 104.617 65.8324 104.413C65.8924 104.342 65.9276 104.254 65.9626 104.167C66.0056 104.059 66.0482 103.952 66.1361 103.88C66.1944 103.833 66.2655 103.807 66.3368 103.781C66.3913 103.761 66.446 103.741 66.4952 103.711C66.6089 103.642 66.6813 103.463 66.5759 103.383C66.5264 103.345 66.4584 103.346 66.3961 103.349ZM53.4951 103.544C53.6993 103.675 53.8233 103.965 53.6922 104.169C53.5353 104.414 53.3393 104.684 53.0498 104.713C52.6763 104.75 52.4088 104.374 52.227 104.045C52.1651 103.934 52.101 103.81 52.1239 103.684C52.172 103.42 52.5249 103.371 52.7929 103.384C53.0355 103.396 53.2908 103.412 53.4951 103.544ZM73.0736 101.227C73.2938 101.245 73.4912 101.096 73.6457 100.938C74.1169 100.456 74.4165 99.81 74.4798 99.1391C74.3239 99.0395 74.1332 99.1941 74.0137 99.3353L72.8101 100.759C72.6675 100.927 72.8535 101.209 73.0736 101.227ZM49.5014 98.0635C49.1861 98.2339 48.7545 98.1461 48.5308 97.8662C48.3071 97.5862 48.3167 97.1459 48.5525 96.876C48.5852 96.8385 48.6243 96.8027 48.673 96.7927C48.7436 96.7781 48.8121 96.8207 48.8717 96.8613L49.457 97.2603C49.592 97.3524 49.7385 97.4614 49.767 97.6223C49.7991 97.803 49.6628 97.9762 49.5014 98.0635ZM65.858 94.9109C66.0923 95.1075 66.4395 94.9044 66.672 94.7057L67.4289 94.0589C67.2861 93.9225 67.0579 93.9534 66.8646 93.9933L65.1794 94.3416L65.858 94.9109ZM31.7895 80.089C31.6174 79.936 31.5734 79.6859 31.5682 79.4557C31.5624 79.1959 31.5928 78.9353 31.6584 78.6838L32.7753 80.1379C32.842 80.2247 32.8967 80.3739 32.7982 80.4216C32.6586 80.3279 32.4869 80.3013 32.3163 80.2749C32.1233 80.2451 31.9317 80.2154 31.7895 80.089ZM74.6792 92.1554C74.8207 92.3315 75.1184 92.2936 75.2805 92.1363C75.4427 91.979 75.5025 91.7466 75.549 91.5255C75.5602 91.4724 75.5706 91.4149 75.5483 91.3654C75.4917 91.2395 75.3049 91.2775 75.1798 91.3358C74.8431 91.4927 74.4466 91.8657 74.6792 92.1554ZM62.0393 27.8648C62.176 27.5234 62.4942 27.2928 62.8076 27.1003C63.7533 26.5194 64.8035 26.1093 65.8925 25.8954C66.1531 25.8442 66.4636 25.8192 66.6445 26.0137C66.848 26.2324 66.7462 26.6107 66.5203 26.8062C66.3191 26.9804 66.0542 27.0519 65.7952 27.1218C65.7635 27.1304 65.7318 27.1389 65.7004 27.1476C64.8294 27.3888 64.0101 27.8146 63.3122 28.3888C63.0439 28.6095 62.7258 28.8695 62.3911 28.7765C62.0368 28.6781 61.9026 28.2062 62.0393 27.8648ZM42.4494 27.9446C42.1966 27.8077 42.0259 27.4661 42.1832 27.2255C42.2747 27.0855 42.4453 27.0217 42.6074 26.9805C43.9204 26.6473 45.2799 27.2356 46.4675 27.8873C46.7348 28.034 47.01 28.1937 47.1786 28.4479C47.3471 28.702 47.3717 29.0786 47.1518 29.2899C46.7838 29.6435 46.2003 29.2798 45.7848 28.9833C45.0571 28.4643 44.1828 28.1531 43.2908 28.0959C43.251 28.0934 43.2109 28.0912 43.1707 28.0891C42.9211 28.0759 42.6672 28.0624 42.4494 27.9446ZM56.2139 46.7699L55.3502 44.3066C54.5815 44.8613 54.0069 45.6797 53.746 46.5911C53.51 46.3992 53.5013 46.0747 53.4928 45.7561V45.756V45.756C53.4902 45.6608 53.4877 45.5661 53.4791 45.4756C53.4281 44.9386 53.0908 44.4372 52.6127 44.1875C52.1345 43.9379 51.5304 43.9476 51.0605 44.2127C51.1852 44.4854 51.4788 44.572 51.781 44.6611C51.9817 44.7202 52.1862 44.7805 52.3475 44.8972C52.6883 45.1436 52.786 45.608 52.7912 46.0285C52.7925 46.1339 52.7898 46.2401 52.7871 46.3463V46.3464V46.3465C52.7791 46.6642 52.771 46.9823 52.8702 47.2814C52.9022 47.378 52.9476 47.4743 53.0258 47.5393C53.2474 47.7236 53.5828 47.5705 53.8072 47.3896C54.314 46.981 54.7126 46.4392 54.9518 45.8337C55.1628 46.0445 55.2408 46.3406 55.3181 46.6343C55.3408 46.7205 55.3635 46.8066 55.3895 46.8902C55.5038 47.2586 55.7773 47.6525 56.1627 47.6346C56.4195 47.6227 56.6265 47.4294 56.8084 47.2477L57.8533 46.2038C57.9792 46.078 58.1158 45.9181 58.0753 45.7448C58.0363 45.5784 57.8392 45.4892 57.67 45.5131C57.5007 45.5371 57.3561 45.6437 57.2236 45.7517C56.8526 46.0544 56.5135 46.3963 56.2139 46.7699ZM53.8273 36.8891C53.883 36.4376 53.9137 35.9116 53.582 35.6003C52.9631 35.0194 52.421 34.3567 51.9744 33.6348C51.7796 33.3201 51.5968 32.9523 51.6896 32.5939C51.8298 32.0527 52.4878 31.8569 53.0428 31.7893C53.9308 31.6812 54.8296 31.6629 55.7213 31.7346C56.1044 31.7655 56.5106 31.823 56.8038 32.0716C57.097 32.3201 57.2028 32.8241 56.9198 33.0842C55.5325 34.3594 54.7202 36.238 54.7412 38.1222C55.2556 38.4562 55.7784 38.7941 56.3645 38.9747C56.9505 39.1553 57.6185 39.1612 58.1471 38.8503C58.3697 38.7194 58.5564 38.5403 58.7436 38.3608L58.7436 38.3608C58.8728 38.2369 59.0022 38.1128 59.1436 38.0043C59.49 37.7386 59.986 37.574 60.3572 37.8038L58.9449 39.1041C58.3821 39.6222 57.6831 40.1796 56.9383 40.0052C56.6916 39.9474 56.475 39.814 56.2576 39.68L56.2575 39.68C56.1282 39.6003 55.9985 39.5205 55.8621 39.4563C55.1327 39.113 54.2768 39.2413 53.4886 39.4105L53.3443 39.4416C52.6005 39.6028 51.8307 39.7696 51.1006 39.5693C50.3231 39.3561 49.6412 38.548 49.8845 37.7794C50.3739 38.4957 51.2261 38.9497 52.0936 38.9563C52.4267 38.9589 52.7701 38.8951 53.0461 38.7085C53.611 38.3267 53.7438 37.5658 53.8273 36.8891Z" fill="#00160A"/>
</svg>
