<svg width="246" height="130" viewBox="0 0 246 130" fill="none" xmlns="http://www.w3.org/2000/svg">
<path fill-rule="evenodd" clip-rule="evenodd" d="M218.163 89.8322C218.163 40.2192 177.944 0 128.331 0C78.718 0 34.6986 40.3039 38.4987 89.8322C43.0281 148.864 218.163 137.62 218.163 89.8322Z" fill="#FFF1DA"/>
<path d="M57.4167 88.6954C57.7105 88.669 58.094 88.6994 58.1773 88.9824C58.1799 89.3237 57.7474 89.4656 57.4087 89.5077C55.5828 89.7347 53.7569 89.9617 51.931 90.1888C52.7798 90.9091 52.864 92.3383 52.146 93.189C51.4279 94.0398 50.0555 94.2145 49.1159 93.6174C48.8026 93.4183 48.5355 93.1482 48.2061 92.977C47.8766 92.8057 47.4413 92.7549 47.156 92.9925C46.5111 93.5296 45.5385 93.3846 44.7668 93.0547C44.0018 92.7278 43.247 92.1701 43.0689 91.3575C42.8925 90.5522 43.3323 89.7408 43.8523 89.1012C44.3724 88.4615 45.0005 87.8824 45.313 87.1195C45.7713 86.0005 47.1246 85.4434 48.3235 85.6017C49.5223 85.7599 50.5719 86.4896 51.4451 87.3262C52.0073 87.8649 52.9192 87.6536 53.6624 87.4213C54.4056 87.1889 55.3389 87.0173 55.8594 87.5964" fill="white"/>
<path fill-rule="evenodd" clip-rule="evenodd" d="M162.832 85.5532C162.832 77.1751 169.025 75.2446 172.954 75.3433C176.883 75.4419 180.631 77.9717 182.09 81.5001C183.548 85.0285 182.64 89.3528 179.879 92.0581C177.119 94.7634 171.292 94.7964 169.612 94.2864C167.932 93.7764 162.832 90.2293 162.832 85.5532Z" fill="white"/>
<path fill-rule="evenodd" clip-rule="evenodd" d="M172.466 79.7619C173.877 79.649 175.325 80.1635 176.348 81.1404C177.934 82.6542 178.343 85.258 177.299 87.1851C176.255 89.1123 173.85 90.1912 171.716 89.6897C169.684 89.2121 168.056 87.3506 167.854 85.2728C167.651 83.195 168.89 81.0545 170.791 80.1939C171.319 79.9551 171.889 79.8082 172.466 79.7619M174.913 80.7362C174.415 80.3694 173.866 80.0624 173.273 79.9439C172.598 79.8092 171.891 79.9274 171.257 80.214C169.648 80.9426 168.551 82.8299 168.656 84.712C168.761 86.594 170.068 88.3309 171.755 88.811C173.443 89.2911 175.379 88.4676 176.3 86.8661C177.221 85.2646 177.042 83.0132 175.871 81.615C175.59 81.2785 175.261 80.9914 174.913 80.7362V80.7362Z" fill="#00160A"/>
<path fill-rule="evenodd" clip-rule="evenodd" d="M78.106 86.1528C78.071 85.607 78.0752 85.0556 78.1717 84.5172C78.2449 84.1089 78.3703 83.712 78.4953 83.3165C78.765 82.4638 79.0356 81.6086 79.4051 80.7942C81.2168 76.8018 85.5477 74.0976 89.9305 74.2115C94.3132 74.3253 98.4935 77.2443 100.12 81.3156C101.747 85.3868 100.733 90.3763 97.6549 93.4979C94.5763 96.6194 89.6088 97.7031 85.5059 96.1577C81.4031 94.6124 78.3869 90.5281 78.106 86.1528" fill="white"/>
<path fill-rule="evenodd" clip-rule="evenodd" d="M89.8633 36.8271C89.8858 38.5602 89.4428 40.4136 90.2446 41.9502C91.7299 44.7968 95.9009 44.2678 98.969 43.3213C96.4474 40.4514 93.9258 37.5814 91.4042 34.7115C96.628 29.3778 101.852 24.0441 107.076 18.7105C107.511 18.2657 108.014 17.7905 108.636 17.7784C109.354 17.7644 109.915 18.3648 110.375 18.9162C112.086 20.9686 113.797 23.021 115.508 25.0734C116.918 26.7644 118.26 29.5032 116.535 30.8704C123.008 30.4311 129.482 29.9918 135.956 29.5525C134.744 22.6286 136.971 14.1061 139.17 7.42968C139.389 6.76422 139.654 6.04048 140.262 5.69233C140.688 5.44846 141.204 5.4387 141.695 5.43531C153.514 5.3538 165.333 5.27229 177.153 5.19078C177.869 5.18585 178.624 5.19086 179.243 5.55123C179.773 5.86047 180.131 6.39077 180.466 6.90574C190.465 22.2781 196.708 41.5847 198.503 59.835C198.728 62.1242 201.662 78.5178 198.503 79.0041C183.46 81.3197 186.408 67.6858 170.521 69.6803C157.467 71.319 159.933 79.0041 152.388 80.5015C145.611 81.8466 122.494 82.1809 115 82.5562C104.72 83.0711 103.994 67.5303 88.3385 68.1617C72.6834 68.7932 73.0418 86.5687 64.608 84.5338C64.2563 84.449 60.4379 82.2281 60.3518 81.962C59.109 78.1211 58.1771 64.0628 58.1771 64.0628L55.2331 63.4089C55.2331 63.4089 55.0169 56.1514 55.2331 55.9197C55.6142 55.5112 62.2878 56.2439 65.1761 55.9197C64.3228 49.9943 63.4695 44.069 62.6162 38.1437C62.5426 37.632 62.4789 37.0697 62.757 36.634C63.0662 36.1495 63.6871 35.9891 64.2496 35.8716C71.7761 34.2991 79.435 33.3609 87.1185 33.0703C88.8505 33.0048 89.8409 35.0939 89.8633 36.8271Z" fill="white"/>
<path fill-rule="evenodd" clip-rule="evenodd" d="M74.6754 52.9929L71.2873 53.2342L69.3828 34.9048L72.3496 34.417L74.6754 52.9929Z" fill="#FFB61D"/>
<path fill-rule="evenodd" clip-rule="evenodd" d="M154.689 18.0817C155.606 17.9052 173.208 30.1203 173.026 30.3185C172.843 30.5167 154.326 18.1515 154.689 18.0817Z" fill="#E7EAEE"/>
<path fill-rule="evenodd" clip-rule="evenodd" d="M162.238 18.0818C162.95 17.955 171.971 24.0544 171.721 24.4097C171.47 24.765 161.783 18.1628 162.238 18.0818Z" fill="#E7EAEE"/>
<path fill-rule="evenodd" clip-rule="evenodd" d="M152.803 21.8562C152.461 21.2516 162.557 28.2372 162.286 28.1841C159.685 27.6756 152.904 22.0337 152.803 21.8562Z" fill="#E7EAEE"/>
<path fill-rule="evenodd" clip-rule="evenodd" d="M151.61 41.5637C151.832 41.7387 151.741 42.1362 151.491 42.2671C151.241 42.398 150.923 42.3107 150.701 42.1353C150.035 41.6073 150.174 40.4881 150.757 39.8698C151.34 39.2516 152.205 39.0053 153.026 38.7848C153.366 38.6933 153.707 38.6018 154.047 38.5104C154.742 38.3237 155.48 38.1371 156.17 38.3436C156.859 38.5501 157.433 39.3141 157.165 39.9819C156.997 40.4021 156.552 40.6563 156.107 40.7368C155.661 40.8172 155.204 40.7561 154.753 40.7254C153.866 40.6649 152.971 40.723 152.099 40.8977C151.928 40.9319 151.748 40.9761 151.625 41.1003C151.503 41.2246 151.473 41.4556 151.61 41.5637Z" fill="#00160A"/>
<path fill-rule="evenodd" clip-rule="evenodd" d="M156.075 79.6354C155.845 80.5889 155.614 81.5424 155.384 82.4959C155.313 82.7874 155.236 83.0927 155.031 83.3121C154.727 83.6383 154.235 83.6849 153.79 83.7104C139.778 84.5132 125.755 85.1273 111.726 85.5522C110.777 85.581 109.884 85.04 109.261 84.3239C108.639 83.6077 108.243 82.7274 107.855 81.8612C108.469 81.713 109.05 82.2009 109.423 82.7094C109.797 83.2179 110.126 83.8181 110.706 84.0656C111.088 84.2284 111.519 84.209 111.934 84.1867C125.557 83.4552 139.18 82.7237 152.804 81.9922C153.295 81.9658 153.827 81.9228 154.192 81.5933C154.567 81.2542 154.658 80.7104 154.877 80.2549C155.097 79.7993 155.637 79.3834 156.075 79.6354V79.6354Z" fill="#00160A"/>
<path fill-rule="evenodd" clip-rule="evenodd" d="M51.257 87.7808C50.5946 87.0732 49.7572 86.5306 48.8406 86.2153C48.2184 86.0012 47.5054 85.8985 46.9212 86.2013C46.3369 86.5041 46.011 87.3397 46.422 87.8537C46.6382 88.1242 46.15 88.3805 45.8118 88.4546C44.8009 88.6763 44.0382 89.7969 44.3247 90.7913C44.6111 91.7857 46.002 92.3042 46.8043 91.6506C47.0948 91.4139 47.2895 91.0684 47.6043 90.8652C47.9191 90.662 48.4496 90.7048 48.5464 91.0668C48.7504 91.8299 49.4463 92.4364 50.2301 92.5343C50.742 92.5982 51.3477 92.3892 51.5064 91.8984C51.7874 91.0287 50.5048 90.1278 50.9415 89.3249C51.1618 88.9201 51.6945 88.8328 52.1536 88.7915C53.908 88.6337 55.6623 88.4759 57.4167 88.3181C57.7105 88.2917 58.094 88.3221 58.1771 88.6051C58.1799 88.9464 57.7474 89.0882 57.4087 89.1304C55.5828 89.3574 53.7569 89.5844 51.931 89.8114C52.7798 90.5318 52.864 91.961 52.146 92.8117C51.4279 93.6625 50.0555 93.8371 49.1159 93.2401C48.8026 93.0409 48.5355 92.7709 48.2061 92.5997C47.8766 92.4284 47.4413 92.3776 47.156 92.6152C46.5111 93.1523 45.5385 93.0073 44.7668 92.6774C44.0018 92.3505 43.247 91.7928 43.0689 90.9801C42.8925 90.1749 43.3323 89.3635 43.8523 88.7238C44.3724 88.0842 45.0005 87.5051 45.313 86.7422C45.7713 85.6232 47.1246 85.0661 48.3235 85.2243C49.5223 85.3826 50.5719 86.1123 51.4451 86.9489C52.0073 87.4876 52.9192 87.2763 53.6624 87.044C54.4056 86.8116 55.3389 86.64 55.8594 87.2191C54.7878 87.4624 53.7161 87.7057 52.6445 87.9491C52.1676 88.0574 51.5912 88.1379 51.257 87.7808Z" fill="#E7EAEE"/>
<path fill-rule="evenodd" clip-rule="evenodd" d="M72.7132 86.7432C72.6616 85.9387 72.6678 85.126 72.81 84.3325C72.9178 83.7307 73.1026 83.1458 73.287 82.5629C73.6844 81.306 74.0832 80.0456 74.6279 78.8452C77.2981 72.9609 83.6813 68.9754 90.1409 69.1432C96.6005 69.3109 102.762 73.6132 105.159 79.6137C107.557 85.6142 106.063 92.9681 101.526 97.5688C96.9883 102.17 89.6668 103.767 83.6197 101.489C77.5726 99.2115 73.1272 93.1917 72.7132 86.7432M76.1012 80.7239C75.8141 81.4873 75.5901 82.2875 75.591 83.1031C75.5937 85.604 75.7907 88.1414 76.6397 90.4938C78.4239 95.4381 83.2337 99.1395 88.4683 99.6177C93.7029 100.096 99.0947 97.3367 101.786 92.8215C104.477 88.3063 104.343 82.2632 101.472 77.8606C98.6002 73.4579 93.1366 70.9009 87.9141 71.4967C82.6916 72.0926 77.9514 75.804 76.1012 80.7239H76.1012Z" fill="#00160A"/>
<path fill-rule="evenodd" clip-rule="evenodd" d="M178.322 71.4827C183.798 73.7844 187.61 79.579 187.555 85.5188C187.5 91.4585 183.582 97.1818 178.065 99.3821C172.547 101.582 165.766 100.126 161.639 95.8538C157.512 91.5818 156.29 84.7545 158.679 79.3162C159.244 78.0303 160.009 76.8022 161.095 75.9117C163.557 73.8932 166.106 71.8312 169.151 70.9031C172.141 69.992 175.441 70.2716 178.322 71.4827ZM165.584 74.3575C164.865 74.8171 164.186 75.3538 163.654 76.0214C163.092 76.7276 162.712 77.558 162.337 78.3792C161.775 79.61 161.211 80.8479 160.86 82.1547C159.656 86.6454 161.285 91.7626 164.847 94.7502C168.41 97.7377 173.716 98.4539 177.954 96.5412C182.191 94.6285 185.16 90.1918 185.338 85.5458C185.515 80.8998 182.906 76.2605 178.856 73.9764C174.807 71.6924 169.502 71.8536 165.584 74.3575Z" fill="#00160A"/>
<path fill-rule="evenodd" clip-rule="evenodd" d="M173.482 10.5188C163.984 10.721 154.487 10.9232 144.989 11.1254C144.752 11.1305 144.49 11.1461 144.324 11.3152C144.216 11.4244 144.171 11.5784 144.13 11.7261C142.024 19.4072 143.73 27.5451 145.161 35.38C146.053 40.2647 146.835 45.1694 147.507 50.0892C147.99 53.6321 148.417 57.1949 148.387 60.7705C148.377 61.9074 149.176 62.9351 150.172 63.4843C151.167 64.0335 152.332 64.1818 153.468 64.2369C155.86 64.353 158.27 64.0986 160.585 63.4855C161.016 63.3713 161.463 63.2437 161.902 63.3257C162.34 63.4077 162.762 63.7762 162.735 64.2214C162.705 64.7363 162.148 65.0322 161.662 65.2051C158.605 66.2926 155.249 66.5263 152.071 65.873C150.546 65.5596 148.956 64.968 148.082 63.6797C147.585 62.9469 147.372 62.063 147.179 61.1988C145.232 52.5037 144.26 43.6241 143.311 34.7645C142.448 26.713 141.6 18.5986 142.324 10.5335C142.346 10.2842 142.373 10.0249 142.506 9.81241C142.789 9.35686 143.416 9.29497 143.952 9.2818C153.999 9.03509 164.045 8.78839 174.091 8.54169C174.66 8.5277 175.273 8.52562 175.743 8.84786C176.089 9.08561 176.306 9.46621 176.51 9.83351C180.152 16.3718 183.795 22.9101 187.437 29.4483C188.165 30.7565 188.917 32.2591 188.464 33.6862C188.128 34.7446 187.169 35.5123 186.128 35.8992C185.088 36.286 183.959 36.3492 182.85 36.4083C180.859 36.5146 178.869 36.6208 176.878 36.7271C171.961 36.9895 167.044 37.2519 162.126 37.5144C161.844 37.5294 161.529 37.5333 161.32 37.3427C161.016 37.0646 161.147 36.5211 161.472 36.2672C161.797 36.0133 162.234 35.9689 162.644 35.9343C170.065 35.3085 177.486 34.6827 184.907 34.0569C185.488 34.0078 185.892 33.3972 185.918 32.8141C185.944 32.231 185.691 31.6758 185.443 31.1477C182.228 24.3158 178.747 17.609 175.01 11.0479C174.729 10.5546 174.049 10.5068 173.482 10.5188V10.5188Z" fill="#00160A"/>
<path fill-rule="evenodd" clip-rule="evenodd" d="M83.9152 76.1242C87.2342 74.2872 91.552 74.502 94.7475 76.5463C97.943 78.5906 99.9339 82.3408 99.9758 86.134C100.018 89.9976 97.924 93.9558 94.425 95.5949C93.2052 96.1663 91.8609 96.4508 90.5149 96.5033C85.61 96.6947 80.7022 93.4693 79.1305 88.8191C77.5588 84.1688 79.6205 78.5012 83.9152 76.1242M91.4907 94.8413C92.7802 94.6264 94.0331 94.1662 95.1299 93.4548C96.2539 92.7258 97.2069 91.7348 97.8915 90.5832C99.6735 87.5856 99.4457 83.5594 97.4677 80.6873C95.4898 77.8151 91.912 76.1766 88.4312 76.389C87.1336 76.4682 85.8455 76.7874 84.6855 77.3743C80.6826 79.3996 78.8445 84.7447 80.5382 88.8987C82.232 93.0528 87.0657 95.579 91.4907 94.8413L91.4907 94.8413Z" fill="#00160A"/>
<path fill-rule="evenodd" clip-rule="evenodd" d="M118.632 69.4415C118.054 68.9281 117.131 68.9545 116.568 68.4252C116.727 67.8512 117.257 67.4741 117.629 67.0091C118.508 65.91 118.416 64.1551 117.426 63.1543C116.925 62.648 116.199 62.2603 116.066 61.5607C117.101 61.3829 118.147 61.0492 118.927 60.3453C119.706 59.6415 120.158 58.5006 119.815 57.5079C119.71 57.203 119.534 56.9119 119.53 56.5894C119.526 56.267 119.807 55.91 120.117 55.9985C121.777 56.4722 123.718 55.368 124.159 53.6987C124.348 52.9815 125.404 53.0523 126.066 53.3859C126.729 53.7196 127.572 54.1416 128.135 53.6586C128.612 53.2497 128.699 52.3001 129.327 52.312C129.652 52.3182 129.882 52.6143 130.109 52.8473C130.891 53.6508 132.191 53.8943 133.211 53.428C133.567 53.2649 133.897 53.0224 134.285 52.96C134.672 52.8977 135.149 53.1155 135.174 53.5069C135.249 54.6907 136.542 55.636 137.693 55.3483C138.132 55.2385 138.877 55.2623 138.729 55.6899C138.275 56.9951 139.245 58.5939 140.613 58.7928C140.961 58.8435 141.331 58.8191 141.646 58.9757C141.961 59.1324 142.17 59.5794 141.933 59.8394C140.915 60.9564 141.345 63.0279 142.723 63.6482C143.094 63.8153 143.006 64.3949 142.725 64.6895C142.444 64.9842 142.039 65.1632 141.834 65.5147C141.476 66.1258 141.902 66.9048 142.421 67.3858C142.941 67.8668 143.594 68.2709 143.837 68.9357C142.859 68.5622 141.647 68.9467 141.063 69.8159C140.48 70.6851 140.582 71.9522 141.297 72.7166C140.92 73.396 139.91 73.1255 139.135 73.1937C138.193 73.2767 137.369 74.0924 137.275 75.0336C137.235 75.4431 137.316 75.8726 137.17 76.2574C137.024 76.6422 136.492 76.9203 136.201 76.6294C135.119 75.5476 133.048 75.7652 132.215 77.0483C132.017 77.353 131.821 77.7429 131.46 77.7757C130.89 77.8274 130.708 77.0038 130.244 76.6689C129.669 76.2537 128.853 76.7247 128.448 77.3074C128.044 77.8901 127.791 78.6182 127.196 79.0041C126.066 78.1743 126.409 75.8248 125.02 75.6328C124.42 75.5499 123.892 75.995 123.324 76.205C122.757 76.4149 121.881 76.1344 121.987 75.5384C122.161 74.5631 122.014 73.2632 121.056 73.0103C120.111 72.7607 118.902 73.7438 118.249 73.0157C118.956 71.9116 119.612 70.3123 118.632 69.4415ZM119.262 63.3694C118.828 64.1552 118.907 65.1085 118.826 66.0024C118.745 66.8963 118.37 67.9055 117.512 68.169C118.482 68.2379 119.389 68.8804 119.776 69.7724C120.163 70.6644 120.013 71.7661 119.4 72.5215C120.195 71.9261 121.408 72.0995 122.129 72.782C122.85 73.4644 123.109 74.5412 122.962 75.5232C123.779 74.9388 124.932 74.8647 125.818 75.3397C126.704 75.8146 127.28 76.8156 127.245 77.8201C127.489 76.9289 128.19 76.15 129.083 75.9154C129.977 75.6809 131.026 76.0624 131.475 76.8696C131.517 76.2613 132.091 75.8305 132.655 75.5999C133.864 75.1057 135.282 75.1488 136.459 75.7155C136.315 73.818 138.299 72.0767 140.162 72.4654C139.579 71.8574 139.612 70.8677 139.935 70.0902C140.344 69.11 141.299 68.2561 142.355 68.3686C141.742 68.1442 141.247 67.6194 141.059 66.9942C140.744 65.9455 141.318 64.7754 142.212 64.1423C141.084 63.9054 140.721 62.5026 140.581 61.3586C140.508 60.7623 140.543 59.9811 141.113 59.7895C139.938 59.4575 138.877 58.7346 138.139 57.7627C137.797 57.3131 137.552 56.6033 137.986 56.2418C137.086 56.1951 136.197 55.925 135.423 55.4625C134.834 55.1105 134.254 54.4655 134.477 53.8165C132.901 54.5955 130.915 54.4719 129.447 53.5033C129.003 54.2012 128.134 54.5394 127.307 54.5364C126.48 54.5333 125.683 54.2387 124.926 53.9062C125.015 54.4533 124.646 54.9676 124.246 55.3514C123.229 56.3269 121.861 56.929 120.454 57.0204C121.08 59.1719 119.413 61.6833 117.187 61.9413C117.724 62.5997 118.462 63.0815 119.262 63.3694Z" fill="#00160A"/>
<path fill-rule="evenodd" clip-rule="evenodd" d="M173.959 94.2019C172.55 94.3943 171.096 94.2573 169.748 93.805C165.471 92.3708 162.675 87.4795 163.61 83.0666C164.545 78.6536 169.084 75.3161 173.575 75.7393C178.066 76.1626 181.901 80.2893 181.995 84.7992C182.089 89.3091 178.429 93.592 173.959 94.2019M177.187 92.2963C180.192 90.4726 181.841 86.6592 181.112 83.2207C180.384 79.7821 177.329 76.9656 173.843 76.5175C170.357 76.0694 166.69 78.0219 165.115 81.1644C163.54 84.3069 164.172 88.4134 166.618 90.9377C169.287 93.6922 173.908 94.2863 177.187 92.2963Z" fill="#00160A"/>
<path fill-rule="evenodd" clip-rule="evenodd" d="M130.054 54.6824C133.888 54.6385 137.657 56.9211 139.394 60.3394C141.131 63.7576 140.753 68.1473 138.457 71.2184C136.162 74.2896 132.058 75.8946 128.288 75.1962C124.958 74.5793 122.002 72.2166 120.666 69.104C119.331 65.9914 119.656 62.2212 121.503 59.3826C123.351 56.544 126.667 54.7211 130.054 54.6824ZM139.837 64.399C139.741 62.872 139.275 61.3695 138.489 60.0564C136.094 56.0525 130.544 54.2999 126.284 56.2024C122.024 58.1049 119.625 63.4079 121.008 67.8636C122.391 72.3193 127.372 75.3314 131.96 74.4871C136.549 73.6429 140.131 69.0553 139.837 64.399V64.399Z" fill="#00160A"/>
<path fill-rule="evenodd" clip-rule="evenodd" d="M135.417 65.0525C134.693 65.8982 133.535 66.3508 132.429 66.2202C132.047 66.1751 131.457 66.2706 131.56 66.6416C132.866 67.1009 134.173 67.5603 135.48 68.0197C136.204 68.2741 136.411 69.3142 135.981 69.9492C135.55 70.5841 134.698 70.8214 133.937 70.7276C133.175 70.6338 132.478 70.2676 131.801 69.9077C131.118 69.5449 130.435 69.1821 129.752 68.8193C130.673 68.4549 131.673 69.0141 132.547 69.4824C133.42 69.9507 134.58 70.3165 135.329 69.6676C135.442 69.5694 135.543 69.4433 135.563 69.2946C135.611 68.9392 135.216 68.7025 134.884 68.5673C133.834 68.1401 132.784 67.7129 131.734 67.2856C131.204 67.0699 130.58 67.2571 130.126 67.605C129.671 67.953 129.348 68.4405 129.019 68.9085C128.322 69.8988 127.481 70.894 126.318 71.2311C125.155 71.5682 123.644 70.9101 123.525 69.7049C123.45 68.9473 123.925 68.2386 124.489 67.7263C125.052 67.2141 125.722 66.8214 126.238 66.2615C126.303 66.1909 126.368 66.1108 126.376 66.0151C126.393 65.8154 126.169 65.6924 125.981 65.623C124.967 65.249 123.954 64.875 122.94 64.501C122.502 64.3392 122.774 63.5821 123.238 63.5259C123.702 63.4698 124.109 63.8053 124.479 64.0897C125.457 64.8402 126.814 65.3661 127.906 64.794C128.684 64.3861 129.132 63.4304 128.948 62.5709C128.697 61.3996 129.136 60.1062 130.049 59.3305C130.962 58.5549 132.31 58.33 133.425 58.7672C132.574 59.1678 132.185 60.3304 132.625 61.1623C133.065 61.9942 134.244 62.3282 135.055 61.8503C135.352 61.6752 135.747 61.4167 135.986 61.6648C136.053 61.7337 136.085 61.8284 136.11 61.9207C136.41 62.993 136.141 64.2069 135.417 65.0525ZM129.948 61.7918C129.945 63.0731 130.664 64.3922 131.852 64.8707C133.041 65.3492 134.617 64.7568 135.005 63.5355C135.091 63.2638 134.943 62.8266 134.683 62.9442C133.975 63.2649 133.14 62.8941 132.542 62.3973C132.152 62.0736 131.799 61.6774 131.65 61.193C131.501 60.7087 131.598 60.1244 131.986 59.7986C131.377 59.6624 130.699 59.9173 130.33 60.4208C130.046 60.8102 129.949 61.3093 129.948 61.7918ZM124.784 69.8661C126.331 71.3953 127.252 69.3918 127.626 68.9619C128.494 67.9649 129.414 67.0133 130.382 66.1124C130.572 65.9353 130.579 65.6241 130.468 65.3888C130.358 65.1536 130.156 64.9765 129.959 64.8066C129.666 64.5538 129.195 64.6262 128.89 64.8639C128.585 65.1016 123.238 68.337 124.784 69.8661Z" fill="#FFB61D"/>
<path fill-rule="evenodd" clip-rule="evenodd" d="M89.0505 80.5169C90.4605 80.404 91.9093 80.9185 92.9324 81.8954C94.5177 83.4092 94.9271 86.013 93.8828 87.9402C92.8385 89.8673 90.4336 90.9462 88.2998 90.4447C86.2676 89.9671 84.6399 88.1056 84.4376 86.0278C84.2353 83.95 85.4735 81.8095 87.3755 80.9489C87.9034 80.7101 88.4728 80.5632 89.0505 80.5169M91.4979 82.1042C90.9989 81.7648 90.4504 81.4807 89.857 81.3711C89.182 81.2465 88.475 81.3558 87.8419 81.6211C86.2327 82.2952 85.1357 84.0416 85.2405 85.7832C85.3453 87.5247 86.6526 89.132 88.3398 89.5762C90.027 90.0205 91.9638 89.2584 92.8846 87.7765C93.8055 86.2945 93.6261 84.2113 92.4556 82.9174C92.174 82.6061 91.845 82.3404 91.4979 82.1042V82.1042Z" fill="#00160A"/>
<path fill-rule="evenodd" clip-rule="evenodd" d="M89.8625 34.5624C89.8849 36.2955 89.442 38.1489 90.2438 39.6856C91.729 42.5322 95.9 42.0031 98.9682 41.0567C96.4465 38.1867 93.9249 35.3168 91.4033 32.4468C96.6271 27.1131 101.851 21.7795 107.075 16.4458C107.51 16.0011 108.013 15.5258 108.635 15.5137C109.353 15.4997 109.914 16.1001 110.374 16.6515C112.085 18.7039 113.796 20.7563 115.507 22.8087C116.917 24.4997 118.26 27.2385 116.534 28.6057C123.008 28.1664 129.481 27.7271 135.955 27.2879C134.743 20.3639 136.97 13.3512 139.169 6.6748C139.389 6.00934 139.654 5.2856 140.262 4.93745C140.688 4.69358 141.203 4.68381 141.694 4.68043C153.513 4.59892 165.333 4.51741 177.152 4.4359C177.868 4.43096 178.623 4.43597 179.242 4.79635C179.772 5.10559 180.13 5.63589 180.465 6.15086C190.464 21.5232 196.707 39.3201 198.502 57.5703C198.727 59.8595 198.974 62.3609 200.59 63.998C203.049 66.4903 203.314 70.8334 201.175 73.606C202.748 74.7475 202.36 77.383 200.919 78.6877C199.479 79.9924 197.432 80.3258 195.508 80.6033C192.955 80.9716 190.178 81.3003 187.947 80.0075C191.602 79.151 195.262 78.3146 198.926 77.4985C197.301 66.7945 195.675 56.0904 194.05 45.3864C193.514 41.8566 192.975 38.3144 191.976 34.8868C190.9 31.1959 189.303 27.6815 187.711 24.1819C185.204 18.67 182.698 13.1581 180.191 7.64621C179.918 7.04566 179.622 6.41666 179.083 6.03557C178.431 5.57406 177.57 5.57515 176.771 5.59417C165.644 5.85904 154.518 6.12392 143.391 6.3888C142.749 6.40407 142.058 6.4364 141.554 6.83363C141.139 7.16038 140.929 7.67623 140.747 8.17195C136.366 20.144 138.933 33.4062 141.545 45.8842C142.025 48.1766 138.912 49.3477 136.578 49.5522C109.942 51.8874 83.3058 54.2226 56.6695 56.5577C56.3428 58.6695 56.2506 60.8176 56.3953 62.9496C58.168 63.1055 59.9407 63.2613 61.7135 63.4172C61.1512 63.6385 60.589 63.8598 60.0267 64.0812C61.0749 69.5899 61.6543 75.1878 61.7566 80.7944C61.7878 82.5007 63.2667 83.9047 64.8957 84.4133C66.5247 84.9219 68.279 84.7327 69.9745 84.5386C68.1697 85.2942 66.289 86.064 64.3347 85.9682C62.3805 85.8725 60.3342 84.64 59.9736 82.7169C58.8425 76.6866 58.1912 70.5664 58.0277 64.4331C57.0007 64.4581 55.9736 64.4831 54.9465 64.5081C54.5993 61.9416 54.4596 59.3471 54.529 56.7582C54.544 56.201 54.5891 55.5924 54.9694 55.1849C55.3504 54.7765 55.9554 54.6901 56.5105 54.6278C59.3988 54.3035 62.287 53.9793 65.1752 53.655C64.322 47.7297 63.4687 41.8043 62.6154 35.879C62.5417 35.3673 62.4781 34.8051 62.7562 34.3693C63.0653 33.8849 63.6862 33.7244 64.2488 33.6069C71.7753 32.0344 79.4342 31.0963 87.1177 30.8056C88.8497 30.7401 89.84 32.8293 89.8625 34.5624ZM66.2658 53.0569C66.285 53.225 66.3138 53.4112 66.4463 53.5163C66.5752 53.6185 66.7572 53.608 66.9209 53.5924C74.478 52.8748 82.0352 52.1573 89.5923 51.4397C89.8009 51.4199 90.0384 51.3834 90.1523 51.2075C90.2416 51.0695 90.2232 50.8908 90.2015 50.7279C89.4292 44.9294 88.6569 39.1309 87.8846 33.3324C87.8634 33.1732 87.8375 33.0033 87.7297 32.8842C87.5849 32.7241 87.3435 32.7074 87.1276 32.7027C79.6605 32.5393 72.1737 33.3 64.892 34.9621C64.6938 35.0073 64.4768 35.0658 64.3635 35.2346C64.2574 35.3928 64.2748 35.6003 64.2964 35.7896C64.9529 41.5454 65.6094 47.3012 66.2658 53.0569ZM136.575 29.8761C136.543 29.6073 136.487 29.3003 136.253 29.1633C136.104 29.076 135.921 29.0831 135.748 29.0928C129.02 29.4727 122.292 29.8525 115.564 30.2324C115.416 30.2408 115.256 30.2537 115.143 30.3511C114.98 30.4931 114.989 30.7452 115.012 30.9607C115.628 36.7697 116.244 42.5787 116.86 48.3877C116.879 48.5705 116.905 48.7688 117.036 48.8987C117.203 49.0657 117.472 49.0554 117.708 49.0338C124.689 48.3939 131.67 47.7539 138.651 47.1139C137.959 41.3679 137.267 35.622 136.575 29.8761ZM100.435 39.6635C100.533 39.7526 100.64 39.8461 100.772 39.8616C100.958 39.8835 101.12 39.745 101.256 39.6159C105.804 35.2933 111.107 31.7257 115.655 27.4031C115.86 27.2084 116.081 26.9774 116.071 26.695C116.065 26.5057 115.954 26.338 115.847 26.1819C114.034 23.5442 111.352 20.2299 109.318 17.7586C109.118 17.5159 108.861 17.2498 108.549 17.2894C108.35 17.3147 108.191 17.461 108.046 17.6002C103.023 22.4401 97.9987 27.2801 92.9749 32.12C92.863 32.2278 92.7429 32.3542 92.745 32.5096C92.7472 32.6652 92.8712 32.7885 92.9863 32.8932C95.4691 35.1499 97.9519 37.4067 100.435 39.6635ZM114.973 42.0398C114.934 41.7906 114.879 41.5142 114.673 41.3686C114.49 41.2394 114.246 41.2552 114.023 41.2764C107.068 41.9386 100.114 42.6008 93.1591 43.2629C92.7956 43.2975 92.3695 43.3736 92.2113 43.7026C92.1242 43.8838 92.1458 44.096 92.1694 44.2957C92.4041 46.2816 92.6388 48.2675 92.8735 50.2534C92.9066 50.5334 92.9599 50.8484 93.1929 51.007C93.3794 51.134 93.6244 51.1194 93.8491 51.0999C101.042 50.4761 108.234 49.8523 115.427 49.2285C115.606 49.213 115.806 49.1869 115.918 49.0467C116.034 48.9023 116.012 48.6949 115.983 48.5118C115.646 46.3545 115.31 44.1971 114.973 42.0398ZM113.527 31.6685C113.51 31.548 113.454 31.3931 113.333 31.4025C113.282 31.4065 113.239 31.4421 113.2 31.4759C109.623 34.6015 106.045 37.7271 102.468 40.8527C106.188 40.5408 109.904 40.1862 113.616 39.7889C113.935 39.7548 114.303 39.6888 114.455 39.4067C114.555 39.2225 114.529 38.9987 114.501 38.7912C114.176 36.417 113.852 34.0427 113.527 31.6685ZM199.862 65.1354C200.205 67.1128 200.547 69.0902 200.89 71.0677C200.924 71.2639 200.994 71.5 201.189 71.5428C201.505 71.6123 201.614 71.137 201.571 70.8163C201.339 69.1052 201.107 67.3941 200.875 65.683C200.834 65.3767 200.773 65.037 200.526 64.852C200.278 64.667 199.809 64.8308 199.862 65.1354Z" fill="#00160A"/>
<path fill-rule="evenodd" clip-rule="evenodd" d="M29.737 104.337C23.128 104.441 0.400144 106.126 0.00752739 105.282C-0.494764 104.203 24.2898 102.785 29.6923 102.699L31.3845 102.676C36.2966 102.623 29.737 104.337 29.737 104.337ZM80.2163 102.272C81.8212 102.272 83.0776 102.792 81.9971 103.171C80.9166 103.551 77.4203 104.349 71.5656 104.484C65.7109 104.618 58.9246 104.758 48.8969 104.955C48.3154 104.967 47.8347 104.504 47.8233 103.923C47.8118 103.342 48.2739 102.861 48.8554 102.849L66.6121 102.488C72.003 102.371 75.3772 102.272 80.2163 102.272ZM160.425 101.655C161.007 101.646 161.486 102.11 161.495 102.692C161.504 103.273 161.04 103.752 160.459 103.761L157.991 103.792L150.441 103.844C148.922 103.859 87.4506 104.252 86.6171 103.351C85.7837 102.449 87.0627 102.286 87.6441 102.272C87.6441 102.272 150.421 101.736 152.063 101.724L158.341 101.682C159.071 101.675 159.731 101.666 160.425 101.655ZM228.672 99.6297C228.672 99.6297 230.562 99.3034 244.366 100.337C244.946 100.38 245.381 100.886 245.337 101.466C245.294 102.046 238.468 101.753 229.137 101.736L226.57 101.74C219.718 101.771 213.353 101.956 202.789 102.391L189.455 102.954C183.765 103.187 180.37 103.301 176.242 103.398C175.661 103.412 175.179 102.952 175.165 102.37C175.151 101.789 175.611 101.306 176.193 101.293L179.508 101.206C183.451 101.092 187.503 100.933 194.687 100.627L202.306 100.303C214.217 99.8106 220.841 99.6297 228.672 99.6297Z" fill="#00160A"/>
</svg>
