<svg width="15" height="15" viewBox="0 0 15 15" fill="none" xmlns="http://www.w3.org/2000/svg">
<path d="M0.997094 1.49609C0.997094 1.36349 1.04977 1.23631 1.14354 1.14254C1.23731 1.04877 1.36449 0.996094 1.49709 0.996094H1.93509C2.66209 0.996094 3.08009 1.46909 3.32209 1.94109C3.48709 2.26409 3.60609 2.65809 3.70509 3.00009H14.0001C14.1546 3.00014 14.307 3.03599 14.4453 3.10484C14.5837 3.17368 14.7042 3.27365 14.7974 3.39689C14.8906 3.52013 14.954 3.66329 14.9825 3.81514C15.0111 3.96699 15.0041 4.1234 14.9621 4.27209L13.4661 9.54709C13.3471 9.9656 13.0949 10.3339 12.7477 10.5961C12.4004 10.8583 11.9772 11.0001 11.5421 11.0001H6.46309C6.02437 11.0002 5.59777 10.8561 5.24901 10.59C4.90026 10.3238 4.6487 9.95031 4.53309 9.52709L3.89109 7.17209C3.88741 7.16154 3.88408 7.15087 3.88109 7.14009L2.85009 3.64309L2.75009 3.30609C2.65009 2.96009 2.56209 2.65409 2.43009 2.39709C2.27109 2.08709 2.12509 1.99709 1.93409 1.99709H1.49609C1.36349 1.99709 1.23631 1.94442 1.14254 1.85065C1.04877 1.75688 0.996094 1.6297 0.996094 1.49709L0.997094 1.49609ZM4.84509 6.87009L5.49809 9.26609C5.55599 9.47761 5.68181 9.66423 5.85618 9.79722C6.03055 9.93021 6.2438 10.0022 6.46309 10.0021H11.5431C11.7605 10.0019 11.972 9.93078 12.1454 9.7996C12.3188 9.66841 12.4447 9.48428 12.5041 9.27509L14.0001 4.00009H4.00009L4.84509 6.86909V6.87009Z" fill="#FAFAFA"/>
<path d="M8 13.5C8 13.8978 7.84196 14.2794 7.56066 14.5607C7.27936 14.842 6.89782 15 6.5 15C6.10218 15 5.72064 14.842 5.43934 14.5607C5.15804 14.2794 5 13.8978 5 13.5C5 13.1022 5.15804 12.7206 5.43934 12.4393C5.72064 12.158 6.10218 12 6.5 12C6.89782 12 7.27936 12.158 7.56066 12.4393C7.84196 12.7206 8 13.1022 8 13.5ZM7 13.5C7 13.3674 6.94732 13.2402 6.85355 13.1464C6.75979 13.0527 6.63261 13 6.5 13C6.36739 13 6.24021 13.0527 6.14645 13.1464C6.05268 13.2402 6 13.3674 6 13.5C6 13.6326 6.05268 13.7598 6.14645 13.8536C6.24021 13.9473 6.36739 14 6.5 14C6.63261 14 6.75979 13.9473 6.85355 13.8536C6.94732 13.7598 7 13.6326 7 13.5Z" fill="#FAFAFA"/>
<path d="M13 13.5C13 13.8978 12.842 14.2794 12.5607 14.5607C12.2794 14.842 11.8978 15 11.5 15C11.1022 15 10.7206 14.842 10.4393 14.5607C10.158 14.2794 10 13.8978 10 13.5C10 13.1022 10.158 12.7206 10.4393 12.4393C10.7206 12.158 11.1022 12 11.5 12C11.8978 12 12.2794 12.158 12.5607 12.4393C12.842 12.7206 13 13.1022 13 13.5ZM12 13.5C12 13.3674 11.9473 13.2402 11.8536 13.1464C11.7598 13.0527 11.6326 13 11.5 13C11.3674 13 11.2402 13.0527 11.1464 13.1464C11.0527 13.2402 11 13.3674 11 13.5C11 13.6326 11.0527 13.7598 11.1464 13.8536C11.2402 13.9473 11.3674 14 11.5 14C11.6326 14 11.7598 13.9473 11.8536 13.8536C11.9473 13.7598 12 13.6326 12 13.5Z" fill="#FAFAFA"/>
</svg>
