<svg width="27" height="28" viewBox="0 0 27 28" fill="none" xmlns="http://www.w3.org/2000/svg">
<path d="M19.3276 18.3102C22.6501 16.4857 25.1692 15.0956 25.3863 14.9876C26.0806 14.6181 26.798 13.6406 25.3863 12.8814C24.9305 12.6426 22.4763 11.2956 19.3276 9.55884L14.9629 13.9668L19.3274 18.3102H19.3276Z" fill="#FFD900"/>
<path d="M14.9628 13.9668L1.06445 27.9743C1.39045 28.0176 1.75878 27.931 2.1932 27.6923C3.10486 27.1934 12.7688 21.9156 19.3278 18.3111L14.9628 13.9668Z" fill="#F43249"/>
<path d="M14.9627 13.9667L19.3272 9.5801C19.3272 9.5801 3.17064 0.762907 2.19288 0.24264C1.82503 0.0238806 1.41224 -0.0407961 1.04297 0.0238806L14.9627 13.9665V13.9667Z" fill="#00EE76"/>
<path d="M14.9624 13.9711L1.04244 0.0285645C0.477466 0.159107 0 0.658211 0 1.67853V26.3279C0 27.2624 0.369513 27.9353 1.06384 28L14.9622 13.9709L14.9624 13.9711Z" fill="#00D3FF"/>
</svg>
