<svg width="61" height="61" viewBox="0 0 61 61" fill="none" xmlns="http://www.w3.org/2000/svg">
<g filter="url(#filter0_d)">
<path fill-rule="evenodd" clip-rule="evenodd" d="M30.5 49C41.8218 49 51 39.8218 51 28.5C51 17.1782 41.8218 8 30.5 8C19.1782 8 10 17.1782 10 28.5C10 39.8218 19.1782 49 30.5 49Z" fill="white"/>
</g>
<g clip-path="url(#clip0)">
<rect width="14.5778" height="14.5778" transform="translate(23.666 20.7554)" fill="white"/>
<path d="M36.1084 20.7554H25.8014C24.6241 20.7554 23.666 21.7135 23.666 22.8908V33.1977C23.666 34.3753 24.6241 35.3331 25.8014 35.3331H36.1084C37.286 35.3331 38.2438 34.3753 38.2438 33.1977V22.8908C38.2438 21.7135 37.286 20.7554 36.1084 20.7554ZM37.3896 33.1977C37.3896 33.9041 36.8148 34.479 36.1084 34.479H25.8014C25.095 34.479 24.5202 33.9041 24.5202 33.1977V22.8908C24.5202 22.1844 25.095 21.6095 25.8014 21.6095H36.1084C36.8148 21.6095 37.3896 22.1844 37.3896 22.8908V33.1977Z" fill="#080808"/>
<path d="M35.653 22.4922C35.1821 22.4922 34.7988 22.8754 34.7988 23.3464C34.7988 23.8173 35.1821 24.2005 35.653 24.2005C36.1239 24.2005 36.5072 23.8173 36.5072 23.3464C36.5072 22.8754 36.1239 22.4922 35.653 22.4922Z" fill="#080808"/>
<path d="M30.9551 24.2007C28.8356 24.2007 27.1113 25.925 27.1113 28.0444C27.1113 30.1639 28.8356 31.8882 30.9551 31.8882C33.0746 31.8882 34.7988 30.1639 34.7988 28.0444C34.7988 25.925 33.0746 24.2007 30.9551 24.2007ZM30.9551 31.034C29.3065 31.034 27.9655 29.693 27.9655 28.0444C27.9655 26.3959 29.3065 25.0549 30.9551 25.0549C32.6036 25.0549 33.9447 26.3959 33.9447 28.0444C33.9447 29.693 32.6036 31.034 30.9551 31.034Z" fill="#080808"/>
</g>
<defs>
<filter id="filter0_d" x="0" y="0" width="61" height="61" filterUnits="userSpaceOnUse" color-interpolation-filters="sRGB">
<feFlood flood-opacity="0" result="BackgroundImageFix"/>
<feColorMatrix in="SourceAlpha" type="matrix" values="0 0 0 0 0 0 0 0 0 0 0 0 0 0 0 0 0 0 127 0" result="hardAlpha"/>
<feOffset dy="2"/>
<feGaussianBlur stdDeviation="5"/>
<feColorMatrix type="matrix" values="0 0 0 0 0 0 0 0 0 0 0 0 0 0 0 0 0 0 0.1 0"/>
<feBlend mode="normal" in2="BackgroundImageFix" result="effect1_dropShadow"/>
<feBlend mode="normal" in="SourceGraphic" in2="effect1_dropShadow" result="shape"/>
</filter>
<clipPath id="clip0">
<rect width="14.5778" height="14.5778" fill="white" transform="translate(23.666 20.7554)"/>
</clipPath>
</defs>
</svg>
