<svg width="24" height="24" viewBox="0 0 24 24" fill="none" xmlns="http://www.w3.org/2000/svg">
<path d="M16 10L15.8 11H13.5C13.3674 11 13.2402 11.0527 13.1464 11.1464C13.0527 11.2402 13 11.3674 13 11.5C13 11.6326 13.0527 11.7598 13.1464 11.8536C13.2402 11.9473 13.3674 12 13.5 12H15.6L14.6 17H12.5C12.3674 17 12.2402 17.0527 12.1464 17.1464C12.0527 17.2402 12 17.3674 12 17.5C12 17.6326 12.0527 17.7598 12.1464 17.8536C12.2402 17.9473 12.3674 18 12.5 18H14.4L14 20C14 20.5304 13.7893 21.0391 13.4142 21.4142C13.0391 21.7893 12.5304 22 12 22C11.4696 22 10.9609 21.7893 10.5858 21.4142C10.2107 21.0391 10 20.5304 10 20L9 15H10.5C10.6326 15 10.7598 14.9473 10.8536 14.8536C10.9473 14.7598 11 14.6326 11 14.5C11 14.3674 10.9473 14.2402 10.8536 14.1464C10.7598 14.0527 10.6326 14 10.5 14H8.8L8 10C8 8.8 8.93 7.77 10.29 7.29L8.9 5.28C8.82542 5.17179 8.77298 5.0499 8.74568 4.92135C8.71838 4.79279 8.71676 4.66011 8.74092 4.53093C8.76509 4.40175 8.81455 4.27862 8.88647 4.16862C8.95839 4.05863 9.05135 3.96394 9.16 3.89C9.26765 3.81506 9.38903 3.76208 9.51717 3.73409C9.64532 3.7061 9.77773 3.70364 9.90682 3.72686C10.0359 3.75008 10.1592 3.79852 10.2695 3.86941C10.3799 3.9403 10.4752 4.03225 10.55 4.14L11 4.8V3C11 2.73478 11.1054 2.48043 11.2929 2.29289C11.4804 2.10536 11.7348 2 12 2C12.2652 2 12.5196 2.10536 12.7071 2.29289C12.8946 2.48043 13 2.73478 13 3V5.28L14.5 3.54C14.83 3.12 15.47 3.07 15.89 3.43C16.31 3.78 16.36 4.41 16 4.84L13.87 7.35C15.14 7.85 16 8.85 16 10Z" fill="white"/>
</svg>
