<svg width="125" height="125" viewBox="0 0 125 125" fill="none" xmlns="http://www.w3.org/2000/svg">
<path d="M125 62.625C125 73.9583 122.208 84.4167 116.625 94C111.042 103.583 103.458 111.167 93.875 116.75C84.2917 122.333 73.8333 125.125 62.5 125.125C51.1667 125.125 40.7083 122.333 31.125 116.75C21.5417 111.167 13.9583 103.583 8.375 94C2.79167 84.4167 0 73.9583 0 62.625C0 51.2917 2.79167 40.8333 8.375 31.25C13.9583 21.6667 21.5417 14.0833 31.125 8.5C40.7083 2.91667 51.1667 0.125 62.5 0.125C73.8333 0.125 84.2917 2.91667 93.875 8.5C103.458 14.0833 111.042 21.6667 116.625 31.25C122.208 40.8333 125 51.2917 125 62.625ZM82.625 91.625L91.5 82.75L71.375 62.625L91.5 42.5L82.625 33.625L62.5 53.75L42.375 33.625L33.5 42.5L53.625 62.625L33.5 82.75L42.375 91.625L62.5 71.5L82.625 91.625Z" fill="url(#paint0_linear)"/>
<defs>
<linearGradient id="paint0_linear" x1="79.5" y1="190.5" x2="63" y2="-5.37145e-06" gradientUnits="userSpaceOnUse">
<stop offset="0.228619" stop-color="#9E1010" stop-opacity="0.56"/>
<stop offset="0.510417" stop-color="#DD1818" stop-opacity="0.83"/>
</linearGradient>
</defs>
</svg>
