<svg width="24" height="24" viewBox="0 0 24 24" fill="none" xmlns="http://www.w3.org/2000/svg">
<path d="M12.0001 1.5C12.6631 1.5 13.299 1.76339 13.7679 2.23223C14.2367 2.70107 14.5001 3.33696 14.5001 4C14.5001 4.66304 14.2367 5.29893 13.7679 5.76777C13.299 6.23661 12.6631 6.5 12.0001 6.5C11.3371 6.5 10.7012 6.23661 10.2323 5.76777C9.76349 5.29893 9.5001 4.66304 9.5001 4C9.5001 3.33696 9.76349 2.70107 10.2323 2.23223C10.7012 1.76339 11.3371 1.5 12.0001 1.5V1.5ZM15.8701 5C18.0001 5 20.0001 7 20.0001 9C22.7001 9 22.7001 13 20.0001 13H4.0001C1.3001 13 1.3001 9 4.0001 9C4.0001 7 6.0001 5 8.1301 5C8.5701 6.73 10.1401 8 12.0001 8C13.8601 8 15.4301 6.73 15.8701 5V5ZM5.0001 15H8.0001L9.0001 22H7.0001L5.0001 15ZM10.0001 15H14.0001L13.0001 22H11.0001L10.0001 15ZM16.0001 15H19.0001L17.0001 22H15.0001L16.0001 15Z" fill="white"/>
</svg>
