<svg width="44" height="44" viewBox="0 0 44 44" fill="none" xmlns="http://www.w3.org/2000/svg">
<path d="M39.1875 22.293H21.7071V4.81252C21.7071 4.59767 21.5313 4.42189 21.3164 4.42189H20.0469C17.482 4.41769 14.9415 4.9207 12.5717 5.90198C10.2019 6.88326 8.04946 8.32344 6.23831 10.1397C4.45466 11.9178 3.03348 14.0255 2.05374 16.3457C1.03423 18.7522 0.511088 21.3397 0.515655 23.9531C0.511455 26.5181 1.01446 29.0585 1.99574 31.4284C2.97702 33.7982 4.4172 35.9506 6.23343 37.7617C8.02542 39.5537 10.1153 40.9649 12.4395 41.9463C14.8459 42.9658 17.4334 43.489 20.0469 43.4844C22.6118 43.4886 25.1523 42.9856 27.5221 42.0043C29.8919 41.023 32.0443 39.5828 33.8555 37.7666C35.6475 35.9746 37.0586 33.8848 38.0401 31.5606C39.0596 29.1541 39.5827 26.5666 39.5781 23.9531V22.6836C39.5781 22.4688 39.4024 22.293 39.1875 22.293ZM31.458 35.4668C29.9461 36.967 28.1529 38.1541 26.1814 38.9602C24.2099 39.7662 22.0987 40.1753 19.9688 40.1641C15.667 40.1446 11.6241 38.46 8.58206 35.418C5.52054 32.3565 3.83597 28.2842 3.83597 23.9531C3.83597 19.6221 5.52054 15.5498 8.58206 12.4883C11.2481 9.82228 14.6807 8.19631 18.3867 7.82521V25.6133H36.1748C35.7989 29.3389 34.1582 32.791 31.458 35.4668ZM43.4844 19.5781L43.3574 18.2012C42.9424 13.7041 40.9453 9.46096 37.7324 6.25783C34.5173 3.04883 30.2829 1.06284 25.7598 0.642596L24.378 0.515643C24.1485 0.496112 23.9532 0.671893 23.9532 0.901385V19.6563C23.9532 19.8711 24.1289 20.0469 24.3438 20.0469L43.0938 19.9981C43.3233 19.9981 43.5039 19.8028 43.4844 19.5781ZM27.2637 16.7363V4.20705C30.3396 4.85084 33.1622 6.37413 35.3887 8.59181C37.6201 10.8184 39.1485 13.6504 39.7832 16.7022L27.2637 16.7363Z" fill="#FAFAFA"/>
</svg>
