<svg width="64" height="44" viewBox="0 0 64 44" fill="none" xmlns="http://www.w3.org/2000/svg">
<path d="M10.0611 18.875C13.5216 18.875 16.3351 16.0723 16.3351 12.625C16.3351 9.17773 13.5216 6.375 10.0611 6.375C6.60056 6.375 3.78704 9.17773 3.78704 12.625C3.78704 16.0723 6.60056 18.875 10.0611 18.875ZM53.9794 18.875C57.4399 18.875 60.2534 16.0723 60.2534 12.625C60.2534 9.17773 57.4399 6.375 53.9794 6.375C50.5188 6.375 47.7053 9.17773 47.7053 12.625C47.7053 16.0723 50.5188 18.875 53.9794 18.875ZM57.1164 22H50.8423C49.117 22 47.5583 22.6934 46.4211 23.8164C50.3718 25.9746 53.1755 29.8711 53.7833 34.5H60.2534C61.9886 34.5 63.3904 33.1035 63.3904 31.375V28.25C63.3904 24.8027 60.5769 22 57.1164 22ZM32.0202 22C38.0884 22 42.9998 17.1074 42.9998 11.0625C42.9998 5.01758 38.0884 0.125 32.0202 0.125C25.952 0.125 21.0406 5.01758 21.0406 11.0625C21.0406 17.1074 25.952 22 32.0202 22ZM39.5491 25.125H38.7354C36.6963 26.1016 34.4318 26.6875 32.0202 26.6875C29.6086 26.6875 27.3539 26.1016 25.305 25.125H24.4914C18.2565 25.125 13.1981 30.1641 13.1981 36.375V39.1875C13.1981 41.7754 15.3058 43.875 17.9036 43.875H46.1368C48.7346 43.875 50.8423 41.7754 50.8423 39.1875V36.375C50.8423 30.1641 45.7839 25.125 39.5491 25.125ZM17.6193 23.8164C16.4822 22.6934 14.9235 22 13.1981 22H6.92406C3.46354 22 0.650024 24.8027 0.650024 28.25V31.375C0.650024 33.1035 2.05188 34.5 3.78704 34.5H10.2473C10.8649 29.8711 13.6687 25.9746 17.6193 23.8164Z" fill="#FAFAFA"/>
</svg>
