<svg width="36" height="36" viewBox="0 0 36 36" fill="none" xmlns="http://www.w3.org/2000/svg">
<path d="M18 0.5C8.33594 0.5 0.5 8.33594 0.5 18C0.5 27.6641 8.33594 35.5 18 35.5C27.6641 35.5 35.5 27.6641 35.5 18C35.5 8.33594 27.6641 0.5 18 0.5ZM25.5586 12.2852L17.332 23.6914C17.2171 23.8519 17.0655 23.9827 16.8899 24.0729C16.7143 24.1631 16.5197 24.2101 16.3223 24.2101C16.1248 24.2101 15.9303 24.1631 15.7547 24.0729C15.5791 23.9827 15.4275 23.8519 15.3125 23.6914L10.4414 16.9414C10.293 16.7344 10.4414 16.4453 10.6953 16.4453H12.5273C12.9258 16.4453 13.3047 16.6367 13.5391 16.9648L16.3203 20.8242L22.4609 12.3086C22.6953 11.9844 23.0703 11.7891 23.4727 11.7891H25.3047C25.5586 11.7891 25.707 12.0781 25.5586 12.2852V12.2852Z" fill="url(#paint0_linear)"/>
<defs>
<linearGradient id="paint0_linear" x1="18" y1="0.5" x2="18" y2="35.5" gradientUnits="userSpaceOnUse">
<stop stop-color="#FDC830"/>
<stop offset="0.796875" stop-color="#F37335" stop-opacity="0.75"/>
</linearGradient>
</defs>
</svg>
