<svg width="40" height="40" viewBox="0 0 40 40" fill="none" xmlns="http://www.w3.org/2000/svg">
<path d="M35 10.0002H3.75V8.75021L31.25 6.55021V8.75021H35V5.00021C35 2.25021 32.7725 0.32021 30.0525 0.70771L4.95 4.29271C2.2275 4.68271 0 7.25021 0 10.0002V35.0002C0 36.3263 0.526784 37.5981 1.46447 38.5358C2.40215 39.4734 3.67392 40.0002 5 40.0002H35C36.3261 40.0002 37.5978 39.4734 38.5355 38.5358C39.4732 37.5981 40 36.3263 40 35.0002V15.0002C40 13.6741 39.4732 12.4024 38.5355 11.4647C37.5978 10.527 36.3261 10.0002 35 10.0002ZM31.25 27.5152C30.7574 27.5151 30.2696 27.4179 29.8145 27.2292C29.3595 27.0405 28.946 26.7641 28.5978 26.4156C28.2496 26.0672 27.9734 25.6535 27.7851 25.1984C27.5967 24.7432 27.4998 24.2553 27.5 23.7627C27.5002 23.2701 27.5974 22.7823 27.786 22.3273C27.9747 21.8722 28.2511 21.4588 28.5996 21.1105C28.948 20.7623 29.3617 20.4861 29.8169 20.2978C30.272 20.1094 30.7599 20.0125 31.2525 20.0127C32.2474 20.013 33.2014 20.4086 33.9047 21.1123C34.6079 21.816 35.0028 22.7703 35.0025 23.7652C35.0022 24.7601 34.6066 25.7141 33.9029 26.4174C33.1992 27.1206 32.2449 27.5155 31.25 27.5152Z" fill="#FAFAFA"/>
</svg>
