<svg width="217" height="50" viewBox="0 0 217 50" fill="none" xmlns="http://www.w3.org/2000/svg">
<g clip-path="url(#clip0)">
<path d="M34.4411 32.6284C40.3618 29.3771 44.8508 26.9 45.2377 26.7076C46.475 26.0491 47.7533 24.3072 45.2377 22.9542C44.4254 22.5288 40.0521 20.1284 34.4411 17.0334L26.6631 24.8885L34.4406 32.6284H34.4411Z" fill="#FFD900"/>
<path d="M26.6629 24.8885L1.896 49.85C2.47693 49.9271 3.13328 49.7729 3.90744 49.3474C5.53201 48.4585 22.7532 39.0534 34.4413 32.6301L26.6629 24.8885Z" fill="#F43249"/>
<path d="M26.663 24.8886L34.4405 17.0717C34.4405 17.0717 5.64943 1.35938 3.90706 0.432264C3.25155 0.0424332 2.51596 -0.072821 1.85791 0.0424333L26.663 24.8882V24.8886Z" fill="#00EE76"/>
<path d="M26.6631 24.8963L1.85763 0.0505371C0.850847 0.283164 0 1.17257 0 2.99079V46.9162C0 48.5815 0.658474 49.7806 1.89576 49.8959L26.6627 24.8959L26.6631 24.8963Z" fill="#00D3FF"/>
<path d="M107.429 19.9339C102.979 19.9339 99.3026 23.3775 99.3026 28.0991C99.3026 32.7822 102.941 36.2644 107.43 36.2644C111.918 36.2644 115.556 32.8207 115.556 28.0991C115.556 23.3775 111.918 19.9339 107.429 19.9339ZM107.429 33.0152C104.991 33.0152 102.864 30.9635 102.864 28.0627C102.864 25.1216 104.992 23.1101 107.429 23.1101C109.866 23.1101 111.995 25.1216 111.995 28.0627C111.995 30.9635 109.866 33.0152 107.429 33.0152ZM89.7442 19.9339C85.2552 19.9339 81.617 23.3775 81.617 28.0991C81.617 32.7822 85.2552 36.2644 89.7442 36.2644C94.2327 36.2644 97.8709 32.8207 97.8709 28.0991C97.8709 23.3775 94.2327 19.9339 89.7437 19.9339H89.7442ZM89.7442 33.0152C87.3052 33.0152 85.1785 30.9635 85.1785 28.0627C85.1785 25.1216 87.3073 23.1101 89.7442 23.1101C92.1827 23.1101 94.3098 25.1216 94.3098 28.0627C94.3098 30.9635 92.2192 33.0152 89.7442 33.0152ZM68.7306 22.4496V25.8932H76.934C76.7009 27.8279 76.045 29.2597 75.0768 30.2279C73.8776 31.4271 72.02 32.7436 68.7306 32.7436C63.6603 32.7436 59.7531 28.6419 59.7531 23.572C59.7531 18.5021 63.6624 14.3229 68.7306 14.3229C71.4772 14.3229 73.4522 15.4068 74.9226 16.8004L77.3594 14.3614C75.3077 12.3885 72.5611 10.8796 68.7306 10.8796C61.8026 10.8796 55.9976 16.5674 55.9976 23.4949C55.9976 30.4229 61.8026 36.1106 68.7306 36.1106C72.484 36.1106 75.2713 34.8729 77.5154 32.5496C79.7984 30.2665 80.495 27.0538 80.495 24.4614C80.495 23.6491 80.4183 22.9135 80.3009 22.294L68.7306 22.4496ZM154.719 25.1195C154.061 23.3004 151.972 19.9339 147.791 19.9339C143.611 19.9339 140.167 23.2237 140.167 28.0991C140.167 32.6648 143.611 36.2644 148.178 36.2644C151.893 36.2644 154.022 33.9813 154.912 32.6648L152.165 30.8076C151.235 32.1627 149.998 33.0517 148.178 33.0517C146.359 33.0517 145.083 32.2394 144.269 30.5746L155.066 26.0474L154.719 25.1195ZM143.728 27.8682C143.651 24.7326 146.167 23.108 147.945 23.108C149.378 23.108 150.539 23.8046 150.964 24.85L143.728 27.8682ZM134.943 35.7233H138.504V11.8072H134.943V35.7233ZM129.14 21.7529H129.024C128.212 20.7847 126.703 19.9339 124.767 19.9339C120.703 19.9339 117.027 23.5335 117.027 28.0991C117.027 32.6648 120.742 36.2263 124.767 36.2263C126.701 36.2263 128.21 35.375 129.024 34.3682H129.14V35.5292C129.14 38.6648 127.475 40.3275 124.805 40.3275C122.638 40.3275 121.283 38.7415 120.742 37.425L117.647 38.7415C118.536 40.9089 120.898 43.5788 124.805 43.5788C128.984 43.5788 132.506 41.1017 132.506 35.1038V20.4364H129.14V21.7529ZM125.076 33.0152C122.638 33.0152 120.588 30.9635 120.588 28.1013C120.588 25.239 122.64 23.1483 125.076 23.1483C127.477 23.1483 129.411 25.239 129.411 28.1013C129.409 30.925 127.475 33.0152 125.076 33.0152ZM171.321 11.8076H162.807V35.7233H166.368V26.6669H171.321C175.269 26.6669 179.138 23.8025 179.138 19.2373C179.138 14.6716 175.269 11.8072 171.321 11.8072V11.8076ZM171.436 23.3411H166.405V15.1351H171.436C174.067 15.1351 175.615 17.3411 175.615 19.2368C175.578 21.0945 174.07 23.3411 171.436 23.3411ZM193.341 19.8953C190.787 19.8953 188.117 21.0178 187.033 23.572L190.169 24.8885C190.866 23.572 192.104 23.1466 193.42 23.1466C195.278 23.1466 197.135 24.2686 197.173 26.2415V26.4746C196.515 26.0877 195.162 25.5449 193.459 25.5449C190.054 25.5449 186.608 27.4411 186.608 30.925C186.608 34.1373 189.395 36.1877 192.49 36.1877C194.89 36.1877 196.205 35.1038 197.017 33.8275H197.133V35.6852H200.576V26.5127C200.538 22.2953 197.404 19.8949 193.341 19.8949V19.8953ZM192.916 32.9767C191.755 32.9767 190.129 32.3953 190.129 30.9652C190.129 29.1076 192.14 28.411 193.882 28.411C195.429 28.411 196.165 28.7593 197.133 29.2233C196.862 31.4292 194.966 32.9767 192.916 32.9767ZM213 20.4385L208.936 30.7707H208.82L204.604 20.4381H200.773L207.119 34.911L203.519 42.9996H207.234L216.947 20.4381H212.999L213 20.4385ZM181.112 35.7233H184.673V11.8072H181.112V35.7233Z" fill="#808285"/>
</g>
<defs>
<clipPath id="clip0">
<rect width="216.949" height="50" fill="white"/>
</clipPath>
</defs>
</svg>
